<?xml version="1.0" encoding="UTF-8"?>
<!DOCTYPE svg PUBLIC "-//W3C//DTD SVG 1.0//EN" "http://www.w3.org/TR/2001/REC-SVG-20010904/DTD/svg10.dtd">
<!-- Creator: CorelDRAW -->
<svg xmlns="http://www.w3.org/2000/svg" xml:space="preserve" width="52.6879mm" height="52.6879mm" version="1.0" style="shape-rendering:geometricPrecision; text-rendering:geometricPrecision; image-rendering:optimizeQuality; fill-rule:evenodd; clip-rule:evenodd"
viewBox="0 0 6279.87 6279.87"
 xmlns:xlink="http://www.w3.org/1999/xlink"
 xmlns:xodm="http://www.corel.com/coreldraw/odm/2003">
 <defs>
  <style type="text/css">
   <![CDATA[
    .fil7 {fill:none}
    .fil5 {fill:white;fill-rule:nonzero}
    .fil3 {fill:url(#id1);fill-rule:nonzero}
    .fil6 {fill:url(#id2);fill-rule:nonzero}
    .fil1 {fill:url(#id3);fill-rule:nonzero}
    .fil2 {fill:url(#id4);fill-rule:nonzero}
    .fil4 {fill:url(#id5);fill-rule:nonzero}
    .fil0 {fill:url(#id6);fill-rule:nonzero}
   ]]>
  </style>
   <clipPath id="id0">
    <path d="M-0 0l6279.87 0 0 6279.87 -6279.87 0 0 -6279.87z"/>
   </clipPath>
  <linearGradient id="id1" gradientUnits="userSpaceOnUse" x1="3354.34" y1="-6913.17" x2="3212.39" y2="18636.09">
   <stop offset="0" style="stop-opacity:1; stop-color:#CCAEFF"/>
   <stop offset="0.329412" style="stop-opacity:1; stop-color:#5A2BD9"/>
   <stop offset="0.658824" style="stop-opacity:1; stop-color:#31177D"/>
   <stop offset="1" style="stop-opacity:1; stop-color:#0B0016"/>
  </linearGradient>
  <linearGradient id="id2" gradientUnits="userSpaceOnUse" x1="-1736.23" y1="-13026.63" x2="9830.39" y2="28030.23">
   <stop offset="0" style="stop-opacity:1; stop-color:#FFCE70"/>
   <stop offset="0.501961" style="stop-opacity:1; stop-color:#E37908"/>
   <stop offset="1" style="stop-opacity:1; stop-color:#412200"/>
  </linearGradient>
  <linearGradient id="id3" gradientUnits="userSpaceOnUse" xlink:href="#id2" x1="3322.76" y1="3262.55" x2="9385.31" y2="24782.63">
  </linearGradient>
  <linearGradient id="id4" gradientUnits="userSpaceOnUse" xlink:href="#id1" x1="998.51" y1="-3228.54" x2="7013.61" y2="18123.15">
  </linearGradient>
  <linearGradient id="id5" gradientUnits="userSpaceOnUse" xlink:href="#id1" x1="-437.45" y1="-8490.36" x2="5237.93" y2="11654.95">
  </linearGradient>
  <linearGradient id="id6" gradientUnits="userSpaceOnUse" xlink:href="#id1" x1="-907.83" y1="-12490.84" x2="7398.68" y2="16993.94">
  </linearGradient>
 </defs>
 <g id="Camada_x0020_1">
  <metadata id="CorelCorpID_0Corel-Layer"/>
  <g>
  </g>
  <g style="clip-path:url(#id0)">
   <g id="_2548133808960">
    <g>
     <path class="fil0" d="M5556.99 4611.37c-288.05,-1285.68 -502.03,-2719.66 -853.69,-3576.59 -32.23,-78.52 -117.01,-121.37 -199.37,-100.82 -1073.03,267.64 -2383.18,655.08 -2967.73,898.01 -39.34,16.35 -61.67,58.21 -52.77,99.88 234.42,1097.31 586.61,2226.17 941.91,3196.3l-175.73 -126.45 -402.49 377.83c72.32,63.33 705.26,157.43 788.97,145.32 0.18,-0.02 0.37,-0.06 0.55,-0.1 5.83,-0.12 11.7,-0.69 17.59,-2 1046.95,-233.47 2155.49,-515.08 2850.34,-809.78 39.82,-16.89 61.87,-59.4 52.42,-101.61z"/>
     <path class="fil1" d="M5182.12 4599.71c-667.39,283.05 -1469.53,548.11 -2491.65,760.62 -199.05,41.38 -533.92,-109.73 -549,-149.27 -380.93,-999.06 -569.66,-2103.23 -821.61,-3282.61 -8.55,-40.02 12.9,-80.24 50.68,-95.94 561.46,-233.34 1685.87,-746.33 2716.5,-1003.4 79.09,-19.74 294.53,162.28 325.47,237.7 337.77,823.07 543.3,2200.4 819.97,3435.29 9.08,40.55 -12.1,81.38 -50.36,97.6z"/>
     <g>
      <path class="fil2" d="M4764.37 4581.72c-694.85,294.71 -1803.38,576.31 -2850.33,809.78 -43,9.59 -86.41,-13.66 -102.11,-54.84 -396.59,-1040.16 -806.37,-2308.17 -1068.69,-3536.05 -8.89,-41.67 13.42,-83.54 52.78,-99.89 584.54,-242.93 1894.7,-630.36 2967.72,-898.01 82.36,-20.54 167.15,22.31 199.37,100.83 351.66,856.92 565.64,2290.9 853.69,3576.58 9.45,42.22 -12.6,84.73 -52.42,101.61z"/>
      <path class="fil3" d="M4816.79 4480.11c-288.05,-1285.68 -502.03,-2719.66 -853.69,-3576.58 -32.22,-78.52 -117.01,-121.37 -199.37,-100.83 -53,13.23 -106.73,26.82 -160.79,40.58 289.91,574.13 403.71,1238.31 305.72,1874.56 -138.59,899.94 -697.71,1726.08 -1481.65,2189.28 -209.85,123.98 -435.08,223.71 -648.52,340.84 11.14,29.54 22.3,59.52 33.43,88.71 15.7,41.17 59.11,64.42 102.11,54.83 1046.95,-233.47 2155.48,-515.07 2850.33,-809.78 39.82,-16.88 61.87,-59.39 52.42,-101.61z"/>
      <path class="fil4" d="M2783.22 1969.16c-352.58,65.39 -669.17,302.4 -831.23,622.28 -162.05,319.88 -165.88,715.33 -10.04,1038.28 130.64,270.75 372.97,489.05 661.05,574.98 288.07,85.92 617.79,32.67 854.53,-152.6 236.74,-185.28 368.52,-501.71 317.74,-798.01 -43.96,-256.39 -222.69,-485.73 -460.6,-590.97 -172.17,-76.16 -378.94,-86.58 -546.13,0.01 -167.16,86.59 -281.87,279.13 -250.89,464.84 30.97,185.7 225.14,336.35 409.02,295.95 59.25,-13.02 122.24,-56.54 119.15,-117.14 -3.97,-77.54 -108.08,-112.99 -129.65,-187.59 -16.15,-55.85 23.71,-117.27 77.76,-138.67 54.06,-21.39 116.5,-9.59 168.46,16.5 151.13,75.89 223.67,271.41 173.92,433.03 -49.76,161.63 -206.9,279.33 -374.85,299.17 -167.94,19.83 -340.1,-51.06 -459.41,-170.91 -119.3,-119.85 -188.17,-284.27 -209.64,-452 -26.21,-204.77 19.27,-423.86 150.88,-582.91 131.6,-159.06 355.36,-246.06 553.79,-189.09 93.6,26.87 176.02,82.09 258.34,134.11 82.34,52.03 168.78,102.6 264.91,118.27 96.11,15.66 204.9,-10.64 263.39,-88.51 150.18,-199.94 -132.28,-360.31 -273.68,-428.44 -223.87,-107.87 -482.02,-145.97 -726.83,-100.57z"/>
      <path class="fil5" d="M1345.23 1905.86c-69.05,88.78 -110.1,196.48 -136.31,305.87 -34.48,143.91 -44.73,294.55 -20.2,440.49 24.54,145.94 84.74,286.99 180.78,399.57 22.32,26.19 53.65,53.03 86.97,44.49 31.45,-8.06 46.65,-43.24 55.05,-74.61 37.2,-138.83 29.15,-285.07 33.89,-428.74 4.73,-143.66 25.18,-293.9 109.32,-410.43 45.04,-62.37 106.39,-112.11 147.7,-177.01 41.31,-64.91 58.05,-155.98 9.51,-215.67 -129.15,-158.86 -374.94,-1.98 -466.71,116.04z"/>
      <path class="fil6" d="M1146.25 1687.86c0,0 50.86,207.86 -15.47,252.07 -66.34,44.23 -159.21,37.6 -159.21,37.6 0,0 -11.06,311.78 -95.09,337.77 -84.02,25.98 -165.84,-499.2 -154.78,-592.08 8.74,-73.43 477.88,-216 673.85,-272.44 38.83,-11.19 69.07,34.62 43.35,65.78 -89.87,108.9 -292.65,171.29 -292.65,171.29zm2051.95 -738.92l0 0c2.85,67.46 386.32,23.95 386.32,23.95 0,0 11.8,147.41 85.51,179.85 73.71,32.44 171,-29.48 171,-29.48 0,0 244.71,297.78 279.91,228.88 27.15,-53.13 -104.98,-386.72 -166.84,-536.53 -17.9,-43.36 -63.3,-68.31 -109.49,-60.13 -209.07,37.04 -648.87,135.2 -646.4,193.47zm-1531.35 3883.15l0 0c-26.2,-23.33 -66.91,2.48 -57.75,36.34 45.02,166.28 146.29,503.59 232.84,527.69 115.19,32.06 465.54,-25.47 471.75,-92.23 6.22,-66.77 -280.56,-93.02 -280.56,-93.02 0,0 50.61,-95.59 -33.74,-174.33 -84.35,-78.72 -187.38,-37.93 -187.38,-37.93 0,0 -64.71,-94.92 -145.16,-166.53zm3012.47 -997.18l0 0c-30.58,-12.24 -54.03,171.8 -45.18,266.15 0,0 -106.14,38.32 -106.14,141.51 0,103.19 103.19,141.53 103.19,141.53 0,0 -321.38,289.39 -280.1,355.5 41.28,66.11 507.12,-104.9 527.75,-196.29 20.64,-91.39 -68.83,-656.13 -199.52,-708.39z"/>
     </g>
    </g>
   </g>
  </g>
  <polygon class="fil7" points="-0,0 6279.87,0 6279.87,6279.87 -0,6279.87 "/>
 </g>
</svg>
