<?xml version="1.0" encoding="UTF-8"?>
<!DOCTYPE svg PUBLIC "-//W3C//DTD SVG 1.0//EN" "http://www.w3.org/TR/2001/REC-SVG-20010904/DTD/svg10.dtd">
<!-- Creator: CorelDRAW -->
<svg xmlns="http://www.w3.org/2000/svg" xml:space="preserve" width="227.477mm" height="299.122mm" version="1.0" style="shape-rendering:geometricPrecision; text-rendering:geometricPrecision; image-rendering:optimizeQuality; fill-rule:evenodd; clip-rule:evenodd"
viewBox="0 0 22739.84 29901.84"
 xmlns:xlink="http://www.w3.org/1999/xlink"
 xmlns:xodm="http://www.corel.com/coreldraw/odm/2003">
 <defs>
  <style type="text/css">
   <![CDATA[
    .str0 {stroke:#2884DB;stroke-width:1399.52;stroke-linecap:round;stroke-linejoin:bevel;stroke-miterlimit:22.9256}
    .str1 {stroke:#2884DB;stroke-width:1399.52;stroke-linecap:round;stroke-linejoin:bevel;stroke-miterlimit:22.9256}
    .fil7 {fill:none}
    .fil3 {fill:#2884DB}
    .fil2 {fill:#2884DB}
    .fil8 {fill:#A6D7FF}
    .fil6 {fill:#A7D7FF}
    .fil1 {fill:#A7D7FF}
    .fil4 {fill:#ABD5FF}
    .fil5 {fill:white}
    .fil0 {fill:white}
   ]]>
  </style>
     <clipPath id="id0">
      <path d="M19222.11 20491.33c-960.39,-3691.62 -4031.4,-4383.92 -7852.19,-4010.76 -3820.79,-373.15 -6891.8,319.14 -7852.19,4010.76 3008.52,11885.18 12695.85,11885.18 15704.37,0z"/>
     </clipPath>
      <clipPath id="id1">
       <path d="M8858.62 5375.6l5022.58 0c2943.91,0 5352.56,2408.65 5352.56,5352.56l0 1300.12c0,2943.91 -2408.65,5352.56 -5352.56,5352.56l-5022.58 0c-2943.9,0 -5352.56,-2408.65 -5352.56,-5352.56l0 -1300.12c0,-2943.91 2408.66,-5352.56 5352.56,-5352.56z"/>
      </clipPath>
      <clipPath id="id2">
       <path d="M4442.86 18061.28c140.27,84.16 308.59,203.4 452.38,483.94 143.78,280.55 263.01,722.42 291.07,1455.36 28.05,732.95 -35.07,1756.95 -168.33,2696.8 -133.26,939.86 -336.66,1795.53 -599.67,2402.22 -263.02,606.7 -585.66,964.4 -932.84,1164.29 -347.18,199.9 -718.91,241.98 -1041.54,133.26 -322.64,-108.71 -596.18,-368.21 -789.06,-792.55 -192.88,-424.33 -305.09,-1013.5 -378.74,-1648.25 -73.64,-634.74 -108.72,-1315.08 -52.61,-1970.87 56.11,-655.78 203.4,-1287.03 389.27,-1809.55 185.87,-522.53 410.31,-936.34 666.31,-1276.51 256,-340.16 543.57,-606.69 848.68,-764.5 305.09,-157.81 627.72,-206.91 845.16,-206.91 217.42,0 329.65,49.1 469.93,133.26z"/>
      </clipPath>
      <clipPath id="id3">
       <path d="M18296.98 18061.28c-140.27,84.16 -308.59,203.4 -452.38,483.94 -143.78,280.55 -263.01,722.42 -291.07,1455.36 -28.05,732.95 35.07,1756.95 168.33,2696.8 133.26,939.86 336.66,1795.53 599.67,2402.22 263.02,606.7 585.66,964.4 932.84,1164.29 347.18,199.9 718.91,241.98 1041.54,133.26 322.64,-108.71 596.18,-368.21 789.06,-792.55 192.88,-424.33 305.09,-1013.5 378.74,-1648.25 73.64,-634.74 108.72,-1315.08 52.61,-1970.87 -56.11,-655.78 -203.4,-1287.03 -389.27,-1809.55 -185.87,-522.53 -410.31,-936.34 -666.31,-1276.51 -256,-340.16 -543.57,-606.69 -848.68,-764.5 -305.09,-157.81 -627.72,-206.91 -845.16,-206.91 -217.42,0 -329.65,49.1 -469.93,133.26z"/>
      </clipPath>
 </defs>
 <g id="Camada_x0020_1">
  <metadata id="CorelCorpID_0Corel-Layer"/>
  <g id="_1890762603504">
   <path class="fil0" d="M18730.23 16728.71l36.68 -0.28c96.64,0 215.97,7.65 356.39,25.64 115.48,14.8 237.26,36.62 361.2,66.96 119.22,29.18 236.58,64.04 347.77,105.23 107.78,39.94 217.7,87.89 328.06,144.97 118.74,61.42 237.12,133.74 354.7,216.11 121.26,84.95 232.61,173.4 334.05,264.78 99.46,89.58 196.87,187.51 291.9,292.92 88.23,97.88 180.34,210.74 275.69,337.44 91.2,121.18 172.37,237.32 242.65,348.04 73.87,116.4 147.18,243.15 219.9,381.16 67.99,129.03 134.09,266.66 198.17,413.64 64.68,148.33 124.45,299.03 178.96,452.31 56.7,159.42 110.75,329.13 161.03,507.42 48.3,171.28 92.54,348.69 131.64,530.49 38.84,180.54 72.12,360.18 98.79,536.76 26.62,176.18 48.04,354.91 63.42,534.78 14.13,165.17 22.79,353.56 26.75,560.58 3.63,189.48 1.86,379.48 -4.4,568.65 -6.88,208.62 -16.88,392.36 -29.3,554.53 -13.63,178 -30.72,352.08 -50.36,521.41 -18.37,158.4 -41.83,330.78 -71.8,520.46 -29.86,188.91 -60.39,357.5 -91.6,499.72 -38.28,174.47 -82.72,344.87 -134.41,509.63 -52.63,167.71 -112.07,326.62 -179.33,474.57 -76.99,169.41 -163.06,323.85 -257.33,463.49 -97.2,143.98 -206.02,275.88 -325.41,395.8 -132.54,133.13 -275.07,247.02 -426.39,342.04 -155.27,97.5 -319.73,175.09 -492.19,233.18 -166.17,55.98 -338.9,92.53 -515.7,109.36 -173.95,16.55 -351.47,13.53 -530.12,-9.32 -172.7,-22.1 -340.12,-60.47 -499.78,-115.23 -154.18,-52.89 -311.64,-124.96 -470.61,-216.49 -151.13,-87.01 -295.2,-187.11 -430.47,-302.02 -135.49,-115.13 -267.66,-249.03 -395.51,-404.04 -113.89,-138.07 -222.44,-291.64 -324.58,-462.33 -21.15,-35.34 -42.12,-71.62 -62.89,-108.83 -931.75,1424.15 -2013.06,2456.49 -3163.13,3096.16 -939.1,522.32 -1923.67,783.46 -2911.59,783.42 -987.95,-0.04 -1972.54,-261.25 -2911.68,-783.6 -1150.53,-639.92 -2232.34,-1672.74 -3164.5,-3097.51 -21.05,37.75 -42.31,74.53 -63.75,110.36 -102.13,170.69 -210.69,324.26 -324.58,462.33 -127.86,155.01 -260.02,288.91 -395.51,404.04 -135.27,114.91 -279.34,215.01 -430.47,302.02 -158.97,91.53 -316.43,163.59 -470.61,216.49 -159.65,54.76 -327.08,93.13 -499.78,115.23 -178.65,22.84 -356.17,25.87 -530.12,9.32 -176.8,-16.83 -349.53,-53.38 -515.7,-109.36 -172.46,-58.09 -336.92,-135.68 -492.19,-233.18 -151.32,-95.02 -293.85,-208.91 -426.39,-342.04 -119.39,-119.92 -228.21,-251.82 -325.41,-395.8 -94.27,-139.64 -180.34,-294.08 -257.33,-463.49 -67.26,-147.95 -126.7,-306.85 -179.33,-474.57 -51.69,-164.76 -96.14,-335.16 -134.41,-509.63 -31.21,-142.22 -61.74,-310.8 -91.6,-499.72 -29.97,-189.68 -53.42,-362.06 -71.8,-520.46 -19.64,-169.33 -36.74,-343.41 -50.36,-521.41 -12.42,-162.16 -22.42,-345.91 -29.3,-554.53 -6.26,-189.17 -8.03,-379.17 -4.4,-568.65 3.96,-207.02 12.63,-395.4 26.75,-560.58 15.37,-179.87 36.8,-358.6 63.42,-534.78 26.67,-176.59 59.95,-356.23 98.79,-536.76 39.11,-181.8 83.34,-359.21 131.64,-530.49 50.28,-178.3 104.33,-348 161.03,-507.42 54.51,-153.29 114.28,-303.98 178.96,-452.31 64.08,-146.98 130.19,-284.61 198.17,-413.64 72.72,-138.01 146.03,-264.76 219.9,-381.16 70.28,-110.72 151.45,-226.86 242.65,-348.04 95.36,-126.71 187.47,-239.57 275.69,-337.44 95.03,-105.41 192.44,-203.34 291.9,-292.92 101.44,-91.38 212.8,-179.83 334.05,-264.78 117.58,-82.36 235.96,-154.69 354.7,-216.11 110.35,-57.08 220.27,-105.03 328.06,-144.97 111.19,-41.2 228.55,-76.05 347.77,-105.23 123.94,-30.34 245.72,-52.15 361.2,-66.96 140.42,-17.99 259.75,-25.64 356.39,-25.64l36.66 0.28c-148.86,-157.32 -289.96,-322.01 -422.62,-493.47 -399.92,-516.88 -723.95,-1096.36 -954.81,-1721.18l-221.86 0c-426.23,0 -813.36,-174 -1093.7,-454.33 -280.33,-280.33 -454.33,-667.47 -454.33,-1093.7l0 -3119.63c0,-426.23 174,-813.37 454.33,-1093.7 280.34,-280.33 667.47,-454.33 1093.7,-454.33l228.69 0c444.42,-1189.92 1229.25,-2216.82 2234.25,-2960.2 1078.24,-797.54 2407.94,-1270.29 3841.06,-1270.29l175.58 0c47.54,-173.38 139.78,-328.56 263.38,-452.16 184.81,-184.79 440.17,-299.51 721.46,-299.51l563.13 0 0 -58.63c-201.34,-126.02 -375.51,-291.7 -511.59,-486.14 -201.23,-287.53 -319.31,-635.39 -319.31,-1008.46 0,-486.79 197.35,-927.53 516.4,-1246.57 319.04,-319.05 759.78,-516.4 1246.57,-516.4 486.78,0 927.53,197.35 1246.59,516.39 319.06,319.06 516.4,759.8 516.4,1246.58 0,373.07 -118.08,720.93 -319.31,1008.46 -136.08,194.44 -310.26,360.13 -511.59,486.14l0 58.63 563.13 0c281.31,0 536.67,114.72 721.45,299.52 123.61,123.59 215.85,278.76 263.39,452.15l175.57 0c1433.12,0 2762.83,472.75 3841.06,1270.29 1005,743.37 1789.82,1770.28 2234.24,2960.2l228.7 0c426.23,0 813.36,174 1093.7,454.33 280.33,280.33 454.33,667.47 454.33,1093.7l0 3119.63c0,426.23 -174,813.37 -454.33,1093.7 -280.34,280.33 -667.47,454.33 -1093.7,454.33l-221.87 0c-230.86,624.82 -554.89,1204.31 -954.81,1721.18 -132.66,171.46 -273.76,336.15 -422.62,493.47z"/>
   <g>
    <path class="fil0" d="M19222.11 20491.33c-960.39,-3691.62 -4031.4,-4383.92 -7852.19,-4010.76 -3820.79,-373.15 -6891.8,319.14 -7852.19,4010.76 3008.52,11885.18 12695.85,11885.18 15704.37,0z"/>
    <g style="clip-path:url(#id0)">
     <g>
      <path id="_1" class="fil1" d="M4928.47 24589.43c632.85,493.25 1219.18,967.9 1917.18,1391.34 698,423.45 1507.67,795.73 2289.43,1005.12 781.76,209.4 1535.59,255.93 2312.69,103.69 777.11,-152.23 1577.47,-503.23 2219.63,-1061.62 642.16,-558.4 1126.11,-1324.2 1526.29,-2200.35 400.19,-876.15 716.61,-1862.66 902.75,-2807.28 186.14,-944.62 241.97,-1847.36 144.25,-2605.86 -97.72,-758.49 -349,-1372.73 -474.64,-1679.85 -125.64,-307.11 -125.64,-307.11 251.28,-465.33 376.92,-158.21 1130.75,-474.64 1507.67,-632.85 376.92,-158.21 376.92,-158.21 753.84,330.39 376.92,488.6 1130.75,1465.8 1577.46,3001.39 446.73,1535.6 586.33,3629.59 321.09,5365.28 -265.24,1735.69 -935.32,3113.07 -2014.89,4011.16 -1079.57,898.09 -2568.62,1316.89 -4532.32,1479.76 -1963.7,162.86 -4402.04,69.8 -6258.72,-516.52 -1856.67,-586.32 -3131.68,-1665.89 -3773.84,-2787.35 -642.16,-1121.44 -651.46,-2284.77 -656.12,-2866.44 -4.65,-581.66 -4.65,-581.66 -4.65,-581.66 0,0 0,0 339.69,255.93 339.69,255.93 1019.07,767.79 1651.92,1261.04z"/>
     </g>
    </g>
    <g>
     <path class="fil2" d="M18396.26 20495.49c-427.43,-1456.57 -1249.65,-2328.91 -2343.12,-2799.7 -1228.06,-528.75 -2822.21,-596.17 -4608.25,-421.74l-149.95 0c-1786.03,-174.43 -3380.19,-107 -4608.25,421.74 -1093.47,470.8 -1915.69,1343.14 -2343.12,2799.7 895.42,3410.36 2351.17,5745.16 4015.34,7012.51 963.49,733.74 1992.48,1100.62 3011,1100.62l0 -3.12c1021.2,0 2050.25,-365.83 3011,-1097.49 1664.17,-1267.35 3119.92,-3602.15 4015.34,-7012.52zm825.84 -4.16c-960.39,-3691.62 -4031.4,-4383.92 -7852.19,-4010.76 -3820.79,-373.15 -6891.8,319.14 -7852.19,4010.76 3008.52,11885.18 12695.85,11885.18 15704.37,0z"/>
    </g>
    <g>
     <path class="fil3" d="M8714.3 4567.7l639.28 0 0 -230.53c0,-286.63 234.5,-521.14 521.14,-521.14l1062.95 0 0 -865.82c-484.74,-176.54 -830.9,-641.45 -830.9,-1187.24 0,-697.61 565.53,-1263.14 1263.14,-1263.14 697.63,0 1263.16,565.53 1263.16,1263.14 0,545.79 -346.16,1010.7 -830.9,1187.24l0 865.82 1062.95 0c286.63,0 521.14,234.51 521.14,521.14l0 230.53 639.27 0c2681.54,0 4965.57,1787.93 5719.39,4230.49l584.61 0c576.52,0 1048.21,471.68 1048.21,1048.21l0 3119.63c0,576.53 -471.69,1048.21 -1048.21,1048.21l-578.58 0c-747.47,2452.83 -3036.52,4250.62 -5725.42,4250.62l-5311.23 0c-2688.9,0 -4977.96,-1797.79 -5725.43,-4250.62l-578.57 0c-576.52,0 -1048.21,-471.68 -1048.21,-1048.21l0 -3119.63c0,-576.53 471.69,-1048.21 1048.21,-1048.21l584.6 0c753.83,-2442.56 3037.85,-4230.49 5719.4,-4230.49z"/>
     <ellipse class="fil4" cx="11379.89" cy="1202.3" rx="377.49" ry="390.31"/>
     <path class="fil5" d="M8858.62 5375.6l5022.58 0c2943.91,0 5352.56,2408.65 5352.56,5352.56l0 1300.12c0,2943.91 -2408.65,5352.56 -5352.56,5352.56l-5022.58 0c-2943.9,0 -5352.56,-2408.65 -5352.56,-5352.56l0 -1300.12c0,-2943.91 2408.66,-5352.56 5352.56,-5352.56z"/>
     <g style="clip-path:url(#id1)">
      <g>
       <path id="_1_0" class="fil6" d="M19230.93 12194.26c-88.52,2867.9 -2461.35,5186.59 -5349.72,5186.59l-5022.57 0c-2888.37,0 -5261.21,-2318.69 -5349.73,-5186.59 316.48,2647.6 2585.29,4717.83 5314.49,4717.83l5093.05 0c2729.21,0 4998,-2070.23 5314.48,-4717.83z"/>
      </g>
     </g>
     <path class="fil7" d="M8858.62 5375.6l5022.58 0c2943.91,0 5352.56,2408.65 5352.56,5352.56l0 1300.12c0,2943.91 -2408.65,5352.56 -5352.56,5352.56l-5022.58 0c-2943.9,0 -5352.56,-2408.65 -5352.56,-5352.56l0 -1300.12c0,-2943.91 2408.66,-5352.56 5352.56,-5352.56z"/>
     <path class="fil3" d="M8832.3 6512.26l5075.24 0c2032.43,0 3695.33,1662.9 3695.33,3695.33l0 1280.25c0,678.52 -185.51,1315.77 -508.08,1863.73l529.56 1955.97 -1914.68 -597c-533.96,300.63 -1148.88,472.64 -1802.13,472.64l-5075.24 0c-2032.44,0 -3695.33,-1662.9 -3695.33,-3695.33l0 -1280.25c0,-2032.44 1662.9,-3695.33 3695.33,-3695.33z"/>
     <g>
      <g>
       <rect class="fil0" x="7038.3" y="9503.09" width="2065.6" height="3370.44" rx="1032.8" ry="1187.31"/>
       <path class="fil8" d="M8071.1 9503.1c568.04,0 1032.8,464.76 1032.8,1032.79l0 232.75c0,-568.04 -464.76,-1032.8 -1032.8,-1032.8 -568.04,0 -1032.8,464.76 -1032.8,1032.8l0 -232.75c0,-568.03 464.76,-1032.79 1032.8,-1032.79z"/>
      </g>
      <g>
       <rect class="fil0" x="13635.94" y="9503.09" width="2065.6" height="3370.44" rx="1032.8" ry="1187.31"/>
       <path class="fil8" d="M14668.74 9503.1c568.03,0 1032.79,464.76 1032.79,1032.79l0 232.75c0,-568.04 -464.76,-1032.8 -1032.79,-1032.8 -568.04,0 -1032.8,464.76 -1032.8,1032.8l0 -232.75c0,-568.03 464.76,-1032.79 1032.8,-1032.79z"/>
      </g>
     </g>
    </g>
    <g>
     <g>
      <path class="fil7 str0" d="M4442.86 18061.28c140.27,84.16 308.59,203.4 452.38,483.94 143.78,280.55 263.01,722.42 291.07,1455.36 28.05,732.95 -35.07,1756.95 -168.33,2696.8 -133.26,939.86 -336.66,1795.53 -599.67,2402.22 -263.02,606.7 -585.66,964.4 -932.84,1164.29 -347.18,199.9 -718.91,241.98 -1041.54,133.26 -322.64,-108.71 -596.18,-368.21 -789.06,-792.55 -192.88,-424.33 -305.09,-1013.5 -378.74,-1648.25 -73.64,-634.74 -108.72,-1315.08 -52.61,-1970.87 56.11,-655.78 203.4,-1287.03 389.27,-1809.55 185.87,-522.53 410.31,-936.34 666.31,-1276.51 256,-340.16 543.57,-606.69 848.68,-764.5 305.09,-157.81 627.72,-206.91 845.16,-206.91 217.42,0 329.65,49.1 469.93,133.26z"/>
     </g>
     <path id="_1_1" class="fil0" d="M4442.86 18061.28c140.27,84.16 308.59,203.4 452.38,483.94 143.78,280.55 263.01,722.42 291.07,1455.36 28.05,732.95 -35.07,1756.95 -168.33,2696.8 -133.26,939.86 -336.66,1795.53 -599.67,2402.22 -263.02,606.7 -585.66,964.4 -932.84,1164.29 -347.18,199.9 -718.91,241.98 -1041.54,133.26 -322.64,-108.71 -596.18,-368.21 -789.06,-792.55 -192.88,-424.33 -305.09,-1013.5 -378.74,-1648.25 -73.64,-634.74 -108.72,-1315.08 -52.61,-1970.87 56.11,-655.78 203.4,-1287.03 389.27,-1809.55 185.87,-522.53 410.31,-936.34 666.31,-1276.51 256,-340.16 543.57,-606.69 848.68,-764.5 305.09,-157.81 627.72,-206.91 845.16,-206.91 217.42,0 329.65,49.1 469.93,133.26z"/>
     <g style="clip-path:url(#id2)">
      <g>
       <path id="_2" class="fil1" d="M1384.76 24134.48c202.64,255.5 513.91,689.14 823.73,923.57 309.81,234.44 618.19,269.69 917.74,75.85 299.56,-193.83 590.3,-616.74 845.81,-1145.37 255.5,-528.63 475.77,-1162.98 629.95,-1859.02 154.19,-696.03 242.29,-1453.73 278.74,-2116.66 36.45,-662.93 21.24,-1231.09 13.65,-1515.18 -7.61,-284.07 -7.61,-284.07 110.13,83.7 117.73,367.78 353.19,1103.34 376.74,2135.03 23.55,1031.69 -164.8,2359.51 -371.85,3315.45 -207.05,955.95 -432.78,1540 -695.42,1902.51 -262.65,362.51 -562.21,503.48 -945.46,595.98 -383.26,92.52 -850.22,136.57 -1198.23,44.06 -348.02,-92.51 -577.1,-321.59 -753.31,-819.39 -176.21,-497.79 -299.56,-1264.3 -361.23,-1647.56 -61.68,-383.26 -61.68,-383.26 -14.66,-344.57 47,38.69 141.03,116.07 343.67,371.57z"/>
      </g>
     </g>
     <g>
      <path class="fil7 str1" d="M18296.98 18061.28c-140.27,84.16 -308.59,203.4 -452.38,483.94 -143.78,280.55 -263.01,722.42 -291.07,1455.36 -28.05,732.95 35.07,1756.95 168.33,2696.8 133.26,939.86 336.66,1795.53 599.67,2402.22 263.02,606.7 585.66,964.4 932.84,1164.29 347.18,199.9 718.91,241.98 1041.54,133.26 322.64,-108.71 596.18,-368.21 789.06,-792.55 192.88,-424.33 305.09,-1013.5 378.74,-1648.25 73.64,-634.74 108.72,-1315.08 52.61,-1970.87 -56.11,-655.78 -203.4,-1287.03 -389.27,-1809.55 -185.87,-522.53 -410.31,-936.34 -666.31,-1276.51 -256,-340.16 -543.57,-606.69 -848.68,-764.5 -305.09,-157.81 -627.72,-206.91 -845.16,-206.91 -217.42,0 -329.65,49.1 -469.93,133.26z"/>
     </g>
     <path id="_1_2" class="fil0" d="M18296.98 18061.28c-140.27,84.16 -308.59,203.4 -452.38,483.94 -143.78,280.55 -263.01,722.42 -291.07,1455.36 -28.05,732.95 35.07,1756.95 168.33,2696.8 133.26,939.86 336.66,1795.53 599.67,2402.22 263.02,606.7 585.66,964.4 932.84,1164.29 347.18,199.9 718.91,241.98 1041.54,133.26 322.64,-108.71 596.18,-368.21 789.06,-792.55 192.88,-424.33 305.09,-1013.5 378.74,-1648.25 73.64,-634.74 108.72,-1315.08 52.61,-1970.87 -56.11,-655.78 -203.4,-1287.03 -389.27,-1809.55 -185.87,-522.53 -410.31,-936.34 -666.31,-1276.51 -256,-340.16 -543.57,-606.69 -848.68,-764.5 -305.09,-157.81 -627.72,-206.91 -845.16,-206.91 -217.42,0 -329.65,49.1 -469.93,133.26z"/>
     <g style="clip-path:url(#id3)">
      <g>
       <path id="_2_3" class="fil1" d="M21355.08 24134.48c-202.64,255.5 -513.91,689.14 -823.73,923.57 -309.81,234.44 -618.19,269.69 -917.74,75.85 -299.56,-193.83 -590.3,-616.74 -845.81,-1145.37 -255.5,-528.63 -475.77,-1162.98 -629.95,-1859.02 -154.19,-696.03 -242.29,-1453.73 -278.74,-2116.66 -36.45,-662.93 -21.24,-1231.09 -13.65,-1515.18 7.61,-284.07 7.61,-284.07 -110.13,83.7 -117.73,367.78 -353.19,1103.34 -376.74,2135.03 -23.55,1031.69 164.8,2359.51 371.85,3315.45 207.05,955.95 432.78,1540 695.42,1902.51 262.65,362.51 562.21,503.48 945.46,595.98 383.26,92.52 850.22,136.57 1198.23,44.06 348.02,-92.51 577.1,-321.59 753.31,-819.39 176.21,-497.79 299.56,-1264.3 361.23,-1647.56 61.68,-383.26 61.68,-383.26 14.66,-344.57 -47,38.69 -141.03,116.07 -343.67,371.57z"/>
      </g>
     </g>
    </g>
   </g>
  </g>
 </g>
</svg>
