<?xml version="1.0" encoding="UTF-8"?>
<!DOCTYPE svg PUBLIC "-//W3C//DTD SVG 1.0//EN" "http://www.w3.org/TR/2001/REC-SVG-20010904/DTD/svg10.dtd">
<!-- Creator: CorelDRAW -->
<svg xmlns="http://www.w3.org/2000/svg" xml:space="preserve" width="52.6879mm" height="52.6879mm" version="1.0" style="shape-rendering:geometricPrecision; text-rendering:geometricPrecision; image-rendering:optimizeQuality; fill-rule:evenodd; clip-rule:evenodd"
viewBox="0 0 6279.87 6279.87"
 xmlns:xlink="http://www.w3.org/1999/xlink"
 xmlns:xodm="http://www.corel.com/coreldraw/odm/2003">
 <defs>
  <style type="text/css">
   <![CDATA[
    .fil5 {fill:none}
    .fil3 {fill:white;fill-rule:nonzero}
    .fil4 {fill:#172B7D;fill-rule:nonzero;fill-opacity:0.200000}
    .fil1 {fill:white;fill-rule:nonzero}
    .fil2 {fill:url(#id1);fill-rule:nonzero}
    .fil0 {fill:url(#id2);fill-rule:nonzero}
   ]]>
  </style>
   <clipPath id="id0">
    <path d="M-0 0l6279.87 0 0 6279.87 -6279.87 0 0 -6279.87z"/>
   </clipPath>
  <linearGradient id="id1" gradientUnits="userSpaceOnUse" x1="2801.43" y1="-513.2" x2="3878.73" y2="10017.49">
   <stop offset="0" style="stop-opacity:1; stop-color:#AEC3FF"/>
   <stop offset="0.329412" style="stop-opacity:1; stop-color:#2B4ED9"/>
   <stop offset="0.658824" style="stop-opacity:1; stop-color:#172B7D"/>
   <stop offset="1" style="stop-opacity:1; stop-color:#030316"/>
  </linearGradient>
  <linearGradient id="id2" gradientUnits="userSpaceOnUse" xlink:href="#id1" x1="2778.76" y1="-390.45" x2="4686.96" y2="18262.35">
  </linearGradient>
 </defs>
 <g id="Camada_x0020_1">
  <metadata id="CorelCorpID_0Corel-Layer"/>
  <g>
  </g>
  <g style="clip-path:url(#id0)">
   <g id="_2548137928400">
    <g>
     <g>
      <path class="fil0" d="M5464.02 3862.74c-153.54,-87.68 -308.69,-164.84 -465.34,-232.23 36.53,-143.43 56.23,-295.28 56.23,-454.34 0,-140.74 -14.55,-277.93 -41.54,-410.31 158.68,-34.71 311.17,-72.87 455.4,-115.63 84.3,-24.98 130.81,-115.89 102.24,-199.04 -122.37,-356.09 -275.83,-682.87 -476.26,-965.34 -47.31,-66.67 -139.06,-84.33 -208.61,-41.36 -153.09,94.55 -297.47,195.72 -433.65,303.16 -201.73,-189.94 -445.97,-333.45 -719.8,-414.78 48.87,-158.15 91.43,-312.44 125.72,-461.68 19.68,-85.69 -36.62,-170.87 -123.06,-186.87 -370.25,-68.51 -730.25,-95.53 -1074.78,-59.87 -81.3,8.43 -141.78,79.64 -138.56,161.32 7.78,197.64 27.54,390.13 58.95,577.62 -230.39,80.38 -441,203.64 -622.4,360.18 -120.72,-141.59 -241.53,-274.17 -362.43,-394.76 -62.26,-62.09 -164.34,-59.45 -223.7,5.4 -254.22,277.77 -467.82,568.81 -620.04,879.92 -35.94,73.43 -7.56,162.44 63.42,202.98 177.84,101.55 357.83,189.13 539.86,263.43 -42.35,157.72 -65.26,323.16 -65.26,493.74 0,113.31 9.82,222.81 27.74,328.46 -177.43,37.62 -347.24,79.48 -507.11,126.87 -84.29,24.97 -130.8,115.88 -102.23,199.04 122.37,356.09 275.83,682.86 476.27,965.34 47.29,66.66 139.05,84.31 208.58,41.36 166.29,-102.72 322.52,-213.1 468.83,-331.03 196.03,176.42 434.19,309.06 701.83,387.64 -56.17,177.45 -104.67,350.2 -142.92,516.68 -19.69,85.7 36.6,170.88 123.06,186.88 370.25,68.51 730.25,95.53 1074.77,59.86 81.31,-8.41 141.79,-79.63 138.57,-161.31 -7.96,-202.1 -28.55,-398.76 -61.22,-590.24 242.04,-64.2 463.71,-170.58 654.65,-312.48 110.74,128.44 221.55,249.08 332.44,359.68 62.25,62.09 164.33,59.45 223.7,-5.4 254.22,-277.77 467.82,-568.81 620.04,-879.93 35.92,-73.42 7.57,-162.43 -63.42,-202.97z"/>
      <g>
       <path class="fil1" d="M967.17 2091.02c-21.06,38.11 -40.52,79.13 -40.42,122.67 0.12,43.54 25.32,89.86 67.4,101.03 48.33,12.81 95.4,-22.96 129.57,-59.46 85.48,-91.31 190.83,-241.92 185.95,-373.36 -4.8,-128.98 -150.17,-49.68 -199.2,3.48 -56.21,60.92 -103.3,133.34 -143.3,205.65z"/>
       <path class="fil1" d="M1325.05 1572.4c-22.3,29.77 -43.71,64.77 -38.44,101.59 3.71,25.89 21.53,49.3 45.48,59.76 23.96,10.46 53.24,7.62 74.74,-7.25 27.34,-18.89 39.63,-53.4 43.15,-86.45 4.28,-40.17 0.74,-104.83 -29.92,-135.46 -33.8,-33.78 -77.39,44.29 -95.02,67.81z"/>
      </g>
     </g>
     <g>
      <path class="fil2" d="M3199.55 1693.13c-806.89,0 -1467.41,660.53 -1467.41,1467.42 0,806.89 615.66,1377.7 1422.56,1377.7 806.89,0 1458.52,-569.37 1458.52,-1376.26 0,-806.89 -606.76,-1468.86 -1413.66,-1468.86z"/>
      <path class="fil3" d="M3182.43 2599.06c-293.04,0 -532.92,239.88 -532.92,532.93 0,293.04 223.6,500.34 516.64,500.34 293.04,0 529.68,-206.78 529.68,-499.82 0,-293.04 -220.36,-533.45 -513.4,-533.45z"/>
      <path class="fil1" d="M2742.3 1889.97c-155.38,47.49 -299.55,148.63 -371.61,294.24 -10.8,21.81 -20.05,44.97 -21.44,69.26 -1.39,24.29 6.09,50.07 24.28,66.23 26.13,23.21 65.64,21.05 100.01,14.82 87.62,-15.89 170.95,-49.19 253.61,-82.28 138.93,-55.63 277.84,-111.26 416.78,-166.88 34.27,-13.73 69.86,-28.34 94.36,-55.97 21.92,-24.73 32.85,-58.87 29.36,-91.72 -2.77,-26 -17.07,-66.54 -43.96,-76.71 -27.93,-10.55 -71.22,-6.39 -100.92,-8.14 -81.59,-4.79 -163.77,-3.68 -244.8,7.57 -45.89,6.38 -91.35,16.02 -135.67,29.57z"/>
     </g>
     <path class="fil4" d="M5571.02 2451.2c-122.37,-356.09 -275.83,-682.87 -476.26,-965.34 -47.31,-66.67 -139.06,-84.33 -208.61,-41.36 -153.09,94.55 -297.47,195.72 -433.65,303.16 -201.73,-189.94 -445.97,-333.45 -719.8,-414.78 48.87,-158.15 91.43,-312.44 125.72,-461.68 19.68,-85.69 -36.62,-170.87 -123.06,-186.87 -71.28,-13.19 -142.04,-24.31 -212.52,-34.28 -56.82,415.13 33.12,849.47 285.52,1189.41 203.76,274.46 497.06,485.6 640.63,795.81 172.96,373.7 83.62,839.23 -175.88,1158.97 -259.48,319.73 -666.61,499.6 -1076.9,534.38 -410.31,34.77 -823.34,-65.08 -1201.12,-228.89 -406.22,-176.16 -822.89,-432.22 -1249.87,-429.51 -39.5,40.56 -56.1,101.1 -36.39,158.46 122.37,356.09 275.83,682.86 476.27,965.34 47.29,66.66 139.05,84.31 208.58,41.36 166.29,-102.72 322.52,-213.1 468.83,-331.03 196.03,176.42 434.19,309.06 701.83,387.64 -56.17,177.45 -104.67,350.2 -142.92,516.68 -19.69,85.7 36.6,170.88 123.06,186.88 370.25,68.51 730.25,95.53 1074.77,59.86 81.31,-8.41 141.79,-79.63 138.57,-161.31 -7.96,-202.1 -28.55,-398.76 -61.22,-590.24 242.04,-64.2 463.71,-170.58 654.65,-312.48 110.74,128.44 221.55,249.08 332.44,359.68 62.25,62.09 164.33,59.45 223.7,-5.4 254.22,-277.77 467.82,-568.81 620.04,-879.93 35.92,-73.42 7.57,-162.43 -63.42,-202.97 -153.54,-87.68 -308.69,-164.84 -465.34,-232.23 36.53,-143.43 56.23,-295.28 56.23,-454.34 0,-140.74 -14.55,-277.93 -41.54,-410.31 158.68,-34.71 311.17,-72.87 455.4,-115.63 84.3,-24.98 130.81,-115.89 102.24,-199.04z"/>
    </g>
   </g>
  </g>
  <polygon class="fil5" points="-0,0 6279.87,0 6279.87,6279.87 -0,6279.87 "/>
 </g>
</svg>
