<?xml version="1.0" encoding="UTF-8"?>
<!DOCTYPE svg PUBLIC "-//W3C//DTD SVG 1.0//EN" "http://www.w3.org/TR/2001/REC-SVG-20010904/DTD/svg10.dtd">
<!-- Creator: CorelDRAW -->
<svg xmlns="http://www.w3.org/2000/svg" xml:space="preserve" width="52.6879mm" height="52.6879mm" version="1.0" style="shape-rendering:geometricPrecision; text-rendering:geometricPrecision; image-rendering:optimizeQuality; fill-rule:evenodd; clip-rule:evenodd"
viewBox="0 0 6279.87 6279.87"
 xmlns:xlink="http://www.w3.org/1999/xlink"
 xmlns:xodm="http://www.corel.com/coreldraw/odm/2003">
 <defs>
  <style type="text/css">
   <![CDATA[
    .str0 {stroke:black;stroke-width:238.38;stroke-linecap:round;stroke-linejoin:round;stroke-miterlimit:22.9256}
    .fil7 {fill:none}
    .fil5 {fill:none;fill-rule:nonzero}
    .fil0 {fill:black;fill-rule:nonzero}
    .fil6 {fill:white;fill-rule:nonzero}
    .fil1 {fill:#E37908;fill-rule:nonzero;fill-opacity:0.301961}
    .fil4 {fill:white;fill-rule:nonzero}
    .fil2 {fill:url(#id1);fill-rule:nonzero}
    .fil3 {fill:url(#id2);fill-rule:nonzero}
   ]]>
  </style>
   <clipPath id="id0">
    <path d="M-0 0l6279.87 0 0 6279.87 -6279.87 0 0 -6279.87z"/>
   </clipPath>
  <linearGradient id="id1" gradientUnits="userSpaceOnUse" x1="2526.1" y1="-5777.02" x2="3073.93" y2="6415.82">
   <stop offset="0" style="stop-opacity:1; stop-color:#FFCE70"/>
   <stop offset="0.501961" style="stop-opacity:1; stop-color:#E37908"/>
   <stop offset="1" style="stop-opacity:1; stop-color:#412200"/>
  </linearGradient>
  <linearGradient id="id2" gradientUnits="userSpaceOnUse" xlink:href="#id1" x1="2472.68" y1="-6259.24" x2="3013" y2="4288.91">
  </linearGradient>
 </defs>
 <g id="Camada_x0020_1">
  <metadata id="CorelCorpID_0Corel-Layer"/>
  <g>
  </g>
  <g style="clip-path:url(#id0)">
   <g id="_2548133828976">
    <g>
     <path class="fil0" d="M1036.46 5323.53c-347.14,-1595.83 -134.21,-4312.68 1830.9,-4346.98 1952.96,-34.1 2005.85,2472.46 1961.64,4280.79 -1216.43,125.82 -2483.87,140.81 -3792.54,66.19z"/>
     <path class="fil1" d="M2867.36 976.56c-46.36,0.8 -91.45,3.58 -135.89,7.32 -136.29,250.18 -56.39,321.94 181.32,467.05 220.89,134.86 417.12,306.26 578.66,508.67 184.3,230.95 322.58,499.19 398.05,785.16 164.84,624.61 27.62,1321.77 -361.63,1837.31 -190.11,251.81 -434.44,459.85 -615.59,718.15 -15.13,21.57 -29.55,43.89 -43.65,66.48 666.58,-7.95 1320.6,-43.18 1960.38,-109.36 44.21,-1808.33 -8.68,-4314.89 -1961.64,-4280.79z"/>
     <g>
      <path class="fil2" d="M2873.44 911.5c-2029.72,35.42 -2364.27,2706.81 -2053.84,4317.44 12.4,64.35 67.5,111.38 133.02,112.98 143.84,3.49 333.06,2.97 484.46,4.54 81.51,0.86 146.13,-68.15 139.57,-149.42 -123.5,-1530.7 117.72,-3550.61 1283.81,-3570.97 1172.53,-20.45 1339.91,1883.8 1347.91,3527.41 0.43,85.33 71.66,153.09 156.89,148.9 173.23,-8.49 396.91,-16.6 565.27,-27.49 77.41,-4.99 138.21,-68.38 139.55,-145.95 30.92,-1798.84 -198.44,-4252.34 -2196.62,-4217.46z"/>
      <path class="fil3" d="M824.97 3019.16c274.99,73.72 547.7,155.72 817.85,245.63 -7.21,41.61 -13.97,83.62 -20.3,125.95 -271.15,-90.48 -544.86,-173.06 -820.92,-247.24 7.26,-41.63 15.08,-83.08 23.37,-124.34zm-101.31 1347.18l0 0c1.6,42.24 3.49,84.33 5.92,126.06l818.06 -19.5c0,-42.03 0.35,-84.1 0.95,-126.23 -274.97,6.57 -549.95,13.11 -824.94,19.68zm4338.72 -52.82l0 0c-291.17,13.8 -582.36,27.59 -873.53,41.39 2.03,41.94 3.85,83.96 5.51,126 290.81,-13.79 581.61,-27.57 872.42,-41.36 -1.23,-41.9 -2.72,-83.92 -4.4,-126.03zm-134.48 -1255.38l0 0c-278.2,92.03 -557.69,180.2 -838.37,264.42 6.58,41.54 12.86,83.46 18.8,125.76 282,-84.42 562.85,-172.77 842.39,-265.03 -7.2,-41.95 -14.83,-83.66 -22.81,-125.15zm-523.54 -1377.37l0 0c-198.02,206.99 -402.34,407.86 -612.53,602.45 19.14,38.86 37.51,78.95 54.99,120.48 215.66,-198.28 425.17,-403.15 628.14,-614.44 -22.74,-37.03 -46.21,-73.28 -70.61,-108.49zm-1456.6 -52.23l0 0c-6.83,-238.89 -7.59,-477.94 -2.35,-716.9 -23.8,-0.31 -47.64,-0.56 -71.97,-0.13 -18.22,0.31 -36,1.31 -53.95,2.05 -4.96,238.07 -4.11,476.22 2.75,714.23 12.66,-0.7 25.3,-1.48 38.2,-1.7 29.8,-0.51 58.78,0.52 87.31,2.46zm-1513.43 -23.31l0 0c-26.23,32.36 -51.43,65.85 -76.06,99.93 212.34,165.46 421.74,334.6 629.19,506.12 21.5,-37.32 43.87,-73.24 67.2,-107.58 -204.61,-168.84 -411,-335.53 -620.34,-498.46z"/>
     </g>
     <g>
      <path class="fil4" d="M1493.84 1755.44c-16.73,22.9 -33.1,46.71 -41.51,73.8 -8.41,27.07 -7.89,58.27 7.74,81.93 18.41,27.89 54.41,40.05 87.8,38.3 33.37,-1.75 64.91,-15.2 95.27,-29.18 123.87,-57.02 243.46,-127.4 339.93,-223.79 96.47,-96.4 168.84,-220.93 185.38,-356.32 7.39,-60.52 -18.47,-113.56 -82.87,-85.45 -57.82,25.23 -113.29,61.14 -165.86,95.75 -106.01,69.75 -203.97,151.69 -291.32,243.72 -48.22,50.81 -93.22,104.67 -134.53,161.24z"/>
      <path class="fil4" d="M1220.16 2267.36c-12,44.58 -17.7,98.2 14.37,131.41 19.7,20.42 50.26,27.87 78.42,24.21 28.13,-3.65 54.12,-17.18 77.28,-33.59 93.12,-66.01 203.68,-254.17 78.18,-341.91 -145.36,-101.6 -219.98,114.89 -248.25,219.88z"/>
     </g>
     <g>
      <polygon class="fil5 str0" points="2914.46,4211.31 4411.4,4245.04 4398.6,4813.34 5560.82,3702.35 4449.81,2540.14 4437.01,3108.44 2940.07,3074.72 "/>
      <polygon id="_1" class="fil6" points="2914.46,4211.31 4411.4,4245.04 4398.6,4813.34 5560.82,3702.35 4449.81,2540.14 4437.01,3108.44 2940.07,3074.72 "/>
     </g>
    </g>
   </g>
  </g>
  <polygon class="fil7" points="-0,0 6279.87,0 6279.87,6279.87 -0,6279.87 "/>
 </g>
</svg>
