<?xml version="1.0" encoding="UTF-8"?>
<!DOCTYPE svg PUBLIC "-//W3C//DTD SVG 1.0//EN" "http://www.w3.org/TR/2001/REC-SVG-20010904/DTD/svg10.dtd">
<!-- Creator: CorelDRAW -->
<svg xmlns="http://www.w3.org/2000/svg" xml:space="preserve" width="148.337mm" height="150.449mm" version="1.0" style="shape-rendering:geometricPrecision; text-rendering:geometricPrecision; image-rendering:optimizeQuality; fill-rule:evenodd; clip-rule:evenodd"
viewBox="0 0 14825.82 15036.95"
 xmlns:xlink="http://www.w3.org/1999/xlink"
 xmlns:xodm="http://www.corel.com/coreldraw/odm/2003">
 <defs>
  <style type="text/css">
   <![CDATA[
    .fil0 {fill:#08569E}
    .fil1 {fill:#4DD620}
   ]]>
  </style>
 </defs>
 <g id="Camada_x0020_1">
  <metadata id="CorelCorpID_0Corel-Layer"/>
  <g id="_2757646973408">
   <path class="fil0" d="M7063.79 1485.74c-3.03,21.4 -1.64,63.8 0,146.35l0 19.56 0.38 0c0.43,23.03 0.85,48.8 1.19,77.78 20.05,1693.61 0.33,3504.15 0.33,5201.68 0,208 -22.13,5500.78 17.99,5556.16 31.87,44 698.52,268.72 702.8,-161.15 23.41,-2349.04 -1.99,-4836.31 -1.91,-7192.83l2.15 -4091.4c14.74,-76.36 360.67,-377.36 133.07,-753.71 -114.62,-189.52 -391.55,-372.27 -708.51,-246.91 -214.77,84.94 -414.58,349.37 -336.89,668.62 41.73,171.51 162.64,241.36 184.71,314.11 1.84,6.04 3.38,12.19 4.7,18.43l0 196.35c-1.28,25.53 -1.75,51 0,75.94l0 171.03z"/>
   <path class="fil0" d="M7895.23 12178.1c8.48,366.53 -57.96,516.03 -458.29,514.61 -509.3,-1.83 -488.28,-263.31 -482.83,-516.29 -282.77,-2.79 -978.54,231.28 -647.32,511.77 404.84,342.81 1800.02,321.27 2186.79,21.96 366.43,-283.57 -283.65,-518.62 -598.35,-532.05zm5.05 -1611.14c1405.23,114.92 1921.79,89.03 3336.23,474.68 758.03,206.67 2310.02,823.62 2008.11,1720.75 -237.29,705.11 -1524.87,1172.42 -2427.52,1385.78 -1090.72,257.81 -2261.91,368.41 -3428.06,367.15 -1195.18,-1.29 -2318.35,-123.09 -3437.92,-379.96 -1580.17,-362.55 -3504.89,-1424.25 -1668.49,-2554.39 382.21,-235.23 862.08,-409.94 1343.61,-548.71 1294.92,-373.18 2043.61,-358.84 3325.74,-466.3l-1.86 -513.59c-1105.41,-63.95 -3187.52,268.28 -4265.15,564.61 -987.26,271.49 -2939.16,999.61 -2657.45,2141.44 227.6,922.44 1921.12,1532.26 3039.65,1804.23 1367.02,332.41 2884.4,473.87 4345.84,474.3 1449.28,0.43 3015.62,-140.5 4364.66,-480.44 899.09,-226.55 2768.92,-807.02 3019.33,-1800.35 300.61,-1192.45 -1828.73,-1900.55 -2656.56,-2138.05 -1065.65,-305.72 -3137.45,-618.47 -4243.43,-565.43l3.29 514.28zm-4.95 530.45l3.75 518.23c549.61,52.77 982.22,97.96 1473.39,260.18 1787.09,590.23 474.37,1603.78 -1959.47,1601.89 -3129.44,-2.42 -4071.9,-1549.21 -470.74,-1863.46l11.16 -514.38c-487.76,-67.67 -1953.28,203.06 -2407.67,345.63 -553.07,173.51 -1682.04,596.54 -1424.32,1287.56 186.47,499.97 1127.12,838.88 1766.66,991.94 1555.95,372.4 3434.77,353.92 4991.69,11.94 1967.86,-432.25 2756.7,-1538.57 436.6,-2278.76 -494.99,-157.92 -1881.05,-416.44 -2421.05,-360.77z"/>
   <path class="fil1" d="M8010.29 1294.94l-1.69 3653.84c589.71,291.03 838.86,455.56 1682.49,403.05 1561.65,-97.2 3039.2,-1321.12 4683.41,-611.94 125.45,54.1 235.47,131.68 344.48,176.94 -287.96,-544.6 -1051.77,-1300.43 -1531.17,-1699.18 -99.16,-82.49 -192.67,-150.82 -302.18,-225.4 -92.79,-63.19 -263.08,-151.69 -312.3,-232.1 226.96,-264.41 680.31,-665.76 945.79,-869.23 168.71,-129.31 344.14,-248.69 550.39,-359.85 308.12,-166.07 572.76,-211.36 649.83,-257.11 -325.9,-299.16 -1107.46,-453.04 -1669.05,-404.72 -1472.53,126.7 -2851.1,1133.09 -4301.22,745.48 -136.54,-36.5 -260.36,-83.18 -386.88,-140.18 -127.39,-57.4 -234.74,-138.41 -351.89,-179.61z"/>
  </g>
 </g>
</svg>
