<?xml version="1.0" encoding="UTF-8"?>
<!DOCTYPE svg PUBLIC "-//W3C//DTD SVG 1.0//EN" "http://www.w3.org/TR/2001/REC-SVG-20010904/DTD/svg10.dtd">
<!-- Creator: CorelDRAW -->
<svg xmlns="http://www.w3.org/2000/svg" xml:space="preserve" width="160mm" height="150mm" version="1.0" style="shape-rendering:geometricPrecision; text-rendering:geometricPrecision; image-rendering:optimizeQuality; fill-rule:evenodd; clip-rule:evenodd"
viewBox="0 0 9887.44 9269.47"
 xmlns:xlink="http://www.w3.org/1999/xlink"
 xmlns:xodm="http://www.corel.com/coreldraw/odm/2003">
 <defs>
  <style type="text/css">
   <![CDATA[
    .fil3 {fill:none}
    .fil0 {fill:#46A302}
    .fil1 {fill:#58CC02}
    .fil2 {fill:#7EDB39}
    .fil4 {fill:white}
   ]]>
  </style>
    <clipPath id="id0">
     <path d="M4943.72 308.88c2525.02,0 4571.97,1700.74 4571.97,3798.72 0,2097.97 -2046.95,3798.72 -4571.97,3798.72 -2525.02,0 -4571.96,-1700.75 -4571.96,-3798.72 0,-2097.97 2046.94,-3798.72 4571.96,-3798.72z"/>
    </clipPath>
 </defs>
 <g id="Camada_x0020_1">
  <metadata id="CorelCorpID_0Corel-Layer"/>
  <g id="_2911374714400">
   <ellipse class="fil0" cx="4943.72" cy="4646.18" rx="4943.72" ry="4623.29"/>
   <ellipse class="fil1" cx="4943.72" cy="4107.59" rx="4943.72" ry="4107.59"/>
   <path class="fil1" d="M4943.72 308.88c2525.02,0 4571.97,1700.74 4571.97,3798.72 0,2097.97 -2046.95,3798.72 -4571.97,3798.72 -2525.02,0 -4571.96,-1700.75 -4571.96,-3798.72 0,-2097.97 2046.94,-3798.72 4571.96,-3798.72z"/>
   <g style="clip-path:url(#id0)">
    <g>
     <path id="_1" class="fil2" d="M10146.19 978.91l-1843.78 -1843.77 -8331.16 8331.16 1843.77 1843.77 8331.16 -8331.16zm-2338.45 -2338.45l-1843.78 -1843.78 -8331.16 8331.16 1843.77 1843.77 8331.16 -8331.16z"/>
    </g>
   </g>
   <path class="fil3" d="M4943.72 308.88c2525.02,0 4571.97,1700.74 4571.97,3798.72 0,2097.97 -2046.95,3798.72 -4571.97,3798.72 -2525.02,0 -4571.96,-1700.75 -4571.96,-3798.72 0,-2097.97 2046.94,-3798.72 4571.96,-3798.72z"/>
   <path class="fil4" d="M5382.17 3688.71c-80.47,-34.33 -356.46,-204.5 -420.88,-207.78 -74.59,-3.8 -330,174.92 -424.15,203.41l79.62 -464.43 -338.49 -338.53 469.04 -64.5 210.92 -421.24 215.45 422.67 469 81.15c-38.86,22.99 -292.41,253.35 -315.61,288.56 -52.12,79.14 34.39,391.8 55.09,500.69zm-873.64 1449.61c-167.77,3.28 -472.69,-19.98 -609.89,13.19 -25.73,109.69 -44.41,884.28 12.64,945.09 36.64,42.94 -13.77,12.97 54.12,33.2 22.86,6.82 1919.76,14.36 1974.01,-5.54 48.61,-17.82 10.46,5.37 39.1,-27.02 56.8,-62.67 37.89,-834.42 12.43,-945.9 -137.26,-32.1 -442.94,-9.55 -610.54,-13.05l0.96 -354.41 -115.1 -37.72 -0.49 -188.56c68.37,-55.33 155,-75.74 324.25,-221.37 150.46,-129.47 179.51,-234.02 275.48,-270.97 532.66,-205.09 905.26,-513.7 1127.34,-1063.17 61.36,-151.8 191.9,-741.4 173.7,-911.34l-785.11 4.02 3.79 -208.96 -2880.58 1.2 1.59 205.27 -783.49 2.28c-31.32,277.87 147.68,956.06 363.13,1266.34l180.09 215.74c155.41,156.9 180.61,192.35 380.62,318.77 277.74,175.56 362.44,119.44 452.85,225.27l199.84 215.63c157.4,132.91 271.36,177.78 322.78,221.29l0.82 188.56 -115.66 37.72 1.32 354.43zm1564.82 -1470.74c27.77,-104.17 133.73,-296.49 208.45,-584.05 58.8,-226.29 96.16,-464.64 99.62,-710.35l474.5 -0.91c-81.03,451.95 -172.06,774.64 -482.46,1068.23 -61.98,58.61 -213.02,189.31 -300.11,227.08zm-2465.98 -583.91c69.71,273.47 187.67,502.6 208.7,583.76 -163.85,-69.47 -427.4,-345.23 -528.09,-506.03 -136.26,-217.63 -201.94,-488.04 -254.3,-789.09l474.18 1.5c1.48,244.87 42.37,485.71 99.5,709.86z"/>
  </g>
 </g>
</svg>
