<?xml version="1.0" encoding="UTF-8"?>
<!DOCTYPE svg PUBLIC "-//W3C//DTD SVG 1.0//EN" "http://www.w3.org/TR/2001/REC-SVG-20010904/DTD/svg10.dtd">
<!-- Creator: CorelDRAW -->
<svg xmlns="http://www.w3.org/2000/svg" xml:space="preserve" width="160mm" height="150mm" version="1.0" style="shape-rendering:geometricPrecision; text-rendering:geometricPrecision; image-rendering:optimizeQuality; fill-rule:evenodd; clip-rule:evenodd"
viewBox="0 0 5021.17 4707.35"
 xmlns:xlink="http://www.w3.org/1999/xlink"
 xmlns:xodm="http://www.corel.com/coreldraw/odm/2003">
 <defs>
  <style type="text/css">
   <![CDATA[
    .fil0 {fill:#C8C8C9}
    .fil1 {fill:#E6E6E6}
   ]]>
  </style>
 </defs>
 <g id="Camada_x0020_1">
  <metadata id="CorelCorpID_0Corel-Layer"/>
  <g id="_2911370706912">
   <g>
    <ellipse class="fil0" cx="2510.59" cy="2359.49" rx="2510.59" ry="2347.86"/>
    <ellipse class="fil1" cx="2510.59" cy="2085.97" rx="2510.59" ry="2085.97"/>
    <ellipse class="fil1" cx="2510.59" cy="2085.97" rx="2321.8" ry="1929.12"/>
   </g>
   <path class="fil0" d="M2733.25 1873.25c-40.87,-17.43 -181.02,-103.85 -213.74,-105.52 -37.88,-1.93 -167.58,88.83 -215.4,103.3l40.44 -235.85 -171.9 -171.92 238.19 -32.75 107.11 -213.92 109.41 214.65 238.17 41.21c-19.74,11.67 -148.5,128.66 -160.28,146.54 -26.47,40.19 17.46,198.97 27.98,254.27zm-443.66 736.16c-85.2,1.67 -240.05,-10.15 -309.72,6.7 -13.07,55.71 -22.55,449.07 6.42,479.95 18.61,21.81 -7,6.59 27.48,16.86 11.61,3.46 974.92,7.29 1002.47,-2.81 24.69,-9.05 5.31,2.73 19.86,-13.72 28.84,-31.82 19.24,-423.75 6.31,-480.36 -69.71,-16.3 -224.94,-4.85 -310.05,-6.62l0.49 -179.98 -58.45 -19.16 -0.25 -95.76c34.72,-28.1 78.72,-38.47 164.66,-112.42 76.41,-65.75 91.16,-118.84 139.9,-137.61 270.5,-104.15 459.72,-260.87 572.5,-539.91 31.16,-77.09 97.45,-376.51 88.21,-462.81l-398.71 2.04 1.93 -106.12 -1462.86 0.61 0.81 104.24 -397.88 1.16c-15.9,141.11 74.99,485.52 184.41,643.09l91.46 109.56c78.92,79.68 91.72,97.68 193.29,161.88 141.05,89.15 184.06,60.66 229.97,114.4l101.48 109.51c79.93,67.49 137.81,90.28 163.92,112.38l0.41 95.76 -58.74 19.16 0.67 179.99zm794.67 -746.89c14.1,-52.9 67.91,-150.57 105.86,-296.6 29.86,-114.92 48.83,-235.96 50.59,-360.74l240.97 -0.46c-41.15,229.52 -87.38,393.39 -245.01,542.48 -31.47,29.77 -108.18,96.14 -152.41,115.32zm-1252.31 -296.53c35.4,138.88 95.3,255.24 105.98,296.45 -83.21,-35.28 -217.05,-175.32 -268.18,-256.98 -69.19,-110.52 -102.55,-247.85 -129.14,-400.72l240.81 0.76c0.75,124.35 21.52,246.66 50.53,360.49z"/>
  </g>
 </g>
</svg>
