<?xml version="1.0" encoding="UTF-8"?>
<!DOCTYPE svg PUBLIC "-//W3C//DTD SVG 1.0//EN" "http://www.w3.org/TR/2001/REC-SVG-20010904/DTD/svg10.dtd">
<!-- Creator: CorelDRAW -->
<svg xmlns="http://www.w3.org/2000/svg" xml:space="preserve" width="160mm" height="150mm" version="1.0" style="shape-rendering:geometricPrecision; text-rendering:geometricPrecision; image-rendering:optimizeQuality; fill-rule:evenodd; clip-rule:evenodd"
viewBox="0 0 24368.84 22845.79"
 xmlns:xlink="http://www.w3.org/1999/xlink"
 xmlns:xodm="http://www.corel.com/coreldraw/odm/2003">
 <defs>
  <style type="text/css">
   <![CDATA[
    .fil0 {fill:#46A302}
    .fil1 {fill:#58CC02}
    .fil2 {fill:white}
   ]]>
  </style>
 </defs>
 <g id="Camada_x0020_1">
  <metadata id="CorelCorpID_0Corel-Layer"/>
  <g id="_2911367063376">
   <g>
    <ellipse class="fil0" cx="12184.42" cy="11451.11" rx="12184.42" ry="11394.68"/>
    <ellipse class="fil1" cx="12184.42" cy="10123.68" rx="12184.42" ry="10123.68"/>
    <ellipse class="fil1" cx="12184.42" cy="10123.68" rx="11268.19" ry="9362.42"/>
   </g>
   <path class="fil2" d="M13265.04 9091.3c-198.33,-84.61 -878.54,-504.01 -1037.32,-512.1 -183.85,-9.37 -813.33,431.12 -1045.36,501.33l196.25 -1144.65 -834.25 -834.34 1156 -158.96 519.85 -1038.2 531.01 1041.72 1155.91 200.01c-95.78,56.66 -720.69,624.41 -777.85,711.19 -128.45,195.06 84.76,965.65 135.78,1234.01zm-2153.18 3572.75c-413.49,8.09 -1165.01,-49.26 -1503.15,32.52 -63.42,270.36 -109.46,2179.41 31.16,2329.3 90.3,105.84 -33.95,31.97 133.37,81.83 56.35,16.8 4731.48,35.38 4865.21,-13.66 119.8,-43.92 25.77,13.24 96.36,-66.59 139.98,-154.45 93.38,-2056.53 30.63,-2331.29 -338.3,-79.11 -1091.69,-23.55 -1504.76,-32.15l2.38 -873.49 -283.67 -92.97 -1.22 -464.73c168.51,-136.37 382.03,-186.68 799.15,-545.6 370.82,-319.09 442.42,-576.78 678.95,-667.84 1312.81,-505.47 2231.13,-1266.08 2778.47,-2620.32 151.22,-374.14 472.97,-1827.27 428.1,-2246.11l-1935.01 9.9 9.35 -515 -7099.56 2.95 3.91 505.91 -1931 5.62c-77.19,684.86 363.96,2356.33 894.98,3121.05l443.86 531.73c383.03,386.69 445.13,474.07 938.09,785.65 684.54,432.68 893.27,294.38 1116.11,555.2l492.52 531.45c387.92,327.56 668.8,438.17 795.54,545.41l2.01 464.73 -285.05 92.97 3.26 873.53zm3856.69 -3624.83c68.43,-256.74 329.59,-730.75 513.76,-1439.47 144.92,-557.71 237,-1145.17 245.52,-1750.75l1169.48 -2.24c-199.7,1113.9 -424.06,1909.21 -1189.09,2632.79 -152.75,144.46 -525.01,466.57 -739.66,559.66zm-6077.71 -1439.13c171.82,674 462.54,1238.71 514.37,1438.75 -403.82,-171.22 -1053.39,-850.85 -1301.54,-1247.18 -335.82,-536.37 -497.7,-1202.85 -626.75,-1944.8l1168.68 3.7c3.66,603.51 104.42,1197.09 245.24,1749.53z"/>
  </g>
 </g>
</svg>
