<?xml version="1.0" encoding="UTF-8"?>
<!DOCTYPE svg PUBLIC "-//W3C//DTD SVG 1.0//EN" "http://www.w3.org/TR/2001/REC-SVG-20010904/DTD/svg10.dtd">
<!-- Creator: CorelDRAW -->
<svg xmlns="http://www.w3.org/2000/svg" xml:space="preserve" width="52.6879mm" height="52.6879mm" version="1.0" style="shape-rendering:geometricPrecision; text-rendering:geometricPrecision; image-rendering:optimizeQuality; fill-rule:evenodd; clip-rule:evenodd"
viewBox="0 0 6279.87 6279.87"
 xmlns:xlink="http://www.w3.org/1999/xlink"
 xmlns:xodm="http://www.corel.com/coreldraw/odm/2003">
 <defs>
  <style type="text/css">
   <![CDATA[
    .fil8 {fill:none}
    .fil6 {fill:#C9330D;fill-rule:nonzero;fill-opacity:0.200000}
    .fil4 {fill:#E37908;fill-rule:nonzero;fill-opacity:0.301961}
    .fil7 {fill:white;fill-rule:nonzero}
    .fil3 {fill:url(#id1);fill-rule:nonzero}
    .fil0 {fill:url(#id2);fill-rule:nonzero}
    .fil1 {fill:url(#id3);fill-rule:nonzero}
    .fil5 {fill:url(#id4);fill-rule:nonzero}
    .fil2 {fill:url(#id5);fill-rule:nonzero}
   ]]>
  </style>
   <clipPath id="id0">
    <path d="M-0 0l6279.87 0 0 6279.87 -6279.87 0 0 -6279.87z"/>
   </clipPath>
  <linearGradient id="id1" gradientUnits="userSpaceOnUse" x1="1791.37" y1="1712.79" x2="1930.71" y2="5257.06">
   <stop offset="0" style="stop-opacity:1; stop-color:#FFCE70"/>
   <stop offset="0.501961" style="stop-opacity:1; stop-color:#E37908"/>
   <stop offset="1" style="stop-opacity:1; stop-color:#412200"/>
  </linearGradient>
  <linearGradient id="id2" gradientUnits="userSpaceOnUse" xlink:href="#id1" x1="2941.73" y1="771.57" x2="3802.59" y2="14413.01">
  </linearGradient>
  <linearGradient id="id3" gradientUnits="userSpaceOnUse" xlink:href="#id1" x1="2567.24" y1="559.47" x2="3260.93" y2="6310.89">
  </linearGradient>
  <linearGradient id="id4" gradientUnits="userSpaceOnUse" x1="2749.3" y1="-216.14" x2="3981.36" y2="9998.96">
   <stop offset="0" style="stop-opacity:1; stop-color:#FF9F70"/>
   <stop offset="0.501961" style="stop-opacity:1; stop-color:#C9330D"/>
   <stop offset="1" style="stop-opacity:1; stop-color:#410D00"/>
  </linearGradient>
  <linearGradient id="id5" gradientUnits="userSpaceOnUse" xlink:href="#id1" x1="4174.56" y1="1690.8" x2="4313.9" y2="5235.12">
  </linearGradient>
 </defs>
 <g id="Camada_x0020_1">
  <metadata id="CorelCorpID_0Corel-Layer"/>
  <g>
  </g>
  <g style="clip-path:url(#id0)">
   <g id="_2548141930896">
    <g>
     <g>
      <path class="fil0" d="M4506.18 5527.87c-1003.76,64.05 -1938.86,84.53 -2761.27,33.48 -191.82,-11.91 -347.36,-135.77 -370.06,-297.22 -103.7,-737.62 -165.07,-1517.36 -107.04,-2330.47 12.23,-171.4 176.22,-306.89 378.89,-317.64 936.12,-49.63 1965.14,-46.73 2904.41,-9 202.9,8.15 367.96,142.11 381.86,313.46 62.42,768.79 27.15,1532.64 -55.35,2298.36 -17.83,165.59 -175.34,296.52 -371.43,309.04z"/>
      <g>
       <path class="fil1" d="M3107.11 3869.18c-757.4,6.97 -666.97,1156.29 -577.25,1718.92 352.77,5.26 721.25,-1.29 1102.58,-17.46 106.94,-567.06 228.77,-1708.42 -525.33,-1701.46z"/>
       <g>
        <path class="fil2" d="M4092.77 4594.14c-46.84,-5.91 -83.34,-43.23 -88.46,-90.16 -22.8,-208.61 -53.44,-768.16 270.84,-786.92 322.72,-18.68 324.35,555.25 313.21,775.06 -2.51,49.45 -40.43,89.73 -89.57,95.88 -143.03,17.89 -279.4,22.07 -406.01,6.14z"/>
        <path class="fil3" d="M1709.56 4616.09c-46.84,-5.9 -83.33,-43.23 -88.45,-90.16 -22.81,-208.59 -53.44,-768.14 270.84,-786.92 322.71,-18.67 324.34,555.25 313.2,775.06 -2.51,49.48 -40.42,89.73 -89.57,95.89 -143.03,17.89 -279.39,22.07 -406.01,6.13z"/>
       </g>
      </g>
      <path class="fil4" d="M4506.18 5527.87c196.09,-12.51 353.6,-143.45 371.43,-309.04 82.5,-765.72 117.77,-1529.58 55.36,-2298.36 -13.91,-171.35 -178.98,-305.3 -381.87,-313.46 -112.18,-4.51 -225.79,-8.44 -340.22,-11.92 5.47,88.38 34.4,176.35 90.42,257.2 207.41,299.37 231.67,745.8 149.15,1091.31 -91.07,381.35 -331.48,724.94 -658.52,941.17 -383.18,253.36 -858.56,325.85 -1317.89,332.36 -369.67,5.23 -739.67,-27.37 -1108.95,-24.64 3.25,23.89 6.41,47.83 9.76,71.62 22.71,161.45 178.24,285.32 370.06,297.22 822.41,51.05 1757.51,30.57 2761.27,-33.48z"/>
     </g>
     <g>
      <path class="fil5" d="M877.17 2795.99c540.43,-773.55 1180.49,-1447.24 1925.54,-2015.66 159.44,-121.65 397.75,-121.04 553.66,3.4 853.11,680.94 1585.51,1355.75 2046.2,2016.74 151.28,217.06 8.63,500.79 -277.57,547.49 -1108.88,180.91 -2474.38,132.71 -3937.64,-2.75 -302.16,-27.99 -468.82,-322.15 -310.19,-549.22z"/>
      <path class="fil6" d="M3356.36 783.73c-78.05,-62.29 -176.71,-93.53 -275.81,-93.97 79.52,74.66 161.63,147.29 235.94,225.78 129.96,137.27 253.39,280.72 369.73,429.7 128.13,164.1 247.65,334.94 357.83,511.6 181.53,291.03 337.92,667.56 163.1,962.67 -89.88,151.73 -253.93,247.82 -424.33,293.22 -170.42,45.39 -349.07,46.01 -525.42,46.33 -768.81,1.39 -1537.59,2.8 -2306.38,4.18 -26.39,0.05 -52.9,0.21 -79.4,0.61 62.49,96.04 173.85,168.21 315.75,181.35 1463.26,135.46 2828.76,183.66 3937.64,2.75 286.2,-46.7 428.85,-330.43 277.57,-547.49 -460.69,-660.99 -1193.09,-1335.8 -2046.2,-2016.74z"/>
      <g>
       <path class="fil7" d="M1755.11 2014.19c-21.49,28.88 -42.94,58.81 -53.28,93.3 -10.32,34.51 -7.7,74.92 15.48,102.47 25.44,30.25 68.3,38.21 107.69,41.31 251.9,19.87 505.9,-83.19 690.74,-255.48 184.83,-172.28 303.16,-408.82 356.09,-655.89 15.26,-71.11 40.46,-258.48 -72.53,-268.26 -83.49,-7.21 -186.4,104.02 -247.66,149.25 -192.32,142.04 -371.28,302.15 -533.83,477.46 -93.15,100.48 -180.91,205.94 -262.71,315.84z"/>
       <path class="fil7" d="M1386.14 2538.27c-10.91,16.64 -20.91,34.33 -24.99,53.8 -4.09,19.48 -1.53,41.16 10.75,56.82 19.43,24.74 55.69,27.46 87,24.28 74.77,-7.58 147.16,-37.23 205.77,-84.27 26.51,-21.3 51.56,-48.65 55.55,-82.43 7.6,-64.22 -59.59,-114.8 -115.6,-127.97 -54.99,-12.96 -107.62,37.41 -144.42,71.82 -28.05,26.23 -53.02,55.79 -74.05,87.95z"/>
      </g>
     </g>
    </g>
   </g>
  </g>
  <polygon class="fil8" points="-0,0 6279.87,0 6279.87,6279.87 -0,6279.87 "/>
 </g>
</svg>
