<?xml version="1.0" encoding="UTF-8"?>
<!DOCTYPE svg PUBLIC "-//W3C//DTD SVG 1.0//EN" "http://www.w3.org/TR/2001/REC-SVG-20010904/DTD/svg10.dtd">
<!-- Creator: CorelDRAW -->
<svg xmlns="http://www.w3.org/2000/svg" xml:space="preserve" width="72.4742mm" height="64.7186mm" version="1.0" style="shape-rendering:geometricPrecision; text-rendering:geometricPrecision; image-rendering:optimizeQuality; fill-rule:evenodd; clip-rule:evenodd"
viewBox="0 0 902.98 806.35"
 xmlns:xlink="http://www.w3.org/1999/xlink"
 xmlns:xodm="http://www.corel.com/coreldraw/odm/2003">
 <defs>
  <style type="text/css">
   <![CDATA[
    .fil1 {fill:#2884DB}
    .fil0 {fill:white;fill-rule:nonzero}
   ]]>
  </style>
 </defs>
 <g id="Camada_x0020_1">
  <metadata id="CorelCorpID_0Corel-Layer"/>
  <g id="_3123009594176">
   <path class="fil0" d="M337.47 174.66l7.28 0c2.08,-7.4 6.04,-14.03 11.33,-19.31 8,-8 19.05,-12.96 31.22,-12.96l23.83 0 0 -1.98c-8.61,-5.42 -16.07,-12.53 -21.9,-20.87 -8.68,-12.4 -13.77,-27.41 -13.77,-43.49 0,-20.99 8.51,-40 22.27,-53.76 13.76,-13.76 32.77,-22.27 53.76,-22.27 20.99,0 40,8.51 53.77,22.27 13.76,13.76 22.27,32.77 22.27,53.76 0,16.09 -5.09,31.09 -13.77,43.49 -5.83,8.33 -13.29,15.44 -21.9,20.87l0 1.98 23.83 0c12.11,0 23.14,4.96 31.13,12.96l0.04 0.04 0.04 -0.04c5.29,5.29 9.25,11.91 11.33,19.31l7.28 0c61.61,0 118.77,20.32 165.12,54.61 43.14,31.91 76.84,75.97 95.96,127.03l9.58 0c18.39,0 35.1,7.51 47.2,19.61 12.1,12.1 19.61,28.81 19.61,47.2l0 133.94c0,18.4 -7.51,35.1 -19.61,47.2 -12.1,12.1 -28.81,19.61 -47.2,19.61l-9.29 0c-19.01,51.28 -52.7,95.56 -95.89,127.62 -46.4,34.45 -103.7,54.88 -165.48,54.88l-228.04 0c-61.78,0 -119.08,-20.43 -165.48,-54.88 -43.19,-32.06 -76.88,-76.34 -95.89,-127.62l-9.29 0c-18.4,0 -35.1,-7.51 -47.2,-19.61 -12.1,-12.1 -19.61,-28.81 -19.61,-47.2l0 -133.94c0,-18.39 7.51,-35.1 19.61,-47.2 12.1,-12.1 28.81,-19.61 47.2,-19.61l9.58 0c19.12,-51.06 52.82,-95.12 95.96,-127.03 46.35,-34.28 103.51,-54.61 165.12,-54.61z"/>
   <path class="fil1" d="M337.47 196.46l27.45 0 0 -9.9c0,-12.31 10.07,-22.38 22.37,-22.38l45.64 0 0 -37.17c-20.81,-7.58 -35.67,-27.54 -35.67,-50.98 0,-29.95 24.28,-54.23 54.23,-54.23 29.95,0 54.23,24.28 54.23,54.23 0,23.43 -14.86,43.39 -35.67,50.98l0 37.17 45.64 0c12.31,0 22.38,10.07 22.38,22.38l0 9.9 27.45 0c115.13,0 213.2,76.76 245.56,181.64l25.1 0c24.75,0 45,20.25 45,45l0 133.94c0,24.75 -20.25,45.01 -45,45.01l-24.84 0c-32.09,105.31 -130.37,182.5 -245.82,182.5l-228.04 0c-115.45,0 -213.73,-77.19 -245.82,-182.5l-24.84 0c-24.75,0 -45,-20.25 -45,-45.01l0 -133.94c0,-24.75 20.25,-45 45,-45l25.1 0c32.36,-104.87 130.43,-181.64 245.56,-181.64zm5.07 83.49l217.91 0c87.26,0 158.66,71.4 158.66,158.66l0 54.97c0,29.13 -7.96,56.49 -21.81,80.02l22.74 83.98 -82.21 -25.63c-22.93,12.91 -49.33,20.29 -77.37,20.29l-217.91 0c-87.26,0 -158.66,-71.4 -158.66,-158.66l0 -54.97c0,-87.26 71.4,-158.66 158.66,-158.66zm250.59 128.41l0 0c24.39,0 44.34,19.95 44.34,44.34l0 56.02c0,24.39 -19.95,44.34 -44.34,44.34l0 0c-24.39,0 -44.34,-19.95 -44.34,-44.34l0 -56.02c0,-24.39 19.95,-44.34 44.34,-44.34zm-283.27 0l0 0c24.39,0 44.34,19.95 44.34,44.34l0 56.02c0,24.39 -19.95,44.34 -44.34,44.34l-0 0c-24.39,0 -44.34,-19.95 -44.34,-44.34l0 -56.02c0,-24.39 19.95,-44.34 44.34,-44.34zm33.81 -177.21l215.65 0c126.4,0 229.81,103.42 229.81,229.81l0 55.82c0,126.4 -103.42,229.81 -229.81,229.81l-215.65 0c-126.4,0 -229.81,-103.42 -229.81,-229.81l0 -55.82c0,-126.4 103.42,-229.81 229.81,-229.81z"/>
  </g>
 </g>
</svg>
