<?xml version="1.0" encoding="UTF-8"?>
<!DOCTYPE svg PUBLIC "-//W3C//DTD SVG 1.0//EN" "http://www.w3.org/TR/2001/REC-SVG-20010904/DTD/svg10.dtd">
<!-- Creator: CorelDRAW -->
<svg xmlns="http://www.w3.org/2000/svg" xml:space="preserve" width="294.575mm" height="263.139mm" version="1.0" style="shape-rendering:geometricPrecision; text-rendering:geometricPrecision; image-rendering:optimizeQuality; fill-rule:evenodd; clip-rule:evenodd"
viewBox="0 0 29449.68 26306.9"
 xmlns:xlink="http://www.w3.org/1999/xlink"
 xmlns:xodm="http://www.corel.com/coreldraw/odm/2003">
 <defs>
  <style type="text/css">
   <![CDATA[
    .fil5 {fill:none}
    .fil1 {fill:#2884DB}
    .fil7 {fill:#A6D7FF}
    .fil4 {fill:#A7D7FF}
    .fil2 {fill:#ABD5FF}
    .fil3 {fill:white}
    .fil6 {fill:white}
    .fil0 {fill:white;fill-rule:nonzero}
   ]]>
  </style>
     <clipPath id="id0">
      <path d="M11218.05 7558.39l7013.58 0c4110.91,0 7474.39,3363.45 7474.39,7474.38l0 1815.51c0,4110.91 -3363.47,7474.38 -7474.39,7474.38l-7013.58 0c-4110.91,0 -7474.39,-3363.46 -7474.39,-7474.38l0 -1815.51c0,-4110.92 3363.47,-7474.38 7474.39,-7474.38z"/>
     </clipPath>
 </defs>
 <g id="Camada_x0020_1">
  <metadata id="CorelCorpID_0Corel-Layer"/>
  <g id="_1890782881424">
   <path class="fil0" d="M11016.5 5680.43l206.21 0c71.51,-235.53 200.37,-446.44 370.12,-616.21 267.45,-267.43 637,-433.43 1044.09,-433.43l734.51 0 0 -1.71c-276.68,-177.67 -516.39,-408.29 -704.88,-677.63 -287,-410.08 -455.4,-906.03 -455.4,-1437.78 0,-694.05 281.38,-1322.47 736.3,-1777.38 454.91,-454.92 1083.32,-736.3 1777.38,-736.3 694.04,0 1322.46,281.37 1777.39,736.3 454.92,454.91 736.3,1083.32 736.3,1777.38 0,531.75 -168.4,1027.71 -455.4,1437.79 -188.49,269.33 -428.21,499.95 -704.88,677.62l0 1.71 734.51 0c407.09,0 776.64,166.01 1044.09,433.43 169.75,169.76 298.61,380.68 370.12,616.21l206.19 0c2012.59,0 3880.03,663.98 5394.47,1784.16 1401.82,1036.87 2498.65,2466.59 3124.95,4123.33l283.56 0c609.49,0 1163.06,248.8 1563.89,649.64 400.83,400.83 649.64,954.41 649.64,1563.89l0 4356.29c0,609.49 -248.8,1163.06 -649.64,1563.89 -400.83,400.83 -954.41,649.64 -1563.89,649.64l-274.11 0c-622.79,1664.18 -1719.27,3100.76 -3122.67,4142.66 -1515.99,1125.48 -3387.87,1792.96 -5406.21,1792.96l-7416.67 0c-2018.34,0 -3890.22,-667.48 -5406.21,-1792.96 -1403.4,-1041.9 -2499.87,-2478.49 -3122.67,-4142.66l-274.1 0c-609.49,0 -1163.06,-248.8 -1563.89,-649.64 -400.83,-400.83 -649.64,-954.41 -649.64,-1563.89l0 -4356.29c0,-609.49 248.8,-1163.06 649.64,-1563.89 400.83,-400.83 954.41,-649.64 1563.89,-649.64l283.55 0c626.29,-1656.74 1723.13,-3086.46 3124.95,-4123.33 1514.44,-1120.18 3381.88,-1784.16 5394.47,-1784.16z"/>
   <g>
    <path class="fil1" d="M11016.5 6430.23l892.7 0 0 -321.91c0,-400.25 327.46,-727.73 727.73,-727.73l1484.31 0 0 -1209.05c-676.89,-246.51 -1160.28,-895.72 -1160.28,-1657.87 0,-974.16 789.72,-1763.88 1763.88,-1763.88 974.17,0 1763.89,789.72 1763.89,1763.88 0,762.15 -483.38,1411.35 -1160.28,1657.87l0 1209.05 1484.31 0c400.26,0 727.73,327.47 727.73,727.73l0 321.91 892.68 0c3744.54,0 6933.98,2496.68 7986.63,5907.49l816.35 0c805.06,0 1463.73,658.65 1463.73,1463.73l0 4356.29c0,805.08 -658.67,1463.73 -1463.73,1463.73l-807.93 0c-1043.78,3425.17 -4240.24,5935.63 -7995.05,5935.63l-7416.67 0c-3754.81,0 -6951.27,-2510.46 -7995.05,-5935.63l-807.92 0c-805.06,0 -1463.73,-658.65 -1463.73,-1463.73l0 -4356.29c0,-805.08 658.67,-1463.73 1463.73,-1463.73l816.34 0c1052.65,-3410.81 4242.09,-5907.49 7986.63,-5907.49z"/>
    <ellipse class="fil2" cx="14738.77" cy="1730.75" rx="527.13" ry="545.03"/>
    <path class="fil3" d="M11218.05 7558.39l7013.58 0c4110.91,0 7474.39,3363.45 7474.39,7474.38l0 1815.51c0,4110.91 -3363.47,7474.38 -7474.39,7474.38l-7013.58 0c-4110.91,0 -7474.39,-3363.46 -7474.39,-7474.38l0 -1815.51c0,-4110.92 3363.47,-7474.38 7474.39,-7474.38z"/>
    <g style="clip-path:url(#id0)">
     <g>
      <path id="_1" class="fil4" d="M25702.04 17080.04c-123.61,4004.76 -3437.06,7242.61 -7470.42,7242.61l-7013.58 0c-4033.35,0 -7346.81,-3237.85 -7470.42,-7242.61 441.93,3697.12 3610.12,6588.02 7421.21,6588.02l7111.99 0c3811.09,0 6979.28,-2890.9 7421.21,-6588.02z"/>
     </g>
    </g>
    <path class="fil5" d="M11218.05 7558.39l7013.58 0c4110.91,0 7474.39,3363.45 7474.39,7474.38l0 1815.51c0,4110.91 -3363.47,7474.38 -7474.39,7474.38l-7013.58 0c-4110.91,0 -7474.39,-3363.46 -7474.39,-7474.38l0 -1815.51c0,-4110.92 3363.47,-7474.38 7474.39,-7474.38z"/>
    <path class="fil1" d="M11181.28 9145.63l7087.12 0c2838.11,0 5160.2,2322.09 5160.2,5160.2l0 1787.76c0,947.49 -259.04,1837.34 -709.49,2602.53l739.48 2731.34 -2673.69 -833.66c-745.61,419.79 -1604.31,659.99 -2516.51,659.99l-7087.12 0c-2838.11,0 -5160.2,-2322.09 -5160.2,-5160.2l0 -1787.76c0,-2838.11 2322.09,-5160.2 5160.2,-5160.2z"/>
    <g>
     <g>
      <rect class="fil6" x="8676.12" y="13322.07" width="2884.43" height="4706.51" rx="1442.22" ry="1657.98"/>
      <path class="fil7" d="M10118.34 13322.07c793.22,0 1442.22,649 1442.22,1442.22l0 325c0,-793.22 -649,-1442.22 -1442.22,-1442.22 -793.22,0 -1442.22,649 -1442.22,1442.22l0 -325c0,-793.22 649,-1442.22 1442.22,-1442.22z"/>
     </g>
     <g>
      <rect class="fil6" x="17889.14" y="13322.07" width="2884.43" height="4706.51" rx="1442.22" ry="1657.98"/>
      <path class="fil7" d="M19331.35 13322.07c793.22,0 1442.22,649 1442.22,1442.22l0 325c0,-793.22 -649,-1442.22 -1442.22,-1442.22 -793.22,0 -1442.22,649 -1442.22,1442.22l0 -325c0,-793.22 649,-1442.22 1442.22,-1442.22z"/>
     </g>
    </g>
   </g>
  </g>
 </g>
</svg>
