<?xml version="1.0" encoding="UTF-8"?>
<!DOCTYPE svg PUBLIC "-//W3C//DTD SVG 1.0//EN" "http://www.w3.org/TR/2001/REC-SVG-20010904/DTD/svg10.dtd">
<!-- Creator: CorelDRAW -->
<svg xmlns="http://www.w3.org/2000/svg" xml:space="preserve" width="160mm" height="150mm" version="1.0" style="shape-rendering:geometricPrecision; text-rendering:geometricPrecision; image-rendering:optimizeQuality; fill-rule:evenodd; clip-rule:evenodd"
viewBox="0 0 4521.98 4239.36"
 xmlns:xlink="http://www.w3.org/1999/xlink"
 xmlns:xodm="http://www.corel.com/coreldraw/odm/2003">
 <defs>
  <style type="text/css">
   <![CDATA[
    .fil0 {fill:#46A302}
    .fil1 {fill:#58CC02}
    .fil2 {fill:white;fill-rule:nonzero}
   ]]>
  </style>
 </defs>
 <g id="Camada_x0020_1">
  <metadata id="CorelCorpID_0Corel-Layer"/>
  <g id="_2911364438480">
   <g>
    <ellipse class="fil0" cx="2260.99" cy="2124.91" rx="2260.99" ry="2114.44"/>
    <ellipse class="fil1" cx="2260.99" cy="1878.59" rx="2260.99" ry="1878.59"/>
    <ellipse class="fil1" cx="2260.99" cy="1878.59" rx="2090.97" ry="1737.33"/>
   </g>
   <path class="fil2" d="M2313.23 734.77l253.27 623.97 671.67 48.05c31.09,2.19 54.52,29.18 52.33,60.28 -1.23,17.49 -10.31,32.55 -23.55,42l-511.7 430.77 161.94 653.97c7.44,30.24 -11.05,60.79 -41.29,68.23 -15.36,3.78 -30.8,0.86 -43.26,-6.88l-0.02 0.04 -571.72 -355.98 -571.73 355.98c-26.46,16.46 -61.26,8.35 -77.72,-18.11 -8.77,-14.1 -10.56,-30.58 -6.32,-45.38l161.42 -651.87 -515.16 -433.69c-23.78,-20 -26.84,-55.49 -6.85,-79.27 10.2,-12.13 24.44,-18.87 39.1,-19.91l-0.01 -0.19 671.66 -48.05 253.28 -623.98c11.71,-28.9 44.63,-42.84 73.53,-31.13 14.74,5.97 25.59,17.47 31.13,31.13z"/>
  </g>
 </g>
</svg>
