<?xml version="1.0" encoding="UTF-8"?>
<!DOCTYPE svg PUBLIC "-//W3C//DTD SVG 1.0//EN" "http://www.w3.org/TR/2001/REC-SVG-20010904/DTD/svg10.dtd">
<!-- Creator: CorelDRAW -->
<svg xmlns="http://www.w3.org/2000/svg" xml:space="preserve" width="160mm" height="150mm" version="1.0" style="shape-rendering:geometricPrecision; text-rendering:geometricPrecision; image-rendering:optimizeQuality; fill-rule:evenodd; clip-rule:evenodd"
viewBox="0 0 13707.05 12850.36"
 xmlns:xlink="http://www.w3.org/1999/xlink"
 xmlns:xodm="http://www.corel.com/coreldraw/odm/2003">
 <defs>
  <style type="text/css">
   <![CDATA[
    .fil3 {fill:none}
    .fil0 {fill:#46A302}
    .fil1 {fill:#58CC02}
    .fil2 {fill:#7EDB39}
    .fil4 {fill:white;fill-rule:nonzero}
   ]]>
  </style>
    <clipPath id="id0">
     <path d="M6853.53 428.2c3500.46,0 6338.17,2357.76 6338.17,5266.2 0,2908.43 -2837.7,5266.2 -6338.17,5266.2 -3500.46,0 -6338.16,-2357.77 -6338.16,-5266.2 0,-2908.44 2837.69,-5266.2 6338.16,-5266.2z"/>
    </clipPath>
 </defs>
 <g id="Camada_x0020_1">
  <metadata id="CorelCorpID_0Corel-Layer"/>
  <g id="_2911363430944">
   <ellipse class="fil0" cx="6853.53" cy="6441.05" rx="6853.52" ry="6409.31"/>
   <ellipse class="fil1" cx="6853.53" cy="5694.4" rx="6853.52" ry="5694.4"/>
   <path class="fil1" d="M6853.53 428.2c3500.46,0 6338.17,2357.76 6338.17,5266.2 0,2908.43 -2837.7,5266.2 -6338.17,5266.2 -3500.46,0 -6338.16,-2357.77 -6338.16,-5266.2 0,-2908.44 2837.69,-5266.2 6338.16,-5266.2z"/>
   <g style="clip-path:url(#id0)">
    <g>
     <path id="_1" class="fil2" d="M14065.76 1357.07l-2556.05 -2556.04 -11549.56 11549.56 2556.04 2556.04 11549.57 -11549.56zm-3241.81 -3241.81l-2556.05 -2556.05 -11549.56 11549.57 2556.04 2556.04 11549.57 -11549.56z"/>
    </g>
   </g>
   <path class="fil3" d="M6853.53 428.2c3500.46,0 6338.17,2357.76 6338.17,5266.2 0,2908.43 -2837.7,5266.2 -6338.17,5266.2 -3500.46,0 -6338.16,-2357.77 -6338.16,-5266.2 0,-2908.44 2837.69,-5266.2 6338.16,-5266.2z"/>
   <path class="fil4" d="M7011.86 2227.25l767.72 1891.39 2035.96 145.66c94.25,6.65 165.27,88.46 158.62,182.71 -3.74,53.01 -31.25,98.67 -71.39,127.3l-1551.06 1305.75 490.87 1982.33c22.55,91.67 -33.49,184.27 -125.15,206.81 -46.57,11.45 -93.37,2.62 -131.12,-20.86l-0.07 0.12 -1732.99 -1079.04 -1733.03 1079.04c-80.21,49.89 -185.7,25.32 -235.6,-54.89 -26.59,-42.75 -32.02,-92.69 -19.16,-137.55l489.29 -1975.95 -1561.54 -1314.59c-72.08,-60.62 -81.37,-168.2 -20.75,-240.28 30.93,-36.78 74.09,-57.19 118.51,-60.34l-0.04 -0.57 2035.94 -145.65 767.73 -1891.41c35.48,-87.61 135.27,-129.86 222.88,-94.37 44.69,18.1 77.58,52.95 94.37,94.37z"/>
  </g>
 </g>
</svg>
