<?xml version="1.0" encoding="UTF-8"?>
<!DOCTYPE svg PUBLIC "-//W3C//DTD SVG 1.0//EN" "http://www.w3.org/TR/2001/REC-SVG-20010904/DTD/svg10.dtd">
<!-- Creator: CorelDRAW -->
<svg xmlns="http://www.w3.org/2000/svg" xml:space="preserve" width="160mm" height="150mm" version="1.0" style="shape-rendering:geometricPrecision; text-rendering:geometricPrecision; image-rendering:optimizeQuality; fill-rule:evenodd; clip-rule:evenodd"
viewBox="0 0 13030.59 12216.18"
 xmlns:xlink="http://www.w3.org/1999/xlink"
 xmlns:xodm="http://www.corel.com/coreldraw/odm/2003">
 <defs>
  <style type="text/css">
   <![CDATA[
    .fil0 {fill:#C8C8C9}
    .fil1 {fill:#E6E6E6}
    .fil2 {fill:#C8C8C9;fill-rule:nonzero}
   ]]>
  </style>
 </defs>
 <g id="Camada_x0020_1">
  <metadata id="CorelCorpID_0Corel-Layer"/>
  <g id="_2911374724912">
   <g>
    <ellipse class="fil0" cx="6515.3" cy="6123.17" rx="6515.29" ry="6093"/>
    <ellipse class="fil1" cx="6515.3" cy="5413.37" rx="6515.29" ry="5413.37"/>
    <ellipse class="fil1" cx="6515.3" cy="5413.37" rx="6025.37" ry="5006.3"/>
   </g>
   <path class="fil2" d="M6665.81 2117.33l729.84 1798.05 1935.48 138.47c89.6,6.32 157.12,84.1 150.8,173.7 -3.55,50.4 -29.71,93.8 -67.86,121.01l-1474.52 1241.31 466.64 1884.5c21.44,87.14 -31.84,175.17 -118.98,196.61 -44.27,10.89 -88.76,2.49 -124.65,-19.83l-0.07 0.11 -1647.47 -1025.78 -1647.5 1025.78c-76.25,47.43 -176.54,24.07 -223.97,-52.18 -25.28,-40.64 -30.44,-88.11 -18.22,-130.76l465.14 -1878.43 -1484.48 -1249.71c-68.52,-57.63 -77.35,-159.9 -19.73,-228.43 29.4,-34.96 70.43,-54.37 112.67,-57.36l-0.04 -0.54 1935.47 -138.46 729.84 -1798.07c33.73,-83.28 128.6,-123.45 211.88,-89.72 42.49,17.21 73.75,50.34 89.72,89.72z"/>
  </g>
 </g>
</svg>
