<?xml version="1.0" encoding="UTF-8"?>
<!DOCTYPE svg PUBLIC "-//W3C//DTD SVG 1.0//EN" "http://www.w3.org/TR/2001/REC-SVG-20010904/DTD/svg10.dtd">
<!-- Creator: CorelDRAW -->
<svg xmlns="http://www.w3.org/2000/svg" xml:space="preserve" width="10mm" height="10mm" version="1.0" style="shape-rendering:geometricPrecision; text-rendering:geometricPrecision; image-rendering:optimizeQuality; fill-rule:evenodd; clip-rule:evenodd"
viewBox="0 0 106.87 106.87"
 xmlns:xlink="http://www.w3.org/1999/xlink"
 xmlns:xodm="http://www.corel.com/coreldraw/odm/2003">
 <defs>
  <style type="text/css">
   <![CDATA[
    .fil0 {fill:#43BCFF}
    .fil1 {fill:#FEFEFF}
   ]]>
  </style>
 </defs>
 <g id="Camada_x0020_1">
  <metadata id="CorelCorpID_0Corel-Layer"/>
  <g id="_2298253767568">
   <path class="fil0" d="M-0 51.76c0,7.95 0.49,12.35 3.05,19.7 1.24,3.57 2.38,5.61 4.12,8.82 0.4,0.74 0.77,1.24 1.19,1.94 1.71,2.87 4.96,6.75 7.24,9.04 2.17,2.17 4.44,4.03 6.94,5.79 3.14,2.21 4.65,3.08 8.14,4.8 4.94,2.44 13.52,5.01 20.88,5.01l0.28 0c5.89,-0 8.71,-0.05 14.66,-1.54 1.8,-0.45 3.28,-0.92 4.96,-1.51 6.85,-2.39 11.05,-5.34 16.41,-9.47 10.71,-8.25 18.99,-24.98 18.99,-39.03 0,-9.64 -1.14,-16.58 -4.94,-24.49 -5.78,-12.04 -13.95,-19.85 -25.74,-25.81 -5.64,-2.85 -14.47,-5.01 -20.87,-5.01 -8.04,0 -12.43,0.45 -19.91,3.05 -1.49,0.52 -3.23,1.21 -4.58,1.89l-6.18 3.42c-8.77,5.23 -15.15,13.44 -19.7,22.46 -2.86,5.67 -4.94,14.52 -4.94,20.94z"/>
   <path class="fil1" d="M41.72 53.43c-2.3,3.14 -15.21,14.11 -15.57,16.54 -0.33,2.25 2.42,4.26 4.46,6.29 0.92,0.92 1.69,1.69 2.61,2.61 3.79,3.81 5.06,1.38 9.46,-3.02l10.77 -10.7c1.41,1.01 3.94,3.86 5.35,5.27 1.69,1.69 9.43,10.06 11.2,10.3 2.27,0.31 4.31,-2.47 6.3,-4.45 0.92,-0.92 1.69,-1.69 2.61,-2.61 3.84,-3.82 1.27,-5.16 -3.03,-9.46 -1.83,-1.83 -3.5,-3.5 -5.32,-5.32l-5.38 -5.45c2.29,-3.1 15.25,-14.13 15.57,-16.55 0.3,-2.25 -2.49,-4.31 -4.45,-6.29 -0.92,-0.92 -1.69,-1.69 -2.61,-2.61 -3.85,-3.87 -5.21,-1.21 -9.46,3.03 -1.83,1.83 -3.5,3.5 -5.32,5.32 -0.96,0.96 -1.76,1.76 -2.71,2.71 -0.81,0.81 -1.9,2.05 -2.74,2.66 -1.53,-1.16 -3.84,-3.77 -5.34,-5.27 -1.72,-1.72 -9.37,-10.03 -11.2,-10.29 -1.84,-0.26 -2.82,0.98 -3.58,1.74l-5.32 5.32c-3.85,3.83 -1.32,5.11 3.03,9.45l10.7 10.77z"/>
  </g>
 </g>
</svg>
