<?xml version="1.0" encoding="UTF-8"?>
<!DOCTYPE svg PUBLIC "-//W3C//DTD SVG 1.0//EN" "http://www.w3.org/TR/2001/REC-SVG-20010904/DTD/svg10.dtd">
<!-- Creator: CorelDRAW -->
<svg xmlns="http://www.w3.org/2000/svg" xml:space="preserve" width="11.9673mm" height="10.0002mm" version="1.0" style="shape-rendering:geometricPrecision; text-rendering:geometricPrecision; image-rendering:optimizeQuality; fill-rule:evenodd; clip-rule:evenodd"
viewBox="0 0 167.19 139.71"
 xmlns:xlink="http://www.w3.org/1999/xlink"
 xmlns:xodm="http://www.corel.com/coreldraw/odm/2003">
 <defs>
  <style type="text/css">
   <![CDATA[
    .fil1 {fill:#1CB0F6}
    .fil2 {fill:#63C9F9;fill-rule:nonzero}
    .fil0 {fill:#C9C7C7;fill-rule:nonzero}
   ]]>
  </style>
 </defs>
 <g id="Camada_x0020_1">
  <metadata id="CorelCorpID_0Corel-Layer"/>
  <g id="_2261923265904">
   <path class="fil0" d="M60.83 90.59c-3.23,1.97 -7.45,0.95 -9.42,-2.28 -1.97,-3.23 -0.95,-7.45 2.28,-9.42l52.67 -32.06c3.23,-1.97 7.45,-0.95 9.42,2.28 1.97,3.23 0.95,7.45 -2.28,9.42l-52.67 32.06z"/>
   <path class="fil1" d="M84.81 2.42c8.78,-5.02 19.97,-1.97 25,6.82l36.64 64.12c5.02,8.78 1.97,19.97 -6.82,25 -8.79,5.02 -19.98,1.97 -25,-6.82l-36.64 -64.12c-5.02,-8.79 -1.97,-19.98 6.82,-25zm-59.72 36.74c8.73,-5.12 19.95,-2.19 25.07,6.54l38.93 66.42c5.12,8.73 2.19,19.95 -6.54,25.07 -8.73,5.12 -19.95,2.19 -25.07,-6.54l-38.93 -66.41c-5.12,-8.73 -2.19,-19.95 6.54,-25.07z"/>
   <path class="fil1" d="M122.68 8.93c7.71,-4.34 17.49,-1.61 21.83,6.11l20.61 36.64c4.34,7.72 1.6,17.49 -6.11,21.83 -7.72,4.34 -17.49,1.6 -21.83,-6.11l-20.61 -36.64c-4.34,-7.72 -1.61,-17.49 6.11,-21.83zm-114.78 59.7c7.63,-4.49 17.46,-1.94 21.94,5.69l22.9 38.93c4.49,7.63 1.94,17.46 -5.69,21.95 -7.63,4.49 -17.46,1.94 -21.95,-5.69l-22.9 -38.93c-4.49,-7.63 -1.94,-17.46 5.69,-21.95z"/>
   <path class="fil2" d="M7.92 83.78c-2,-3.21 -1.01,-7.45 2.2,-9.45 3.21,-2 7.45,-1.01 9.45,2.2l5.73 9.16c2,3.21 1.01,7.45 -2.2,9.45 -3.21,2 -7.45,1.01 -9.45,-2.2l-5.73 -9.16zm114.51 -61.83c-2,-3.21 -1.01,-7.45 2.2,-9.45 3.21,-2 7.45,-1.01 9.45,2.2l5.73 9.16c2,3.21 1.01,7.45 -2.2,9.45 -3.21,2 -7.45,1.01 -9.45,-2.2l-5.73 -9.16zm-32.06 0c-2,-3.21 -1.02,-7.45 2.2,-9.45 3.21,-2 7.45,-1.01 9.45,2.2l5.73 9.16c2,3.21 1.01,7.45 -2.2,9.45 -3.22,2 -7.45,1.01 -9.45,-2.2l-5.73 -9.16zm-64.12 36.64c-2,-3.21 -1.01,-7.45 2.2,-9.45 3.21,-2 7.45,-1.01 9.45,2.2l5.73 9.16c2,3.21 1.01,7.45 -2.2,9.45 -3.21,2 -7.45,1.01 -9.45,-2.2l-5.73 -9.16z"/>
  </g>
 </g>
</svg>
