<?xml version="1.0" encoding="UTF-8"?>
<!DOCTYPE svg PUBLIC "-//W3C//DTD SVG 1.0//EN" "http://www.w3.org/TR/2001/REC-SVG-20010904/DTD/svg10.dtd">
<!-- Creator: CorelDRAW -->
<svg xmlns="http://www.w3.org/2000/svg" xml:space="preserve" width="10.4347mm" height="10mm" version="1.0" style="shape-rendering:geometricPrecision; text-rendering:geometricPrecision; image-rendering:optimizeQuality; fill-rule:evenodd; clip-rule:evenodd"
viewBox="0 0 654.66 627.39"
 xmlns:xlink="http://www.w3.org/1999/xlink"
 xmlns:xodm="http://www.corel.com/coreldraw/odm/2003">
 <defs>
  <style type="text/css">
   <![CDATA[
    .fil1 {fill:#9069CD;fill-rule:nonzero}
    .fil0 {fill:#CE82FF;fill-rule:nonzero}
   ]]>
  </style>
 </defs>
 <g id="Camada_x0020_1">
  <metadata id="CorelCorpID_0Corel-Layer"/>
  <g id="_2298264139920">
   <path class="fil0" d="M-0 454.62l0 -127.3c0,-43.25 8.65,-85.74 24.97,-125.16 16.36,-39.5 40.33,-75.71 70.91,-106.29l0.1 0c30.64,-30.63 66.82,-54.59 106.2,-70.9 39.41,-16.32 81.91,-24.97 125.16,-24.97 43.24,0 85.75,8.65 125.16,24.97 39.38,16.31 75.56,40.27 106.2,70.9l0.1 0c30.58,30.58 54.55,66.79 70.91,106.29 16.32,39.42 24.96,81.91 24.96,125.16l0 127.3 -54.56 0 0 -127.3c0,-36.32 -7.16,-71.79 -20.7,-104.49 -13.51,-32.62 -33.51,-62.73 -59.18,-88.4 -25.57,-25.65 -55.7,-45.63 -88.4,-59.18 -32.69,-13.54 -68.16,-20.71 -104.49,-20.71 -36.33,0 -71.8,7.17 -104.49,20.71 -32.7,13.55 -62.83,33.53 -88.45,59.13 -25.62,25.72 -45.62,55.82 -59.13,88.44 -13.54,32.69 -20.7,68.17 -20.7,104.49l0 127.3 -54.56 0z"/>
   <ellipse class="fil0" cx="127.3" cy="445.53" rx="127.3" ry="145.48"/>
   <ellipse class="fil0" cx="527.37" cy="445.53" rx="127.3" ry="145.48"/>
   <path class="fil1" d="M400.07 345.51c0,-45.2 36.64,-81.84 81.84,-81.84 45.2,0 81.84,36.64 81.84,81.84l0 200.04c0,45.2 -36.64,81.84 -81.84,81.84 -45.2,0 -81.84,-36.64 -81.84,-81.84l0 -200.04z"/>
   <path class="fil1" d="M90.92 345.51c0,-45.2 36.64,-81.84 81.84,-81.84 45.2,0 81.84,36.64 81.84,81.84l0 200.04c0,45.2 -36.64,81.84 -81.84,81.84 -45.2,0 -81.84,-36.64 -81.84,-81.84l0 -200.04z"/>
  </g>
 </g>
</svg>
