<?xml version="1.0" encoding="UTF-8"?>
<!DOCTYPE svg PUBLIC "-//W3C//DTD SVG 1.0//EN" "http://www.w3.org/TR/2001/REC-SVG-20010904/DTD/svg10.dtd">
<!-- Creator: CorelDRAW -->
<svg xmlns="http://www.w3.org/2000/svg" xml:space="preserve" width="11.7855mm" height="10mm" version="1.0" style="shape-rendering:geometricPrecision; text-rendering:geometricPrecision; image-rendering:optimizeQuality; fill-rule:evenodd; clip-rule:evenodd"
viewBox="0 0 324.93 275.7"
 xmlns:xlink="http://www.w3.org/1999/xlink"
 xmlns:xodm="http://www.corel.com/coreldraw/odm/2003">
 <defs>
  <style type="text/css">
   <![CDATA[
    .fil0 {fill:#9069CD;fill-rule:nonzero}
    .fil2 {fill:#D4924B;fill-rule:nonzero}
    .fil1 {fill:#F3AD6D;fill-rule:nonzero}
    .fil3 {fill:white;fill-rule:nonzero}
   ]]>
  </style>
 </defs>
 <g id="Camada_x0020_1">
  <metadata id="CorelCorpID_0Corel-Layer"/>
  <g id="_2298264183888">
   <path class="fil0" d="M68.92 128l187.08 0c38.06,0 68.92,30.86 68.92,68.92l0 0c0,38.06 -30.87,68.92 -68.92,68.92l-187.08 0c-38.06,-0 -68.92,-30.87 -68.92,-68.93l-0.01 0c0.01,-38.06 30.87,-68.93 68.93,-68.93z"/>
   <path class="fil0" d="M157.54 0l0 0c70.68,0 128,57.32 128,128l0 9.85c0,70.68 -57.32,128 -128,128l-0.01 0c-70.68,-0 -128,-57.32 -128,-128l-0 -9.85c0,-70.68 57.33,-128 128.01,-128z"/>
   <path class="fil1" d="M157.54 29.54l0 0c48.93,-0 88.62,39.68 88.62,88.62l0 68.93c0,48.93 -39.68,88.62 -88.61,88.62l-0.01 0c-48.93,-0 -88.62,-39.69 -88.62,-88.63l0 -68.92c0,-48.93 39.69,-88.62 88.62,-88.62z"/>
   <circle class="fil1" cx="251.08" cy="152.62" r="34.46"/>
   <path class="fil1" d="M73.84 187.09c19.03,0 34.46,-15.43 34.46,-34.46 0,-5.28 -1.19,-10.29 -3.31,-14.77l-50.84 -13.52c-8.93,6.23 -14.77,16.58 -14.77,28.29 0,19.03 15.43,34.46 34.46,34.46z"/>
   <path class="fil2" d="M132.92 108.31l0 0c8.16,0 14.78,6.61 14.78,14.77l-0 19.69c0,8.15 -6.61,14.77 -14.77,14.77l-0.01 0c-8.15,-0 -14.77,-6.62 -14.77,-14.78l0 -19.69c0,-8.16 6.61,-14.77 14.77,-14.77z"/>
   <path class="fil2" d="M182.16 108.31l0 0c8.16,0 14.77,6.61 14.77,14.77l-0.01 19.69c0.01,8.15 -6.61,14.77 -14.77,14.77l0 0c-8.16,-0 -14.77,-6.62 -14.77,-14.78l0 -19.69c0,-8.16 6.61,-14.77 14.77,-14.77z"/>
   <path class="fil0" d="M98.46 128c56.82,0 104.27,-40.1 115.59,-93.54l-76.2 -24.62 -73.84 54.15 -14.77 53.29c14.99,6.88 31.66,10.71 49.23,10.71z"/>
   <path class="fil3" d="M118.16 177.24c-5.44,0 -9.94,4.44 -8.96,9.8 0.57,3.09 1.4,6.12 2.48,9.05 2.23,5.97 5.49,11.4 9.61,15.97 4.12,4.57 9,8.2 14.38,10.67 5.37,2.47 11.14,3.75 16.95,3.75 5.82,0 11.58,-1.28 16.96,-3.75 5.38,-2.47 10.26,-6.1 14.37,-10.67 4.12,-4.57 7.38,-10 9.61,-15.97 1.09,-2.93 1.92,-5.96 2.49,-9.05 0.98,-5.35 -3.52,-9.8 -8.96,-9.8l-34.47 0 -34.46 0z"/>
  </g>
 </g>
</svg>
