<?xml version="1.0" encoding="UTF-8"?>
<!DOCTYPE svg PUBLIC "-//W3C//DTD SVG 1.0//EN" "http://www.w3.org/TR/2001/REC-SVG-20010904/DTD/svg10.dtd">
<!-- Creator: CorelDRAW -->
<svg xmlns="http://www.w3.org/2000/svg" xml:space="preserve" width="218.612mm" height="261.392mm" version="1.0" style="shape-rendering:geometricPrecision; text-rendering:geometricPrecision; image-rendering:optimizeQuality; fill-rule:evenodd; clip-rule:evenodd"
viewBox="0 0 21855.34 26132.15"
 xmlns:xlink="http://www.w3.org/1999/xlink"
 xmlns:xodm="http://www.corel.com/coreldraw/odm/2003">
 <defs>
  <style type="text/css">
   <![CDATA[
    .fil0 {fill:none}
    .fil4 {fill:#294F81;fill-rule:nonzero}
    .fil9 {fill:#296ABD;fill-rule:nonzero}
    .fil8 {fill:#2F4572;fill-rule:nonzero}
    .fil5 {fill:#33487A;fill-rule:nonzero}
    .fil6 {fill:#393760;fill-rule:nonzero}
    .fil7 {fill:#46AED2;fill-rule:nonzero}
    .fil2 {fill:#5FAEDE;fill-rule:nonzero}
    .fil1 {fill:#5FBBE8;fill-rule:nonzero}
    .fil3 {fill:#B1ECED;fill-rule:nonzero}
   ]]>
  </style>
 </defs>
 <g id="Camada_x0020_1">
  <metadata id="CorelCorpID_0Corel-Layer"/>
  <rect class="fil0" width="21855.34" height="26132.15"/>
  <g id="_1533815688064">
   <path class="fil1" d="M5284.49 12135.54c-265.45,521.77 -888.39,268.41 -1655.08,-349.66 -915.01,-738.1 -1964.66,-2772.74 -1322.71,-4020.74 0,-0.3 0,-0.3 0,-0.3 58.56,-113.71 130.82,-220.65 218.29,-319.9 1053.45,-1186.63 2916.94,3332.68 2897.92,3991.51 -9.89,311.78 -57.8,541.17 -138.43,699.09z"/>
   <path class="fil2" d="M5284.49 12135.54c-265.45,521.77 -888.39,268.41 -1655.08,-349.66 -915.01,-738.1 -1964.66,-2772.74 -1322.71,-4020.74 167.34,1256.91 781.14,3361.29 2977.78,4370.4z"/>
   <path class="fil3" d="M3764.8 8333.47c177.98,329.12 419.86,900.65 311.09,970.01 -111.05,70.88 -590.99,-380.61 -855.69,-930.15 -181.02,-375.36 -294.35,-865.34 -190.91,-917.36 117.9,-58.72 504.28,448.3 735.51,877.5z"/>
   <path class="fil1" d="M15551.2 17239.68c0,2381.16 -1670.3,5178.22 -4324.82,5178.22 -1644.44,0 -2998.33,-1007.06 -3789.36,-2353.1 -486.79,-826.55 -760.61,-1781.03 -760.61,-2708.83 0,-2439.58 2662.13,-2323.28 4349.93,-2323.28 1849.79,0 4047.2,-141.78 4456.41,1581.69 44.88,185.75 68.45,393.38 68.45,625.3z"/>
   <path class="fil2" d="M15551.2 17239.68c0,2381.16 -1670.3,5178.22 -4324.82,5178.22 -1644.44,0 -2998.33,-1007.06 -3789.36,-2353.1 1648.24,775.69 6343.49,2382.9 8045.73,-3450.43 44.88,185.75 68.45,393.38 68.45,625.3z"/>
   <path class="fil3" d="M7595.22 16409.93c-345.31,562.23 -101.15,1362.24 490.6,1676.3 625.97,332.08 1477.86,34.46 1709.85,-625.6 221.33,-626.66 -204.61,-1329.24 -814.61,-1526.47 -489.84,-157.9 -1099.09,8.37 -1385.84,475.77z"/>
   <path class="fil1" d="M18612.66 11487.11c-759.1,789.59 -1398.01,1110.03 -1699.2,363.26 -51.73,-128.4 -93.56,-288.34 -124.74,-482.45 -101.92,-651.01 1173.61,-5369.98 2368.54,-4326.43 308.81,269.87 481.46,635.42 551.43,1044.94 200.81,1175.66 -437.34,2714.91 -1096.03,3400.68z"/>
   <path class="fil2" d="M18612.66 11487.11c-759.1,789.59 -1398.01,1110.03 -1699.2,363.26 563.61,-268.42 1619.34,-1112.38 2795.23,-3763.94 200.81,1175.66 -437.34,2714.91 -1096.03,3400.68z"/>
   <path class="fil3" d="M18095.44 8884.99c-242.63,699.91 -719.54,1868.06 -851.88,1826.15 -118.66,-37.88 25.86,-1065.24 461.69,-2007.48 241.88,-524.97 599.36,-1078.54 687.59,-1039.53 108.77,48.62 -222.09,1003.03 -297.39,1220.86z"/>
   <path class="fil1" d="M6424.65 9962.01c-155.16,-157.6 -276.1,-339.53 -359,-534.17 -191.67,-446.86 -188.63,-961.11 31.18,-1402.72 222.86,-448 640.44,-765.55 1124.18,-877.51 136.91,-32.1 279.15,-47.69 424.43,-44.5 319.45,1890.04 -1220.78,2858.9 -1220.78,2858.9z"/>
   <path class="fil2" d="M6424.65 9962.01c-155.16,-157.6 -276.1,-339.53 -359,-534.17 193.96,-335.21 390.2,-692.08 582.62,-1070.72 212.97,-417.35 403.12,-821.61 572.74,-1209.52 136.91,-32.1 279.15,-47.69 424.43,-44.5 -406.93,952.97 -813.85,1905.94 -1220.78,2858.9z"/>
   <path class="fil1" d="M15742.11 11918.91c-184.06,2358.28 -5598.08,3106.56 -8120.26,1665.88 -700.51,-400.3 -1177.42,-969.77 -1258.04,-1719.96 -368.9,-3452.17 1933.47,-6597.45 4557.57,-6582.09 950.77,5.47 2065.82,375.97 2986.16,1187.84 1178.93,1039.14 2040.71,2802.24 1834.58,5448.32z"/>
   <path class="fil2" d="M15742.11 11918.91c-184.06,2358.28 -5598.08,3106.56 -8120.26,1665.88 1544.8,265.53 6143.44,855.54 6984.68,-1357 722.58,-1902.51 -142.99,-4451.7 -698.99,-5757.21 1178.93,1039.14 2040.71,2802.24 1834.58,5448.32z"/>
   <path class="fil3" d="M7884.26 7586.71c138.43,185.05 1000.2,-195.86 1579.79,-617.23 556,-403.73 1124.18,-1042.64 1000.96,-1225.11 -110.28,-162.01 -746.16,64.42 -1146.24,274.12 -895.99,469.44 -1585.86,1366.59 -1434.51,1568.23z"/>
   <path class="fil3" d="M6610.24 11250.78c17.5,630.25 398.56,1230.97 555.25,1191.04 163.53,-41.99 101.15,-795.07 28.13,-1209.22 -20.53,-118.88 -149.08,-846.33 -319.45,-844.27 -133.1,1.75 -274.59,454.09 -263.93,862.45z"/>
   <path class="fil4" d="M14350.2 8812.13c-3.05,473.39 -524.06,761.83 -1194.93,931.28 -706.6,178.44 -1579.02,224.69 -2185.98,215.4 -869.38,-13.53 -2545,-174.09 -3145.89,-728.2 -141.47,-129.91 -222.85,-281.42 -222.09,-457.58 3.04,-512.8 219.05,-975.79 566.66,-1310.15 347.59,-334.06 826.02,-538.82 1353.13,-535.93l2930.62 17.04c613.05,3.5 1156.88,287.51 1502.97,726.24 250.23,316.41 397.79,712.68 395.51,1141.9z"/>
   <path class="fil5" d="M14350.2 8812.13c-3.05,473.39 -524.06,761.83 -1194.93,931.28 -706.6,178.44 -1579.02,224.69 -2185.98,215.4 -869.38,-13.53 -2545,-174.09 -3145.89,-728.2 1721.27,-41.68 4649.61,-307.13 6131.29,-1560.38 250.23,316.41 397.79,712.68 395.51,1141.9z"/>
   <path class="fil6" d="M13753.12 8409.54c-2.28,471.12 -386.4,850.59 -857.97,847.92 -364.33,-1.97 -673.14,-231.6 -794.08,-553.26 -34.99,-94.85 -54.77,-197.24 -54.01,-304.55 3.05,-471.12 387.15,-850.59 857.97,-848.01 346.84,2.05 644.24,210.54 775.06,508.46 47.92,106.72 73.78,224.99 73.02,349.44z"/>
   <path class="fil7" d="M12900.48 7405.9l0 0c-547.64,0 -996.4,445.42 -999.45,992.89 -0.75,122.32 21.3,242.35 63.9,356.58 144.51,385.02 517.97,645.53 929.45,647.89l6.1 0c547.63,0 995.63,-445.41 998.67,-992.89 0.77,-142.62 -28.14,-280.21 -85.95,-409.52 -158.21,-358.93 -514.17,-592.59 -907.41,-594.95l-5.32 0 0 0zm0 145.73c346.08,2.05 648.8,210.54 779.62,508.46 47.92,106.72 73.78,224.99 73.02,349.44 -2.28,469.36 -384.12,847.92 -852.64,847.92 -1.53,0 -3.81,0 -5.33,0 -364.33,-1.97 -673.14,-231.6 -794.08,-553.26 -34.99,-94.85 -54.77,-197.24 -54.01,-304.55 3.05,-469.37 384.11,-848.01 853.41,-848.01l0 0z"/>
   <path class="fil8" d="M13679.34 8058.36c-322.5,767.9 -1112.01,740.45 -1575.99,648.5 -36.5,-94.62 -55.53,-197.3 -55.53,-304.55 1.53,-470.89 384.12,-852.11 855.69,-850.89 346.08,0.83 644.24,209.62 775.82,506.94z"/>
   <path class="fil3" d="M12864.73 8121.18c-0.77,156.46 -128.55,282.49 -285.23,281.35 -155.93,-0.84 -282.18,-128.09 -281.42,-284.54 0.76,-156.54 128.54,-282.56 285.22,-281.73 155.93,1.14 282.19,128.4 281.43,284.92z"/>
   <path class="fil3" d="M13568.29 8574.05c45.64,31.56 -19.01,327.97 -230.46,440.46 -188.64,100.1 -436.6,24.65 -441.92,-30.03 -3.8,-40.24 124.74,-50.66 341.51,-179.59 227.43,-136.22 298.16,-252.82 330.87,-230.84z"/>
   <path class="fil6" d="M9969.09 8387.55c-2.28,471.12 -386.4,850.89 -857.96,847.93 -363.57,-1.99 -673.15,-231.62 -793.32,-553.2 -35.75,-94.61 -55.53,-197.3 -54.77,-304.62 3.04,-471.12 387.15,-850.59 857.97,-848 346.83,2.05 644.24,210.83 775.05,508.46 47.93,107.02 73.78,224.99 73.02,349.43z"/>
   <path class="fil7" d="M9116.45 7383.93l0 0c-547.63,0 -995.63,445.4 -999.44,992.89 0,122.31 21.3,242.34 63.89,356.57 144.51,385.25 517.97,645.61 929.46,647.89l6.09 0c547.63,0 995.63,-445.41 998.67,-992.9 0.77,-142.3 -28.13,-280.27 -85.19,-409.58 -158.2,-358.86 -514.93,-592.59 -908.17,-594.87l-5.32 0 0 0zm6.85 143.75c346.84,1.98 641.96,212.81 772.77,510.44 47.93,107.02 73.78,224.99 73.02,349.43 -2.28,469.36 -384.11,847.93 -852.64,847.93 -1.53,0 -3.04,0 -5.32,0 -363.57,-1.99 -673.15,-231.62 -793.32,-553.2 -35.75,-94.61 -55.53,-197.3 -54.77,-304.62 3.04,-469.37 391.71,-849.98 860.25,-849.98l0 0z"/>
   <path class="fil8" d="M9896.07 8036.38c-323.26,768.21 -1112.77,740.45 -1576.74,648.42 -35.75,-94.54 -55.54,-197.23 -55.54,-304.24 1.53,-471.12 384.12,-852.03 855.69,-850.89 346.85,0.91 644.24,209.46 776.58,506.71z"/>
   <path class="fil3" d="M9080.71 8099.13c-0.77,156.53 -128.56,282.56 -285.23,281.72 -155.93,-0.83 -282.18,-128.4 -280.67,-284.85 0.76,-156.45 127.79,-282.33 284.47,-281.41 155.93,0.84 282.18,128.39 281.43,284.54z"/>
   <path class="fil3" d="M9784.26 8552.07c46.4,31.57 -19,328.28 -230.46,440.47 -187.88,100.09 -436.59,24.64 -441.92,-30.05 -3.8,-40.23 124.75,-50.35 341.52,-179.57 227.42,-135.99 298.92,-252.82 330.86,-230.85z"/>
   <path class="fil9" d="M11239.31 7131.18c7.6,56.65 -375.74,187.94 -773.54,222.4 -644.24,55.53 -1232.94,-151.89 -1224.58,-223.32 4.57,-32.63 412.26,-34.14 1226.1,-35.82 654.12,-1.45 767.45,6.62 772.02,36.74z"/>
   <path class="fil1" d="M6109.75 8335.15c-16.73,-13.54 -419.85,-342.43 -664.77,-981.34 -224.38,-584.76 -352.93,-1551.03 309.58,-2835.25l226.66 116.9c-489.84,950.09 -593.28,1858.55 -298.16,2627.01 220.58,575.25 582.62,871.13 586.43,874.01l-159.74 198.68z"/>
   <path class="fil4" d="M6600.35 4417.09c-60.08,322.5 -370.42,535.03 -692.15,474.92 -322.49,-60.15 -535.48,-370.49 -475.38,-692.97 60.09,-322.2 370.41,-534.8 692.91,-474.62 322.5,60.15 534.71,370.19 474.62,692.67z"/>
   <path class="fil9" d="M5645.03 4134.83c-0.77,175.85 140.71,319.3 317.16,320.14 175.71,0.61 319.46,-141.4 320.22,-317.25 0.76,-176.15 -141.47,-319.3 -317.17,-320.22 -176.46,-0.83 -319.45,141.18 -320.21,317.33z"/>
   <path class="fil4" d="M10954.84 11419.11c-409.97,8.98 -731.71,-117.36 -965.97,-285.14 -421.39,-299.92 -562.86,-731.71 -430.5,-744.49 206.88,-19.09 704.32,197 1261.08,184.52 639.68,-14.46 1072.46,-172.65 1400.27,-192.29 15.22,-1.14 28.91,-1.74 43.37,-2.05 333.9,-7.52 -52.49,1011.16 -1308.25,1039.45z"/>
   <path class="fil5" d="M10954.84 11419.11c-409.97,8.98 -731.71,-117.36 -965.97,-285.14 554.47,-79.87 1642.91,-288.96 2230.85,-752.26 15.22,-1.14 28.91,-1.74 43.37,-2.05 333.9,-7.52 -52.49,1011.16 -1308.25,1039.45z"/>
  </g>
 </g>
</svg>
