<?xml version="1.0" encoding="UTF-8"?>
<!DOCTYPE svg PUBLIC "-//W3C//DTD SVG 1.0//EN" "http://www.w3.org/TR/2001/REC-SVG-20010904/DTD/svg10.dtd">
<!-- Creator: CorelDRAW -->
<svg xmlns="http://www.w3.org/2000/svg" xml:space="preserve" width="218.612mm" height="261.392mm" version="1.0" style="shape-rendering:geometricPrecision; text-rendering:geometricPrecision; image-rendering:optimizeQuality; fill-rule:evenodd; clip-rule:evenodd"
viewBox="0 0 21855.34 26132.15"
 xmlns:xlink="http://www.w3.org/1999/xlink"
 xmlns:xodm="http://www.corel.com/coreldraw/odm/2003">
 <defs>
  <style type="text/css">
   <![CDATA[
    .fil0 {fill:none}
    .fil4 {fill:#294F81;fill-rule:nonzero}
    .fil9 {fill:#296ABD;fill-rule:nonzero}
    .fil8 {fill:#2F4572;fill-rule:nonzero}
    .fil5 {fill:#33487A;fill-rule:nonzero}
    .fil6 {fill:#393760;fill-rule:nonzero}
    .fil7 {fill:#46AED2;fill-rule:nonzero}
    .fil2 {fill:#5FAEDE;fill-rule:nonzero}
    .fil1 {fill:#5FBBE8;fill-rule:nonzero}
    .fil3 {fill:#B1ECED;fill-rule:nonzero}
    .fil10 {fill:#BBDAF4;fill-rule:nonzero}
    .fil11 {fill:#BBE1F4;fill-rule:nonzero}
   ]]>
  </style>
 </defs>
 <g id="Camada_x0020_1">
  <metadata id="CorelCorpID_0Corel-Layer"/>
  <rect class="fil0" width="21855.34" height="26132.15"/>
  <g id="_1533991219888">
   <g>
    <path class="fil1" d="M6261.69 15681.32c-129.37,571.07 -795.2,478.49 -1690.25,68.07 -1068.85,-490.14 -2586.73,-2204.02 -2271.49,-3571.75 0,-0.37 0,-0.37 0,-0.37 28.8,-124.67 72.53,-245.98 133.37,-363.72 728.87,-1409.26 3646.89,2512.75 3790.1,3155.99 67.8,304.69 77.63,538.66 38.26,711.78z"/>
    <path class="fil2" d="M6261.69 15681.32c-129.37,571.07 -795.2,478.49 -1690.25,68.07 -1068.85,-490.14 -2586.73,-2204.02 -2271.49,-3571.75 471.23,1177.12 1583.83,3065.95 3961.74,3503.68z"/>
    <path class="fil3" d="M3853.27 12369.62c253.02,275.34 628.24,769.96 539.92,863.82 -90.24,95.91 -666.37,-223.46 -1058.21,-691 -267.52,-319.23 -498.31,-766.25 -410.33,-842.3 99.55,-86.03 598.7,310.48 928.62,669.49z"/>
   </g>
   <path class="fil1" d="M15924.56 17179.4c0,2381.24 -1670.52,5178.23 -4324.68,5178.23 -1644.67,0 -2998.17,-1006.89 -3789.35,-2353.1 -486.56,-826.55 -760.95,-1780.96 -760.95,-2708.83 0,-2439.5 2662.55,-2323.28 4349.88,-2323.28 1850.56,0 4047.36,-141.78 4457.02,1581.69 44.81,185.81 68.08,393.53 68.08,625.29z"/>
   <path class="fil2" d="M15924.56 17179.4c0,2381.24 -1670.52,5178.23 -4324.68,5178.23 -1644.67,0 -2998.17,-1006.89 -3789.35,-2353.1 1648.32,775.9 6343.64,2382.99 8045.95,-3450.43 44.81,185.81 68.08,393.53 68.08,625.29z"/>
   <path class="fil3" d="M7968.66 16349.89c-344.79,562.17 -100.93,1362.17 491.05,1676.23 625.75,331.93 1477.18,34.38 1709.77,-625.52 221.03,-626.81 -204.91,-1329.39 -815.07,-1526.46 -489.38,-158.06 -1099.16,8.29 -1385.75,475.75z"/>
   <path class="fil1" d="M19596.94 18907.21c-26.55,1094.37 -281.65,1762.4 -1007.96,1414.73 -124.67,-59.78 -263.48,-149.39 -417.28,-271.84 -515.3,-411.12 -2760.17,-4753.36 -1173.85,-4790.48 409.97,-9.51 783.51,143.9 1111.86,398.71 942.09,731.4 1510.57,2297.72 1487.22,3248.87z"/>
   <path class="fil2" d="M19596.94 18907.21c-26.55,1094.37 -281.65,1762.4 -1007.96,1414.73 235.02,-578.74 443.5,-1913.62 -479.26,-4663.6 942.09,731.4 1510.57,2297.72 1487.22,3248.87z"/>
   <path class="fil3" d="M17458.71 17336.7c293.37,680.14 730.33,1863.88 604.69,1922.06 -113.26,52.48 -699.68,-803.51 -1014.97,-1792.46 -175.69,-550.91 -285.45,-1200.62 -194.41,-1230.97 113.33,-37.8 513.41,889.84 604.69,1101.36z"/>
   <path class="fil1" d="M6856.45 9958.94c-156.7,-156.69 -278.45,-337.79 -362.6,-532.05 -194.25,-445.71 -193.54,-959.88 23.3,-1402.7 220.13,-449.37 635.58,-769.29 1119.19,-884.06 136.61,-32.85 279.16,-49.21 424.2,-47.08 330.56,1888.13 -1204.09,2865.89 -1204.09,2865.89z"/>
   <path class="fil2" d="M6856.45 9958.94c-156.7,-156.69 -278.45,-337.79 -362.6,-532.05 192.72,-336.41 386.29,-694.43 577.24,-1074.05 210.35,-418.34 397.93,-823.9 565.26,-1212.71 136.61,-32.85 279.16,-49.21 424.2,-47.08 -401.37,955.32 -802.74,1910.65 -1204.09,2865.89z"/>
   <path class="fil1" d="M16184.46 11862.07c-170.22,2359.33 -5579.45,3138.8 -8109.7,1712.81 -703.03,-396.2 -1183.7,-962.85 -1268.23,-1712.81 -388.86,-3449.75 1895.05,-6608.26 4518.93,-6608.26 951.22,0 2068.17,364.02 2993.07,1170.51 1185.48,1032.45 2057.22,2790.44 1865.93,5437.75z"/>
   <path class="fil1" d="M6702.93 8310.02c-19.28,-10.35 -475.85,-259.52 -833.91,-842.68 -327.65,-533.65 -631.06,-1460.22 -215.88,-2844.07l244.31 73.32c-309.73,1032.52 -248.53,1915.98 181.89,2625.78 321.12,529.38 740.14,760.69 744.33,762.97l-120.75 224.69z"/>
   <path class="fil4" d="M6466.38 4368.32c0,328.04 -265.89,593.95 -593.9,593.95 -327.98,0 -593.87,-265.91 -593.87,-593.95 0,-327.98 265.89,-593.81 593.87,-593.81 328.01,0 593.9,265.83 593.9,593.81z"/>
   <path class="fil4" d="M14780.68 9778.22c0,473.4 -519.72,764.95 -1189.51,938.07 -705.55,182.54 -1577.66,233.96 -2184.78,228.1 -869.15,-8.37 -2545.6,-159.27 -3150.14,-709.87 -141.78,-129.08 -224.53,-280.28 -224.53,-456.3 0,-512.8 213.58,-977.08 559.04,-1313.41 345.55,-336.05 822.91,-543.77 1350.25,-543.77l2930.39 0c612.98,0 1158.56,280.97 1507.68,717.57 251.76,314.9 401.6,710.33 401.6,1139.61z"/>
   <path class="fil5" d="M14780.68 9778.22c0,473.4 -519.72,764.95 -1189.51,938.07 -705.55,182.54 -1577.66,233.96 -2184.78,228.1 -869.15,-8.37 -2545.6,-159.27 -3150.14,-709.87 1721.57,-51.8 4647.93,-334.21 6122.83,-1595.91 251.76,314.9 401.6,710.33 401.6,1139.61z"/>
   <path class="fil4" d="M11486.93 13073.04c-556.16,0 -988.71,-197.16 -1302.16,-451.58 -562.62,-455.83 -741.59,-1096.19 -561.18,-1110.34 280.59,-21.51 950.08,313.38 1705.89,313.38 868.48,0 1460.22,-218.67 1906.7,-236.86 20.08,-1.14 39.33,-1.52 58.64,-1.52 453.4,0 -101.61,1486.92 -1807.9,1486.92z"/>
   <path class="fil2" d="M16184.46 11862.07c-170.22,2359.33 -5579.45,3138.8 -8109.7,1712.81 1545.86,256.55 6147.92,819.93 6975.93,-1397.25 712.08,-1906.77 -168.4,-4450.86 -732.16,-5753.32 1185.48,1032.45 2057.22,2790.44 1865.93,5437.75z"/>
   <path class="fil3" d="M8302.03 7575.35c139.8,184.37 999.29,-201.57 1576.52,-626.29 553.19,-407.07 1118.02,-1049.18 993.43,-1230.97 -110.67,-161.33 -745.4,68.61 -1144.64,280.74 -893.41,474.77 -1577.58,1375.64 -1425.31,1576.52z"/>
   <path class="fil3" d="M7049.58 11246.66c20.49,630.24 405.59,1228.61 561.37,1187.76 163.53,-42.82 96.97,-795.6 21.6,-1209.37 -21.6,-118.73 -154.04,-845.34 -323.95,-842.21 -133.61,2.43 -272.27,455.6 -259.02,863.82z"/>
   <path class="fil6" d="M14181.55 9379.06c0,471.04 -381.9,852.94 -852.95,852.94 -364.17,0 -674.89,-227.8 -797.27,-548.77 -36.05,-94.39 -55.98,-197 -55.98,-304.17 0,-471.04 381.91,-852.95 853.25,-852.95 346.77,0 645.08,206.88 778.03,503.98 48.14,106.56 74.92,224.61 74.92,348.97z"/>
   <path class="fil7" d="M13328.6 8380.29c-550.83,0 -999.06,448.08 -999.06,998.76 0,122.38 22.05,242.26 65.56,356.19 146.57,384.26 521.78,642.49 933.5,642.49 550.68,0 998.68,-448 998.68,-998.68 0,-142.46 -29.51,-280.05 -87.78,-408.98 -160.33,-358.09 -517.98,-589.78 -910.91,-589.78l0 0zm-0.15 145.81c346.76,0 645.23,206.88 778.18,503.98 48.14,106.56 74.92,224.61 74.92,348.97 0,471.04 -381.9,852.94 -852.95,852.94 -364.17,0 -674.89,-227.8 -797.35,-548.77 -35.97,-94.39 -55.91,-197 -55.91,-304.17 0,-471.04 381.75,-852.95 853.1,-852.95l0 0z"/>
   <path class="fil8" d="M14105.87 9028.41c-318.39,769.81 -1108.21,746.85 -1572.72,657.32 -36.36,-94.31 -56.58,-196.77 -56.96,-303.94 -1.53,-471.12 379.01,-854.25 850.43,-855.84 346.77,-1.14 645.31,205.89 779.25,502.46z"/>
   <path class="fil3" d="M13291.25 9095.88c0,156.38 -126.79,283.17 -283.16,283.17 -156.39,0 -283.1,-126.8 -283.1,-283.17 0,-156.38 126.72,-283.17 283.1,-283.17 156.38,0 283.16,126.8 283.16,283.17z"/>
   <path class="fil3" d="M13997.4 9544.64c46.4,31.18 -16.73,328.28 -227.87,441.91 -187.57,101 -436.14,27.07 -441.92,-27.61 -4.26,-40.16 124.6,-51.12 340.07,-181.63 226.74,-137.29 297.47,-254.34 329.72,-232.67z"/>
   <path class="fil6" d="M10397.59 9378.99c0,471.03 -381.91,852.94 -852.95,852.94 -364.18,0 -674.89,-227.8 -797.27,-548.78 -36.06,-94.38 -55.98,-196.99 -55.98,-304.16 0,-471.04 381.9,-852.95 853.25,-852.95 346.77,0 645.08,206.95 778.02,503.97 48.23,106.64 74.93,224.69 74.93,348.98z"/>
   <path class="fil7" d="M9544.64 8380.22c-550.83,0 -998.98,448.07 -998.98,998.76 0,122.38 21.98,242.26 65.49,356.11 146.57,384.34 521.69,642.56 933.49,642.56 550.68,0 998.76,-448 998.76,-998.67 0,-142.39 -29.59,-280.05 -87.86,-408.99 -160.34,-358.01 -517.97,-589.77 -910.91,-589.77l0 0zm-0.15 145.81c346.76,0 645.23,206.95 778.17,503.97 48.23,106.64 74.93,224.69 74.93,348.98 0,471.03 -381.91,852.94 -852.95,852.94 -364.18,0 -674.89,-227.8 -797.27,-548.78 -36.06,-94.38 -55.98,-196.99 -55.98,-304.16 0,-471.04 381.76,-852.95 853.1,-852.95l0 0z"/>
   <path class="fil8" d="M10321.98 9028.34c-318.46,769.81 -1108.28,746.84 -1572.79,657.39 -36.35,-94.39 -56.58,-196.85 -56.96,-304.01 -1.52,-471.13 379.09,-854.25 850.43,-855.77 346.77,-1.22 645.31,205.82 779.32,502.39z"/>
   <path class="fil3" d="M9507.3 9095.8c0,156.46 -126.73,283.18 -283.17,283.18 -156.39,0 -283.1,-126.73 -283.1,-283.18 0,-156.38 126.72,-283.17 283.1,-283.17 156.45,0 283.17,126.8 283.17,283.17z"/>
   <path class="fil3" d="M10213.45 9544.56c46.32,31.19 -16.74,328.28 -227.81,441.91 -187.64,101.01 -436.2,27.08 -441.91,-27.53 -4.26,-40.23 124.51,-51.26 339.91,-181.7 226.82,-137.29 297.56,-254.35 329.81,-232.68z"/>
   <path class="fil9" d="M11660.2 8115.22c8.29,56.67 -375.06,190.16 -772.02,226.82 -644.08,59.32 -1234.31,-144.59 -1225.65,-216.02 4.04,-32.77 411.27,-36.66 1225.65,-43.2 654.28,-5.17 767.68,2.51 772.02,32.4z"/>
   <path class="fil9" d="M5474.97 4266.09c31.48,173.11 197.4,288.04 370.55,256.47 173.16,-31.4 288.05,-197.3 256.56,-370.49 -31.52,-173.19 -197.41,-288.04 -370.56,-256.55 -173.16,31.49 -288.02,197.39 -256.55,370.57z"/>
   <path class="fil5" d="M11486.93 13073.04c-556.16,0 -988.71,-197.16 -1302.16,-451.58 755.14,-99.41 2239.08,-370.95 3051.41,-1033.82 20.08,-1.14 39.33,-1.52 58.64,-1.52 453.4,0 -101.61,1486.92 -1807.9,1486.92z"/>
   <polygon class="fil10" points="18840.43,4813.5 18256.21,4692.56 18256.21,4692.17 "/>
   <polygon class="fil11" points="18840.43,4813.5 18256.21,4692.56 18256.21,4692.17 "/>
  </g>
 </g>
</svg>
