<?xml version="1.0" encoding="UTF-8"?>
<!DOCTYPE svg PUBLIC "-//W3C//DTD SVG 1.0//EN" "http://www.w3.org/TR/2001/REC-SVG-20010904/DTD/svg10.dtd">
<!-- Creator: CorelDRAW -->
<svg xmlns="http://www.w3.org/2000/svg" xml:space="preserve" width="218.612mm" height="261.392mm" version="1.0" style="shape-rendering:geometricPrecision; text-rendering:geometricPrecision; image-rendering:optimizeQuality; fill-rule:evenodd; clip-rule:evenodd"
viewBox="0 0 21861.2 26139.16"
 xmlns:xlink="http://www.w3.org/1999/xlink"
 xmlns:xodm="http://www.corel.com/coreldraw/odm/2003">
 <defs>
  <style type="text/css">
   <![CDATA[
    .fil0 {fill:none}
    .fil9 {fill:#00C8FF;fill-rule:nonzero}
    .fil8 {fill:lime;fill-rule:nonzero}
    .fil4 {fill:#193669;fill-rule:nonzero}
    .fil6 {fill:#194FB6;fill-rule:nonzero}
    .fil5 {fill:#203060;fill-rule:nonzero}
    .fil7 {fill:#2EA4CF;fill-rule:nonzero}
    .fil2 {fill:#44A4DC;fill-rule:nonzero}
    .fil1 {fill:#44B4E7;fill-rule:nonzero}
    .fil12 {fill:#7FEF8A;fill-rule:nonzero}
    .fil3 {fill:#A8EBED;fill-rule:nonzero}
    .fil11 {fill:#E92F3A;fill-rule:nonzero}
    .fil10 {fill:#F6AA41;fill-rule:nonzero}
   ]]>
  </style>
 </defs>
 <g id="Camada_x0020_1">
  <metadata id="CorelCorpID_0Corel-Layer"/>
  <rect class="fil0" width="21861.2" height="26139.16"/>
  <g id="_1534337841280">
   <path class="fil1" d="M5591.16 15318.65c-202.38,549.68 -850.59,371.43 -1685.21,-151.7 -996.66,-624.86 -2279.39,-2521.72 -1789.43,-3837.32 0,-0.38 0,-0.38 0,-0.38 44.89,-119.91 104.23,-234.56 179.56,-343.43 905.36,-1303.12 3291.27,2965.42 3349.09,3622 28.16,311.02 7.61,544.28 -54.01,710.83z"/>
   <path class="fil2" d="M5591.16 15318.65c-202.38,549.68 -850.59,371.43 -1685.21,-151.7 -996.66,-624.86 -2279.39,-2521.72 -1789.43,-3837.32 314.98,1228.64 1173.18,3246.39 3474.64,3989.02z"/>
   <path class="fil3" d="M3632.06 11721.6c215.31,305.92 523.45,845.19 423.78,926.9 -101.95,83.39 -632.24,-308.13 -960.15,-822.75 -223.68,-351.34 -394.86,-824.56 -297.48,-888.63 109.56,-72.42 553.12,385.59 833.85,784.48z"/>
   <path class="fil1" d="M15108.93 18360.31c0,2381.8 -1671.51,5179.54 -4325.98,5179.54 -1645.64,0 -2999.12,-1007.17 -3790.37,-2353.8 -486.93,-826.7 -761.58,-1781.46 -761.58,-2709.49 0,-2440.16 2663.61,-2323.9 4351.09,-2323.9 1851.06,0 4049.05,-141.82 4458.38,1582.03 44.89,185.94 68.47,393.72 68.47,625.62l-0.01 0z"/>
   <path class="fil2" d="M15108.93 18360.31c0,2381.8 -1671.51,5179.54 -4325.98,5179.54 -1645.64,0 -2999.12,-1007.17 -3790.37,-2353.8 1648.68,776.1 6345.18,2383.62 8047.88,-3451.37 44.89,185.94 68.47,393.72 68.47,625.62l0 0.01z"/>
   <path class="fil3" d="M7150.82 17530.41c-345.41,562.31 -101.18,1362.62 490.73,1676.75 626.15,332.02 1478.26,34.32 1710.31,-625.68 221.4,-627.07 -204.66,-1329.83 -814.84,-1526.96 -489.96,-158.1 -1099.37,8.37 -1386.2,475.89z"/>
   <path class="fil1" d="M18120.99 16603.43c-933.52,571.83 -1633.46,720.19 -1735.41,-78.81 -17.5,-137.18 -17.5,-302.43 1.52,-498.11 65.43,-656.12 2495.46,-4899.41 3387.14,-3586.85 231.29,339.24 305.08,736.38 269.33,1150.57 -103.48,1188.54 -1110.79,2516.47 -1922.58,3013.2z"/>
   <path class="fil2" d="M18120.99 16603.43c-933.52,571.83 -1633.46,720.19 -1735.41,-78.81 613.98,-116.71 1848.77,-666.25 3657.99,-2934.39 -103.48,1188.54 -1110.79,2516.47 -1922.58,3013.2z"/>
   <path class="fil3" d="M18280 13954.51c-412.36,615.66 -1169.37,1625.4 -1286.54,1551.45 -105.74,-66.72 295.2,-1024.06 954.83,-1825.88 367.47,-446.59 853.63,-891.59 928.95,-831.57 92.82,74.65 -468.66,914.43 -597.24,1106z"/>
   <path class="fil1" d="M7250.49 9968.92c-114.88,-189.45 -190.96,-394.34 -225.96,-603.1 -82.93,-479.16 39.56,-978.64 355.3,-1357.45 320.3,-384.43 799.62,-596.85 1297.19,-593.65 140.75,0.53 283.02,18.41 423.01,54.92 -126.29,1913.15 -1849.54,2499.28 -1849.54,2499.28z"/>
   <path class="fil2" d="M7250.49 9968.92c-114.88,-189.45 -190.96,-394.34 -225.96,-603.1 267.05,-281.12 540.18,-583.08 815.59,-906.74 303.56,-356.66 582.02,-706.19 836.9,-1044.36 140.75,0.53 283.02,18.41 423.01,54.92 -616.26,833.09 -1233.28,1666.19 -1849.54,2499.28z"/>
   <path class="fil1" d="M15862.9 14030.82c-724.3,2252.32 -6165.63,1726.67 -8286.02,-259.21 -589.63,-551.74 -922.1,-1216.39 -826.24,-1965.26 440.51,-3444.43 3408.44,-5971.93 5958.69,-5349.58 924.38,225.66 1923.34,844.35 2630.89,1847.49 906.88,1284.4 1336.75,3199.52 522.68,5726.57l0 -0.01z"/>
   <path class="fil4" d="M15041.22 11477.23c-99.66,410.15 -666.47,539.42 -1354.24,530.51 -724.3,-9.13 -1582.5,-171.49 -2171.37,-320.53 -842.98,-213.48 -2439.92,-741.87 -2910.87,-1362.31 -110.32,-145.39 -159.01,-296.03 -121.73,-448.5 108.79,-444.31 413.88,-795.89 820.91,-1005.34 407.04,-209.14 914.5,-275.87 1427.29,-150.79l2847.72 695.16c595.73,145.38 1065.91,518.18 1313.17,979.23 178.03,332.48 240.42,710.61 149.12,1082.57z"/>
   <path class="fil5" d="M15041.22 11477.23c-99.66,410.15 -666.47,539.42 -1354.24,530.51 -724.3,-9.13 -1582.5,-171.49 -2171.37,-320.53 -842.98,-213.48 -2439.92,-741.87 -2910.87,-1362.31 1683.68,363.52 4587.7,813.01 6287.37,69.76 178.03,332.48 240.42,710.61 149.12,1082.57l-0.01 0z"/>
   <path class="fil2" d="M15862.9 14030.82c-724.3,2252.32 -6165.63,1726.67 -8286.02,-259.21 1440.98,615.95 5779.14,2255.13 7109.8,296.94 1144.26,-1683.9 892.43,-4364.93 653.54,-5764.3 906.88,1284.4 1336.75,3199.52 522.68,5726.57z"/>
   <path class="fil3" d="M9221 7995.52c91.3,212.34 1017.96,41.23 1679.87,-234.56 634.52,-264.39 1335.23,-754.35 1257.63,-960.52 -69.23,-183.13 -740.27,-110.17 -1179.26,1.28 -980.69,249.4 -1858.67,962.51 -1758.24,1193.8z"/>
   <path class="fil3" d="M7132.57 11266.02c-129.34,617.33 102.7,1290.04 264,1287.39 168.9,-2.82 283.02,-750.09 307.37,-1170.06 7.61,-120.59 50.97,-857.97 -114.89,-895.32 -130.1,-29.29 -372.03,378.2 -456.48,778l0 -0.01z"/>
   <path class="fil6" d="M12355.55 9316.75c-5.33,57.06 -409.32,95.85 -803.42,37.28 -640.61,-95.1 -1165.57,-433.29 -1140.46,-500.62 12.17,-30.89 408.56,61.93 1201.32,248.71 637.56,150.19 745.6,184.57 742.56,214.63z"/>
   <path class="fil1" d="M7320.48 8313.08c-13.69,-17.27 -329.43,-430.62 -419.96,-1109.11 -82.94,-620.83 16.73,-1591.02 957.87,-2687.35l194 166.32c-702.99,817.95 -1005.8,1650.35 -900.8,2474.01 78.36,614.36 367.47,996.05 370.51,999.79l-201.62 156.34z"/>
   <path class="fil4" d="M8705.17 4614.01c-133.15,299.83 -483.89,434.88 -783.64,301.58 -299.76,-133.22 -435.19,-484.33 -302.04,-784.09 133.89,-299.76 484.63,-434.8 784.4,-301.58 299.75,133.22 435.18,484.32 301.28,784.09z"/>
   <path class="fil6" d="M7840.88 4117.82c-41.84,171.1 63.15,343.5 234.34,384.96 171.18,41.62 343.88,-63.37 384.96,-234.4 41.85,-171.11 -63.14,-343.51 -234.33,-385.05 -171.18,-41.61 -343.13,63.38 -384.97,234.49z"/>
   <path class="fil4" d="M11103.25 13667.7c-400.18,-85.82 -671.04,-345.41 -842.98,-642.58 -309.66,-532.8 -304.33,-1186.73 -171.94,-1172.73 206.94,22.3 619.3,453.22 1163.28,569.85 625.38,134.14 1097.85,11.65 1423.48,62.77 14.46,1.98 28.91,4.64 42.6,7.61 326.39,69.99 -384.97,1438.54 -1614.44,1175.08z"/>
   <path class="fil5" d="M11103.25 13667.7c-400.18,-85.82 -671.04,-345.41 -842.98,-642.58 564.52,19.24 1690.53,-17.2 2414.82,-540.11 14.46,1.98 28.91,4.64 42.6,7.61 326.39,69.99 -384.97,1438.54 -1614.44,1175.08z"/>
   <path class="fil7" d="M8848.2 9928.21c69.99,-76.38 157.49,-132 249.55,-178.64 92.06,-45.42 191.72,-78.52 293.67,-100.04 203.9,-42.31 420.73,-36.07 624.63,16.13 203.9,52.26 394.86,148.05 555.39,276.02 160.53,128.19 295.96,282.87 384.97,467.14 -185.63,-85.75 -351.49,-174.07 -519.63,-247.12 -166.62,-75.01 -333.24,-134.13 -502.14,-178.25 -168.9,-43.29 -341.6,-69.31 -521.16,-77.83 -179.55,-8.6 -364.43,-1.75 -565.28,22.59z"/>
   <path class="fil7" d="M12672.05 10761.69c66.95,-78.9 152.92,-137.63 242.69,-187.61 90.55,-48.84 188.69,-85.44 289.88,-110.7 202.37,-49.76 419.2,-51.28 624.63,-6.62 206.18,44.74 400.19,133.6 565.28,255.56 165.09,122.26 305.85,271.91 401.7,452.83 -187.91,-78.9 -357.57,-161.14 -528,-228.02 -169.66,-68.92 -337.8,-121.95 -508.22,-159.84 -171.19,-37.13 -343.89,-56.83 -524.2,-58.81 -179.55,-2.06 -363.67,11.57 -563.76,43.21z"/>
   <path class="fil8" d="M4478.85 8445.93c-58.58,0 -112.61,-34.47 -135.43,-91.22 -7.61,-18.49 -763.86,-1866.96 -2079.3,-3173.51 -57.06,-56.67 -57.82,-149.04 -0.76,-206.18 57.06,-57.13 149.12,-57.43 206.18,-0.68 1358.81,1349.83 2112.78,3193.36 2143.98,3271.19 30.43,74.64 -6.1,159.55 -80.66,189.75 -18.25,7.22 -36.51,10.65 -54.01,10.65z"/>
   <path class="fil9" d="M5960.91 6600.19c-75.32,0 -139.23,-58.06 -145.31,-134.59 -1.53,-19.86 -164.34,-2010.3 -1024.06,-3652.82 -37.28,-71.37 -9.89,-159.47 61.63,-196.82 71.52,-37.36 159.01,-9.81 197.05,61.55 887.87,1696.92 1049.92,3681.96 1056.77,3765.64 6.08,80.27 -54.02,150.42 -134.66,156.58 -3.81,0.31 -7.61,0.46 -11.42,0.46z"/>
   <path class="fil9" d="M17904.16 10049.27c-44.13,0 -86.74,-19.32 -115.64,-56.3 -49.46,-63.53 -38.05,-155.13 25.1,-204.59 66.96,-51.51 1643.36,-1268.19 3495.94,-1754.13 78.36,-20.46 158.25,26.1 178.03,104 20.54,77.92 -25.86,157.64 -103.47,178.04 -1793.24,470.41 -3374.97,1689.99 -3390.94,1702.24 -26.64,20.69 -57.82,30.74 -89.02,30.74z"/>
   <path class="fil8" d="M17546.58 7708.76c-28.15,0 -57.06,-8.36 -82.17,-25.79 -66.19,-45.64 -82.93,-136.33 -37.28,-202.67 47.17,-69.16 1183.07,-1704.99 2802.84,-2727.29 68.47,-42.99 158.24,-22.68 201.61,45.42 42.61,68.09 22.07,158.17 -45.65,201.16 -1568.04,989.59 -2707.74,2629.52 -2719.14,2645.96 -28.16,41.08 -73.8,63.21 -120.21,63.21z"/>
   <polygon class="fil10" points="10026.7,5911.96 9697.27,4713.06 9978,4635.76 10307.44,5834.75 "/>
   <polygon class="fil10" points="18015.24,16287.56 17724.61,16258.48 17848.62,15021.32 18139.25,15050.39 "/>
   <polygon class="fil10" points="13486.89,10035.64 13251.02,9864.24 13981.41,8858.36 14218.02,9029.84 "/>
   <polygon class="fil10" points="4828.06,14080.67 4592.21,13909.24 5323.35,12903.45 5558.44,13074.87 "/>
   <polygon class="fil11" points="17837.97,4937.13 17572.45,4817.53 18025.89,3808.38 18291.42,3927.91 "/>
   <polygon class="fil11" points="19304.83,12836.57 19038.53,12716.98 19491.98,11707.76 19758.26,11827.35 "/>
   <polygon class="fil11" points="6309.36,8457.41 5680.17,7546.94 5920.59,7381.16 6549.02,8291.7 "/>
   <polygon class="fil11" points="7598.94,15627.16 6970.51,14716.7 7210.17,14550.99 7839.36,15461.46 "/>
   <polygon class="fil12" points="15745.73,6727.02 15362.28,5311.98 15643.78,5235.67 16027.23,6650.78 "/>
   <polygon class="fil12" points="15938.22,14788.6 15554.01,13373.57 15835.52,13297.25 16219.72,14712.29 "/>
   <polygon class="fil12" points="11647.99,5613.58 11375.62,5508.19 11905.91,4141.16 12177.52,4246.53 "/>
   <polygon class="fil12" points="4581.56,12925.52 4309.19,12820.14 4838.71,11453.03 5111.09,11558.41 "/>
  </g>
 </g>
</svg>
