<?xml version="1.0" encoding="UTF-8"?>
<!DOCTYPE svg PUBLIC "-//W3C//DTD SVG 1.0//EN" "http://www.w3.org/TR/2001/REC-SVG-20010904/DTD/svg10.dtd">
<!-- Creator: CorelDRAW -->
<svg xmlns="http://www.w3.org/2000/svg" xml:space="preserve" width="218.612mm" height="261.392mm" version="1.0" style="shape-rendering:geometricPrecision; text-rendering:geometricPrecision; image-rendering:optimizeQuality; fill-rule:evenodd; clip-rule:evenodd"
viewBox="0 0 21855.34 26132.15"
 xmlns:xlink="http://www.w3.org/1999/xlink"
 xmlns:xodm="http://www.corel.com/coreldraw/odm/2003">
 <defs>
  <style type="text/css">
   <![CDATA[
    .fil0 {fill:none}
    .fil4 {fill:#294F81;fill-rule:nonzero}
    .fil9 {fill:#296ABD;fill-rule:nonzero}
    .fil8 {fill:#2F4572;fill-rule:nonzero}
    .fil5 {fill:#33487A;fill-rule:nonzero}
    .fil6 {fill:#393760;fill-rule:nonzero}
    .fil7 {fill:#46AED2;fill-rule:nonzero}
    .fil2 {fill:#5FAEDE;fill-rule:nonzero}
    .fil1 {fill:#5FBBE8;fill-rule:nonzero}
    .fil3 {fill:#B1ECED;fill-rule:nonzero}
   ]]>
  </style>
 </defs>
 <g id="Camada_x0020_1">
  <metadata id="CorelCorpID_0Corel-Layer"/>
  <rect class="fil0" width="21855.34" height="26132.15"/>
  <g id="_1533996932128">
   <path class="fil1" d="M5465.27 14990.45c562.17,163.77 429.44,822.6 -34.38,1691.07 -553.95,1037.47 -2356.75,2448.55 -3702.78,2051.21 -0.4,0 -0.4,0 -0.4,0 -122.65,-36.43 -241.13,-87.4 -354.95,-155.32 -1362.53,-812.7 2729.05,-3488.01 3379.74,-3591.83 308.2,-49.52 542.39,-44.88 712.77,4.87z"/>
   <path class="fil2" d="M5465.27 14990.45c562.17,163.77 429.44,822.6 -34.38,1691.07 -553.95,1037.47 -2356.75,2448.55 -3702.78,2051.21 1203.5,-399.16 3156.28,-1395.19 3737.16,-3742.28z"/>
   <path class="fil3" d="M2013.85 17193.78c290.17,-235.71 806.54,-580.49 894.93,-486.48 90.29,95.76 -263.4,651.62 -753.92,1014.27 -334.81,247.58 -794.95,450.9 -865.51,358.7 -79.87,-104.73 346.11,-578.74 724.5,-886.49z"/>
   <path class="fil1" d="M15449.25 16647.75c0,2381.09 -1670.52,5178.18 -4324.67,5178.18 -1644.74,0 -2998.25,-1007.08 -3789.35,-2353.13 -486.56,-826.55 -760.92,-1780.96 -760.92,-2708.83 0,-2439.58 2662.52,-2323.28 4349.84,-2323.28 1850.56,0 4047.37,-141.78 4456.95,1581.46 44.88,185.97 68.15,393.61 68.15,625.6z"/>
   <path class="fil2" d="M15449.25 16647.75c0,2381.09 -1670.52,5178.18 -4324.67,5178.18 -1644.74,0 -2998.25,-1007.08 -3789.35,-2353.13 1648.31,775.71 6343.64,2382.92 8045.87,-3450.66 44.88,185.97 68.15,393.61 68.15,625.6z"/>
   <path class="fil3" d="M7493.27 15817.93c-344.71,562.23 -100.92,1362.24 491.13,1676.37 625.75,332.01 1477.1,34.38 1709.78,-625.59 220.95,-626.74 -204.84,-1329.32 -815.08,-1526.55 -489.37,-157.9 -1099.16,8.45 -1385.83,475.77z"/>
   <path class="fil1" d="M20331.98 16785.11c533.5,955.86 653.51,1660.71 -148.69,1730.7 -137.75,11.87 -302.8,5.17 -497.52,-21.98 -652.76,-91.96 -4793.6,-2689.74 -3446.41,-3528.24 348.21,-216.61 747.83,-274.42 1160.16,-222.09 1183.05,150.98 2469.02,1210.67 2932.45,2041.62z"/>
   <path class="fil2" d="M20331.98 16785.11c533.5,955.86 653.51,1660.71 -148.69,1730.7 -91.81,-617.77 -591,-1873.31 -2783.76,-3772.32 1183.05,150.98 2469.02,1210.67 2932.45,2041.62z"/>
   <path class="fil3" d="M17692.29 16519.89c598.37,436.43 1576.51,1233.78 1497.87,1347.8 -70.81,102.6 -1011,-336.42 -1785.3,-1027.66 -431.42,-384.94 -856.22,-888.77 -793.24,-961.03 78.26,-90.28 894.47,505.27 1080.67,640.9z"/>
   <path class="fil1" d="M5252.44 10256.5c-180.03,-129.24 -329.57,-288.04 -444.27,-465.96 -264.16,-408.37 -346.99,-915.61 -205.07,-1387.96 144.14,-479.18 502.01,-862.46 960.58,-1054.21 129.46,-54.69 267.35,-94.01 410.88,-115.38 633.13,1809.04 -722.13,3023.5 -722.13,3023.5z"/>
   <path class="fil2" d="M5252.44 10256.5c-180.03,-129.24 -329.57,-288.04 -444.27,-465.96 135.46,-363.19 268.27,-748.21 394.91,-1153.69 139.56,-447.08 258.68,-877.74 360.6,-1288.47 129.46,-54.69 267.35,-94.01 410.88,-115.38 -240.73,1007.66 -481.39,2015.62 -722.13,3023.5z"/>
   <path class="fil1" d="M14765.77 10617.48c215.7,2355.68 -4994.77,4004.23 -7723.24,3008.74 -758.09,-276.48 -1324.51,-757.8 -1529.88,-1484.02 -944.61,-3340.44 795.3,-6828.22 3384.33,-7255.08 938.51,-154.48 2099.81,23.12 3143.52,668.42 1337.68,826.02 2483.61,2418.74 2725.27,5061.93z"/>
   <path class="fil1" d="M4832.89 8654.5c-20.69,-7.23 -511.73,-178.66 -959.81,-695.88 -410.05,-473.39 -860.1,-1338.21 -675.5,-2771.28l253.05 32.71c-137.74,1069.26 66.25,1930.8 606.44,2561.27 402.89,470.05 853.93,630.24 858.42,631.69l-82.6 241.49z"/>
   <path class="fil4" d="M3958.57 4803.54c53.33,323.63 -165.82,629.32 -489.37,682.57 -323.64,53.48 -629.26,-165.74 -682.57,-489.38 -53.33,-323.63 165.74,-629.02 489.37,-682.57 323.64,-53.17 629.25,166.04 682.57,489.38z"/>
   <path class="fil4" d="M13041.84 8789.59c76.98,467.08 -388.37,839.33 -1021.12,1119 -666.52,295.04 -1518.63,487.33 -2118.6,580.42 -858.96,133.03 -2537.62,256.86 -3223.69,-188.26 -160.87,-104.42 -267.13,-240.05 -295.65,-413.84 -83.45,-505.88 51.8,-998.68 338.01,-1386.82 286.22,-387.61 723.5,-670.17 1243.83,-756.05l2891.37 -476.37c604.85,-99.71 1188.84,88.84 1604.29,462.76 299.67,269.86 511.73,635.72 581.55,1059.16z"/>
   <path class="fil5" d="M13041.84 8789.59c76.98,467.08 -388.37,839.33 -1021.12,1119 -666.52,295.04 -1518.63,487.33 -2118.6,580.42 -858.96,133.03 -2537.62,256.86 -3223.69,-188.26 1690.23,-331.16 4531.79,-1085.46 5781.85,-2570.32 299.67,269.86 511.73,635.72 581.55,1059.16z"/>
   <path class="fil2" d="M14765.77 10617.48c215.7,2355.68 -4994.77,4004.23 -7723.24,3008.74 1567.09,1.75 6199.43,-190.61 6655.95,-2513.06 392.55,-1997.05 -889.83,-4364.07 -1657.98,-5557.62 1337.68,826.02 2483.61,2418.74 2725.27,5061.93z"/>
   <path class="fil3" d="M6291.28 7669.43c167.94,159.36 953.19,-361.21 1453.68,-874.32 479.64,-491.43 932.51,-1217.05 780,-1376.09 -135.38,-141.17 -724.33,189.16 -1083.63,463.28 -804.43,613.75 -1332.98,1613.87 -1150.05,1787.13z"/>
   <path class="fil3" d="M5652.45 11495.53c122.68,618.68 599.96,1146.47 746.99,1080.82 154.4,-68.83 -33.62,-800.84 -175.32,-1196.81 -40.61,-113.64 -289.4,-808.91 -456.52,-778.26 -131.5,23.96 -194.64,493.72 -115.15,894.25z"/>
   <path class="fil6" d="M12385.75 8493.17c76.67,464.74 -238.08,903.76 -702.88,980.43 -359.31,59.02 -702.88,-115.08 -875.93,-411.87 -50.88,-87.32 -87.17,-185.36 -104.58,-290.93 -76.59,-465.04 238.08,-903.83 703.19,-980.5 342.12,-56.36 671.23,97.5 850.73,368.74 64.81,97.51 109.3,211.44 129.47,334.13z"/>
   <path class="fil7" d="M11545.2 7633c-54.39,0 -109.3,4.64 -163.38,13.32 -263.33,43.05 -494.02,185.66 -649.49,400.83 -155.47,215.48 -217.23,477.82 -173.8,739.24 19.85,120.02 61.08,233.97 122.54,338.7 178.13,303.63 508.39,492.26 861.85,492.26 54.46,0 109.53,-4.63 163.68,-13.31 543.38,-89.07 912.59,-600.42 822.99,-1140.15 -23.13,-139.64 -74.62,-269.78 -153.12,-386.62 -185.05,-278 -495.92,-444.27 -831.27,-444.27l0 0zm-1.14 144.59c289.63,0 556.23,147.25 711.09,380.08 64.88,96.59 110.44,207.95 130.6,329.65 76.67,461.61 -238.08,897.75 -702.88,973.88 -47.01,7.46 -93.78,11.26 -139.95,11.26 -306.38,0 -583.31,-152.43 -733.68,-408.68 -50.97,-86.78 -89.46,-195.85 -106.87,-300.81 -76.59,-461.55 238.08,-897.45 703.19,-973.81 46.93,-7.54 92.49,-11.57 138.5,-11.57l0 0z"/>
   <path class="fil8" d="M12255.9 8158.51c-189.01,811.26 -973.81,918.28 -1446.67,905.27 -51.2,-87.08 -87.86,-184.82 -105.65,-290.69 -78.12,-464.52 235.11,-904.38 699.91,-982.49 341.97,-57.5 671.92,97.2 852.41,367.91z"/>
   <path class="fil3" d="M11461.3 8358.63c25.48,154.18 -79.03,299.98 -233.28,325.38 -154.33,25.48 -300.06,-78.95 -325.46,-233.35 -25.4,-154.18 79.1,-299.99 233.36,-325.39 154.32,-25.47 299.98,78.95 325.38,233.36z"/>
   <path class="fil3" d="M12231.03 8686.6c50.82,23.2 36.9,326.52 -152.95,473.17 -168.62,130.15 -425.95,97.5 -440.55,44.57 -10.73,-39.09 114.63,-70.88 306,-234.57 201.41,-172.35 252.21,-299.37 287.5,-283.17z"/>
   <path class="fil6" d="M8652.14 9108.36c76.67,464.74 -238.08,903.76 -702.88,980.43 -359.23,59.25 -702.88,-115.15 -875.92,-411.87 -50.89,-87.32 -87.17,-185.36 -104.58,-290.93 -76.59,-464.82 238.07,-903.84 703.18,-980.51 342.13,-56.36 670.1,99.26 849.6,370.8 64.87,97.51 110.44,209.39 130.59,332.08z"/>
   <path class="fil7" d="M7811.6 8248.19c-54.4,0 -109.3,4.56 -163.38,13.54 -543.54,89.68 -912.82,604.54 -823.29,1147.99 19.85,120.56 61.07,235.41 122.53,340.67 178.13,305.69 508.47,495.77 861.93,495.77 54.47,0 109.52,-4.64 163.61,-13.62 263.24,-43.43 493.79,-186.58 649.26,-403.5 155.39,-216.62 217.16,-481 173.79,-744.48 -23.19,-140.26 -74.68,-271.24 -153.18,-388.98 -185.06,-279.98 -495.92,-447.39 -831.27,-447.39l0 0zm-1.14 145.43c289.71,0 556.22,148.39 711.09,382.66 64.87,97.51 110.44,209.39 130.59,332.08 76.67,464.74 -238.08,903.76 -702.88,980.43 -47,7.53 -93.77,11.26 -139.87,11.26 -306.46,0 -585.66,-165.14 -736.04,-423.13 -50.89,-87.32 -87.17,-185.36 -104.58,-290.93 -76.59,-464.82 238.07,-903.84 703.18,-980.51 46.93,-7.76 92.42,-11.86 138.51,-11.86l0 0z"/>
   <path class="fil8" d="M8520.56 8774.83c-189.01,811.26 -972.06,917.14 -1444.93,904.37 -51.19,-87.32 -87.85,-185.05 -105.64,-290.93 -78.12,-464.51 235.11,-904.37 699.98,-982.48 341.9,-57.5 670.18,98.04 850.59,369.04z"/>
   <path class="fil3" d="M7727.7 8973.8c25.48,154.18 -79.03,299.99 -233.36,325.39 -154.25,25.47 -299.99,-78.96 -325.38,-233.36 -25.41,-154.18 79.02,-299.99 233.35,-325.46 154.33,-25.41 299.99,79.03 325.39,233.43z"/>
   <path class="fil3" d="M8497.43 9301.79c50.81,23.19 36.89,326.52 -152.96,473.17 -168.69,130.14 -425.94,97.5 -440.54,44.57 -10.73,-39.09 114.62,-70.88 305.99,-234.58 201.41,-172.35 252.22,-299.37 287.51,-283.16z"/>
   <path class="fil9" d="M9692.5 7656.13c17.42,54.69 -339.08,248.71 -724.87,349.35 -625.82,163.46 -1241.31,58.19 -1244.35,-13.84 -1.45,-33.02 399.77,-102.99 1202.22,-241.81 644.69,-111.66 757.87,-122.31 766.99,-93.7z"/>
   <path class="fil9" d="M2963.78 4864.01c59.17,165.66 241.57,252.22 407.3,192.89 165.74,-59.25 252.06,-241.5 192.89,-407.53 -59.24,-165.66 -241.64,-251.91 -407.38,-192.59 -165.66,59.02 -252.06,241.5 -192.81,407.23z"/>
   <path class="fil4" d="M10556.56 12557.8c-355.96,80.16 -676.12,-49.98 -932.51,-252.98 -460.17,-363.87 -715.13,-962.85 -602.79,-1002.79 174.94,-61.3 676.87,169.23 1160.7,60.47 555.92,-124.97 886.79,-423.44 1168.6,-505.58 12.55,-3.73 24.79,-6.92 37.19,-9.81 290.17,-65.11 261.05,1465.47 -831.19,1710.69z"/>
   <path class="fil5" d="M10556.56 12557.8c-355.96,80.16 -676.12,-49.98 -932.51,-252.98 461.54,-205.67 1351.91,-684.02 1726.51,-1447.9 12.55,-3.73 24.79,-6.92 37.19,-9.81 290.17,-65.11 261.05,1465.47 -831.19,1710.69z"/>
  </g>
 </g>
</svg>
