<?xml version="1.0" encoding="UTF-8"?>
<!DOCTYPE svg PUBLIC "-//W3C//DTD SVG 1.0//EN" "http://www.w3.org/TR/2001/REC-SVG-20010904/DTD/svg10.dtd">
<!-- Creator: CorelDRAW -->
<svg xmlns="http://www.w3.org/2000/svg" xml:space="preserve" width="218.612mm" height="261.392mm" version="1.0" style="shape-rendering:geometricPrecision; text-rendering:geometricPrecision; image-rendering:optimizeQuality; fill-rule:evenodd; clip-rule:evenodd"
viewBox="0 0 21861.2 26139.16"
 xmlns:xlink="http://www.w3.org/1999/xlink"
 xmlns:xodm="http://www.corel.com/coreldraw/odm/2003">
 <defs>
  <style type="text/css">
   <![CDATA[
    .fil0 {fill:none}
    .fil4 {fill:#193669;fill-rule:nonzero}
    .fil9 {fill:#194FB6;fill-rule:nonzero}
    .fil8 {fill:#1D2E58;fill-rule:nonzero}
    .fil5 {fill:#203060;fill-rule:nonzero}
    .fil6 {fill:#242345;fill-rule:nonzero}
    .fil7 {fill:#2EA4CF;fill-rule:nonzero}
    .fil2 {fill:#44A4DC;fill-rule:nonzero}
    .fil1 {fill:#44B4E7;fill-rule:nonzero}
    .fil13 {fill:#5D8AAE;fill-rule:nonzero}
    .fil10 {fill:#90B9D7;fill-rule:nonzero}
    .fil3 {fill:#A8EBED;fill-rule:nonzero}
    .fil12 {fill:#FFAB3B;fill-rule:nonzero}
    .fil11 {fill:#FFDF52;fill-rule:nonzero}
    .fil14 {fill:#FFF071;fill-rule:nonzero}
    .fil15 {fill:#FFFFB0;fill-rule:nonzero}
   ]]>
  </style>
 </defs>
 <g id="Camada_x0020_1">
  <metadata id="CorelCorpID_0Corel-Layer"/>
  <rect class="fil0" width="21861.2" height="26139.16"/>
  <g id="_1533989900560">
   <path class="fil1" d="M6685.59 18586.89c496.44,310.94 188.92,908.86 -494.37,1618.24 -816.13,847.1 -2935.83,1713.51 -4122.85,963.81 -0.23,-0.08 -0.23,-0.08 -0.23,-0.08 -108.27,-68.4 -208.31,-149.8 -299.46,-246.13 -1089.48,-1153.92 3577.73,-2612.4 4232.4,-2534.95 309.89,36.67 534.1,104.76 684.5,199.11l0.01 0z"/>
   <path class="fil2" d="M6685.59 18586.89c496.44,310.94 188.92,908.86 -494.37,1618.24 -816.13,847.1 -2935.83,1713.51 -4122.85,963.81 1266.82,-55.7 3418.1,-481.75 4617.21,-2582.05l0.01 0z"/>
   <path class="fil3" d="M2763 19765.99c343.66,-147.82 934.73,-338.63 994,-224.13 60.79,116.86 -431.3,555.24 -1002.15,770.55 -389.91,147.06 -888.09,217.21 -930.92,109.03 -48.31,-122.49 490.95,-462.65 939.07,-655.45z"/>
   <path class="fil1" d="M16627.9 20471.42c0,2381.8 -1670.97,5179.62 -4325.91,5179.62 -1645.18,0 -2999.12,-1007.24 -3790.37,-2353.81 -486.61,-826.77 -761.12,-1781.44 -761.12,-2709.56 0,-2440.15 2663.31,-2323.9 4351.02,-2323.9 1850.99,0 4048.46,-141.74 4458.15,1582.11 44.81,185.87 68.24,393.72 68.24,625.54l-0.01 0z"/>
   <path class="fil2" d="M16627.9 20471.42c0,2381.8 -1670.97,5179.62 -4325.91,5179.62 -1645.18,0 -2999.12,-1007.24 -3790.37,-2353.81 1648.69,776.11 6345.49,2383.71 8048.04,-3451.36 44.81,185.87 68.24,393.72 68.24,625.54l0 0.01z"/>
   <path class="fil3" d="M8669.88 19641.62c-344.8,562.31 -100.97,1362.53 491.25,1676.67 625.69,332.1 1477.43,34.39 1710,-625.69 221.03,-626.99 -204.81,-1329.75 -815.21,-1526.88 -489.51,-158.09 -1099.29,8.37 -1386.04,475.9z"/>
   <path class="fil1" d="M18756.97 16836.63c-706.87,836.06 -1324.52,1196.61 -1672.57,470.19 -59.58,-124.78 -111.7,-281.73 -154.45,-473.61 -143.79,-643.49 830.27,-5434.94 2089.5,-4468.94 325.62,249.77 520.4,603.55 616.25,1008.01 275.42,1160.76 -264,2737.86 -878.73,3464.35z"/>
   <path class="fil2" d="M18756.97 16836.63c-706.87,836.06 -1324.52,1196.61 -1672.57,470.19 546.18,-303.57 1545.51,-1212.96 2551.3,-3934.54 275.42,1160.76 -264,2737.86 -878.73,3464.35z"/>
   <path class="fil3" d="M18076.13 14271.79c-197.89,713.95 -599.98,1910.41 -734.27,1876.93 -121.19,-30.13 -41.31,-1064.91 333.32,-2033.28 208.61,-539.49 530.59,-1114.59 620.59,-1081.12 112,41.61 -158.02,1015.38 -219.64,1237.46l0 0.01z"/>
   <path class="fil1" d="M6656.92 13560.66c-167.16,-145.47 -301.14,-317.79 -398.59,-505.78 -224.83,-431.31 -259.82,-944.41 -74.11,-1401.35 188.6,-463.64 580.96,-811.71 1055.63,-959.76 133.98,-42.23 275.18,-68.48 420.12,-76.32 460.52,1861.18 -1003.05,2943.21 -1003.05,2943.21z"/>
   <path class="fil2" d="M6656.92 13560.66c-167.16,-145.47 -301.14,-317.79 -398.59,-505.78 168.9,-349.07 337.34,-719.74 501.6,-1111.78 180.84,-432.07 339.93,-849.68 479.92,-1249.33 133.98,-42.23 275.18,-68.48 420.12,-76.32 -334.45,981.08 -668.6,1962.14 -1003.05,2943.21z"/>
   <path class="fil1" d="M16097.01 14813.1c-6.32,2366.13 -5349.96,3518.92 -7973.63,2271.33 -729.01,-346.62 -1248.03,-878.73 -1384.29,-1621.37 -627.14,-3415.36 1432.91,-6725.44 4051.33,-6907.27 948.96,-65.96 2088.73,219.95 3067.75,960.6 1254.42,948.05 2246.14,2641.86 2238.84,5296.71z"/>
   <path class="fil4" d="M14551.57 12831.03c33.02,472.39 -465.47,799.31 -1121.82,1018.5 -691.43,231.14 -1557.92,342.82 -2164.28,379.12 -867.86,51.88 -2551.01,17.5 -3192.68,-490.05 -150.49,-118.91 -243.31,-264.15 -255.48,-439.74 -35.61,-511.73 145.24,-989.75 466.68,-1349.38 321.37,-359.26 783.41,-599.6 1309.67,-636.12l2924.18 -203.14c611.54,-42.53 1175.46,200.02 1554.12,611.54 273.13,296.73 450.17,680.86 479.61,1109.27z"/>
   <path class="fil5" d="M14551.57 12831.03c33.02,472.39 -465.47,799.31 -1121.82,1018.5 -691.43,231.14 -1557.92,342.82 -2164.28,379.12 -867.86,51.88 -2551.01,17.5 -3192.68,-490.05 1714.34,-171.03 4614.86,-655.66 5999.17,-2016.84 273.13,296.73 450.17,680.86 479.61,1109.27z"/>
   <path class="fil2" d="M16097.01 14813.1c-6.32,2366.13 -5349.96,3518.92 -7973.63,2271.33 1560.2,148.82 6191.58,392.05 6864.21,-1877.83 578.31,-1951.95 -476.49,-4429.62 -1129.42,-5690.22 1254.42,948.05 2246.14,2641.86 2238.84,5296.71l0 0.01z"/>
   <path class="fil3" d="M7934.25 11081.92c152.46,174.31 983.27,-270.4 1529.76,-734.19 523.9,-444.62 1042.93,-1124.48 906.05,-1297.25 -121.73,-153.31 -739.12,120.2 -1122.73,359.55 -858.65,535.61 -1478.87,1482.07 -1313.08,1671.89z"/>
   <path class="fil3" d="M6939.02 14832.28c63.91,627.45 489.82,1197.83 642.51,1146.25 160.31,-54.02 41.69,-800.61 -62.46,-1208.25 -29.83,-117.01 -212.04,-832.87 -381.62,-817.95 -133.08,11.64 -240.12,473.45 -198.43,879.95z"/>
   <path class="fil6" d="M13926.18 12474.3c32.64,470.02 -322.05,877.52 -791.85,910.23 -363.37,25.18 -689.37,-180.54 -833.78,-492.32 -42.53,-91.76 -69.38,-192.71 -76.92,-299.68 -32.71,-470.04 321.98,-877.6 792.39,-910.24 346.02,-24.05 657.87,161.75 811.18,448.95 55.54,103.02 90.31,219.04 98.98,343.06z"/>
   <path class="fil7" d="M13075.91 11534.38l0 0c-23.13,0 -46.87,0.84 -70,2.43 -266.44,18.49 -509.44,139.53 -684.73,340.85 -175.06,201.3 -261.57,458.69 -243.08,724.98 8.75,122.19 38.8,240.18 90.31,350.81 162.81,351.72 518.41,578.9 905.74,578.9 23.21,0 46.87,-0.76 70.31,-2.43 266.2,-18.5 509.21,-139.54 684.2,-340.85 175.28,-201.24 261.56,-458.69 243,-724.9 -9.81,-142.12 -48.85,-277.39 -115.95,-402.02 -173.62,-325.4 -510.96,-527.77 -879.8,-527.77l0 0zm-0.85 145.62c321.67,0 607.81,180.76 752.14,451.23 55.54,103.02 90.31,219.04 98.98,343.06 32.64,470.02 -322.05,877.52 -791.85,910.23 -20.24,1.37 -40.18,2.06 -60.19,2.06 -339.01,0 -637.02,-199.87 -773.59,-494.38 -42.53,-91.76 -69.38,-192.71 -76.92,-299.68 -32.71,-470.04 321.98,-877.6 792.39,-910.24 19.93,-1.45 39.03,-2.28 59.04,-2.28l0 0z"/>
   <path class="fil8" d="M13826.37 12129.64c-264.46,790.25 -1053.96,822.05 -1523.76,764.93 -42.84,-91.6 -70,-192.41 -77.83,-299.38 -34.4,-469.96 318.78,-878.66 789.19,-912.9 346.01,-25.19 658.18,160.68 812.4,447.36l0 -0.01z"/>
   <path class="fil3" d="M13018.31 12253.43c10.72,156.04 -106.98,291.32 -262.95,302.19 -156.18,10.81 -291.31,-106.89 -302.34,-262.93 -10.66,-156.04 107.05,-291.32 263.01,-302.19 156.2,-10.81 291.32,106.88 302.28,262.93z"/>
   <path class="fil3" d="M13754.01 12652.24c48.31,27.92 6.09,328.75 -196.67,456.79 -180.23,113.82 -433.36,57.22 -442.95,3.12 -6.92,-39.79 120.59,-59.72 326.62,-204.89 216.68,-152.69 279.14,-274.42 313,-255.02z"/>
   <path class="fil6" d="M10150.26 12736.47c32.64,470.03 -321.74,877.6 -791.85,910.24 -363.36,25.26 -689.37,-180.54 -833.77,-492.32 -42.53,-91.76 -69.39,-192.64 -76.92,-299.69 -32.41,-470.02 321.98,-877.52 792.39,-910.23 346.01,-24.05 658.17,161.82 811.48,448.95 55.23,103.09 90.23,219.04 98.67,343.05z"/>
   <path class="fil7" d="M9300.28 11796.63l0 0c-23.43,0 -46.86,0.76 -70.29,2.43 -266.21,18.49 -509.52,139.54 -684.51,340.77 -175.29,201.31 -261.49,458.77 -243,724.98 8.37,122.19 38.8,240.19 90.01,350.89 162.81,351.64 518.41,578.9 905.74,578.9 23.13,0 46.87,-0.84 70.3,-2.44 549.39,-38.19 965.39,-516.28 927.2,-1065.82 -9.81,-142.11 -48.84,-277.32 -115.95,-402.01 -173.61,-325.32 -510.65,-527.7 -879.5,-527.7l0 0zm1.15 145.54c321.67,0 605.53,180.77 750.16,451.24 55.23,103.09 90.23,219.04 98.67,343.05 32.64,470.03 -321.74,877.6 -791.85,910.24 -20.23,1.44 -40.17,2.05 -60.18,2.05 -338.79,0 -637.03,-199.79 -773.59,-494.37 -42.53,-91.76 -69.39,-192.64 -76.92,-299.69 -32.41,-470.02 321.98,-877.52 792.39,-910.23 20.23,-1.37 41.38,-2.29 61.32,-2.29l0 0z"/>
   <path class="fil8" d="M10051.59 12393.41c-264.46,790.26 -1055.1,820.46 -1524.9,763.4 -42.83,-91.68 -69.99,-192.49 -77.83,-299.38 -34.16,-470.03 319.08,-878.66 789.19,-912.97 346.02,-25.19 659.02,162.35 813.54,448.95z"/>
   <path class="fil3" d="M9242.39 12515.69c10.72,155.96 -106.97,291.31 -262.94,302.12 -155.97,10.8 -291.32,-106.9 -302.04,-262.95 -11.03,-156.04 106.74,-291.31 262.7,-302.19 156.2,-10.8 291.32,106.97 302.28,263.02z"/>
   <path class="fil3" d="M9978.09 12914.5c48.31,27.84 6.09,328.74 -196.66,456.71 -180.32,113.89 -433.45,57.29 -442.95,3.12 -6.92,-39.79 120.59,-59.73 326.61,-204.81 216.99,-152.77 279.45,-274.43 313,-255.02z"/>
   <path class="fil9" d="M11322.77 11387.92c12.17,56 -361.01,215.76 -754.81,279.75 -638.47,103.93 -1241.65,-58.66 -1237.84,-130.55 1.67,-32.95 407.87,-65.06 1219.96,-127.97 652.63,-50.6 766.3,-50.75 772.69,-21.23z"/>
   <path class="fil1" d="M6220.36 11961.8c-17.88,-12.32 -444.62,-310.03 -736.77,-929.02 -267.65,-566.36 -468.13,-1520.72 96.02,-2851.38l234.94 99.58c-420.96,992.79 -456.57,1877.92 -106.22,2630.68 261.57,561.48 652.94,837.27 656.74,839.94l-144.71 210.21 0 -0.01z"/>
   <path class="fil4" d="M6415.97 8016.83c-35.91,326.08 -329.21,561.41 -655.29,525.57 -326.31,-35.75 -561.48,-329.2 -525.65,-655.36 35.91,-326.08 329.28,-561.41 655.29,-525.57 326.32,35.84 561.56,329.2 525.65,655.36z"/>
   <path class="fil9" d="M5441.36 7806.85c12.4,175.59 164.87,307.9 340.47,295.5 175.59,-12.32 308.12,-164.72 295.65,-340.39 -12.4,-175.6 -164.87,-307.9 -340.46,-295.57 -175.68,12.4 -307.83,164.79 -295.66,340.46z"/>
   <path class="fil4" d="M11419.68 16320.06c-407.64,39.93 -744.07,-125.23 -998.64,-355.92 -457.09,-413.42 -650.65,-1038.05 -519.94,-1065.14 203.75,-41.53 727.34,243.77 1281.36,189.45 636.73,-62.39 1049.54,-322.51 1375.02,-372.72 14.76,-2.59 28.61,-4.26 42.84,-5.71 332.39,-32.56 70.52,1487.47 -1180.64,1610.04z"/>
   <path class="fil5" d="M11419.68 16320.06c-407.64,39.93 -744.07,-125.23 -998.64,-355.92 543.83,-153.3 1605.62,-530.2 2136.44,-1248.41 14.76,-2.59 28.61,-4.26 42.84,-5.71 332.39,-32.56 70.52,1487.47 -1180.64,1610.04z"/>
   <path class="fil10" d="M15868.77 8756.12l-985.94 -290.25c-138.25,-40.71 -217.52,-185.87 -176.74,-324.11l414.88 -1408.95c40.47,-138.32 185.71,-217.44 324.03,-176.74l985.93 290.25c138.24,40.71 217.52,185.87 176.73,324.11l-414.86 1408.95c-40.48,138.32 -185.72,217.44 -324.03,176.74z"/>
   <path class="fil11" d="M18219.37 5104.98c-131.92,447.96 -451.91,792.69 -857.81,982.81 -132.77,62.23 -232.89,177.88 -274.28,318.55l-172.09 584.61c-79.58,270.55 -363.36,425.3 -633.83,345.64l-976.13 -287.28c-270.47,-79.66 -425.29,-363.44 -345.71,-633.99l172.17 -584.53c41.31,-140.68 19.93,-292.08 -57.9,-416.32 -238.36,-379.72 -320.23,-842.9 -188.61,-1290.95 254.27,-863.21 1206.66,-1343.21 2127.24,-1072.29 920.51,271.01 1460.76,1190.52 1206.95,2053.75z"/>
   <path class="fil12" d="M17057.76 2896.86c-484.55,-142.64 -992.86,-99.58 -1431.39,121.43 -441.8,222.84 -759.97,599.14 -895.4,1059.74 -71.14,241.94 -87.95,491.25 -49.46,741.11 37.28,240.41 123.26,469.5 255.71,680.92 53.87,85.36 68.33,189.3 39.95,285.23l-172.1 584.53c-104.46,355.23 99.44,729.32 454.74,833.85l976.12 287.37c354.92,104.53 729.02,-99.37 833.71,-454.59l172.17 -584.69c28.07,-95.93 96.62,-175.37 188.07,-218.2 225.88,-105.83 422.33,-251.75 583.77,-433.66 167.84,-189.06 289.03,-407.57 359.87,-649.51 135.42,-460.59 72.27,-949.27 -178.49,-1375.92 -248.79,-423.33 -652.62,-734.96 -1137.27,-877.61l0 0zm-45.34 154.37c920.51,271.01 1460.76,1190.52 1206.95,2053.75 -131.92,447.96 -451.91,792.69 -857.81,982.81 -132.77,62.23 -232.89,177.88 -274.28,318.55l-172.09 584.61c-79.58,270.55 -363.36,425.3 -633.83,345.64l-976.13 -287.28c-270.47,-79.66 -425.29,-363.44 -345.71,-633.99l172.17 -584.53c41.31,-140.68 19.93,-292.08 -57.9,-416.32 -238.36,-379.72 -320.23,-842.9 -188.61,-1290.95 254.27,-863.21 1206.66,-1343.21 2127.24,-1072.29l0 0z"/>
   <path class="fil13" d="M16419.9 7861.85l-1515.92 -446.29c-39.34,-11.64 -61.93,-53.02 -50.37,-92.44l0 0c11.65,-39.41 52.95,-62 92.36,-50.36l1516.15 446.29c39.34,11.57 61.93,52.96 50.37,92.36l0 0c-11.56,39.49 -52.95,62.01 -92.59,50.44z"/>
   <path class="fil13" d="M16322.98 8191.44l-1516.23 -446.29c-39.33,-11.64 -61.84,-52.96 -50.28,-92.45l0 0c11.87,-39.48 53.18,-62 92.51,-50.35l1515.92 446.2c39.64,11.65 62.24,53.04 50.68,92.52l0 0c-11.57,39.42 -53.27,61.93 -92.6,50.37z"/>
   <path class="fil13" d="M16226.04 8521.03l-1516.22 -446.29c-39.34,-11.64 -61.85,-53.02 -50.29,-92.44l0 0c11.56,-39.48 52.95,-62 92.29,-50.44l1516.22 446.37c39.34,11.56 61.93,52.95 50.29,92.43l0 0c-11.56,39.42 -52.88,61.94 -92.29,50.37z"/>
   <path class="fil14" d="M17849.62 4961.1c-209.15,711.29 -955.58,1118.17 -1666.94,908.79 -711.36,-209.38 -1118.09,-955.73 -908.72,-1667.09 209.23,-711.29 955.58,-1118.17 1666.94,-908.79 711.36,209.45 1118.17,955.74 908.72,1667.09z"/>
   <path class="fil15" d="M16366.11 5248.23c-449.57,-132.38 -671.5,-482.5 -729.32,-587.87 -17.11,-31.12 -5.78,-70.31 25.41,-87.42 31.27,-17.12 70.31,-5.71 87.35,25.4 52.72,95.79 256.39,417.46 670.65,531.36 383.61,105.98 698.05,-30.43 815.22,-93.96 31.27,-16.9 70.29,-5.32 87.41,25.94 16.74,31.27 5.17,70.37 -26.1,87.34 -131.01,70.91 -481.97,223.23 -910.92,104.84 -6.69,-1.82 -13.31,-3.73 -19.7,-5.63z"/>
   <path class="fil15" d="M15266.2 6741.71c-34.16,-10.04 -53.56,-45.88 -43.44,-79.96l219.87 -747.04c10.12,-34.09 45.73,-53.64 79.89,-43.6 34.16,10.04 53.79,45.88 43.67,79.96l-219.87 747.05c-10.12,34.15 -46.03,53.63 -80.12,43.59z"/>
   <path class="fil12" d="M14978.62 2536.47c-21.98,-6.39 -40.78,-21.99 -50.89,-44.44l-598.84 -1340.85c-18.26,-40.63 0,-88.26 40.48,-106.37 40.77,-18.1 88.25,0.09 106.43,40.63l598.84 1340.94c18.26,40.63 0,88.17 -40.47,106.36 -18.19,8.06 -37.89,8.97 -55.55,3.73z"/>
   <path class="fil12" d="M16606.83 2114.45c-33.32,-9.74 -57.59,-40.41 -57.9,-76.78l-7.53 -1468.67c-0.3,-44.43 35.61,-80.64 80.12,-80.87 44.27,-0.31 80.71,35.6 81.03,80.03l7.52 1468.6c0.31,44.51 -35.6,80.73 -80.11,80.95 -8.14,0 -15.9,-1.06 -23.13,-3.26z"/>
   <path class="fil12" d="M17779.86 2467.01c-8.06,-2.44 -15.9,-6.17 -23.35,-11.34 -36.53,-25.49 -45.19,-75.7 -19.71,-112.15l842.91 -1202.54c25.86,-36.37 76.07,-45.19 112.6,-19.62 36.52,25.48 44.88,75.7 19.78,112.06l-843.36 1202.54c-20.55,28.99 -56.38,40.55 -88.87,31.05z"/>
   <path class="fil12" d="M18782.83 3539.6c-22.82,-6.77 -42.61,-23.97 -52.5,-48.24 -15.97,-41.54 5.33,-88.1 46.42,-104.08l1370.98 -527.62c41.08,-15.98 87.5,4.71 103.47,46.18 15.98,41.54 -4.56,88.1 -45.65,104.08l-1370.98 527.62c-16.74,6.55 -35,6.93 -51.74,2.06z"/>
  </g>
 </g>
</svg>
