<?xml version="1.0" encoding="UTF-8"?>
<!DOCTYPE svg PUBLIC "-//W3C//DTD SVG 1.0//EN" "http://www.w3.org/TR/2001/REC-SVG-20010904/DTD/svg10.dtd">
<!-- Creator: CorelDRAW -->
<svg xmlns="http://www.w3.org/2000/svg" xml:space="preserve" width="218.612mm" height="261.392mm" version="1.0" style="shape-rendering:geometricPrecision; text-rendering:geometricPrecision; image-rendering:optimizeQuality; fill-rule:evenodd; clip-rule:evenodd"
viewBox="0 0 21861.2 26139.16"
 xmlns:xlink="http://www.w3.org/1999/xlink"
 xmlns:xodm="http://www.corel.com/coreldraw/odm/2003">
 <defs>
  <style type="text/css">
   <![CDATA[
    .fil0 {fill:none}
    .fil3 {fill:#193669;fill-rule:nonzero}
    .fil9 {fill:#194FB6;fill-rule:nonzero}
    .fil8 {fill:#1D2E58;fill-rule:nonzero}
    .fil4 {fill:#203060;fill-rule:nonzero}
    .fil6 {fill:#242345;fill-rule:nonzero}
    .fil7 {fill:#2EA4CF;fill-rule:nonzero}
    .fil2 {fill:#44A4DC;fill-rule:nonzero}
    .fil1 {fill:#44B4E7;fill-rule:nonzero}
    .fil5 {fill:#A8EBED;fill-rule:nonzero}
    .fil10 {fill:#D05339;fill-rule:nonzero}
    .fil11 {fill:#E3A84B;fill-rule:nonzero}
    .fil12 {fill:#F3DFAA;fill-rule:nonzero}
    .fil13 {fill:#F47534;fill-rule:nonzero}
   ]]>
  </style>
 </defs>
 <g id="Camada_x0020_1">
  <metadata id="CorelCorpID_0Corel-Layer"/>
  <rect class="fil0" width="21861.2" height="26139.16"/>
  <g id="_1534329002464">
   <path class="fil1" d="M6030.44 9924.03c-156.8,-156.73 -278.23,-337.95 -362.75,-532.27 -194.17,-445.75 -193.56,-960.14 23.43,-1403.02 220.17,-449.49 635.89,-769.55 1119.61,-884.36 136.49,-32.8 279.14,-49.23 424.08,-47.02 330.65,1888.65 -1204.37,2866.67 -1204.37,2866.67z"/>
   <path class="fil2" d="M6030.44 9924.03c-156.8,-156.73 -278.23,-337.95 -362.75,-532.27 192.94,-336.43 386.49,-694.62 577.45,-1074.34 210.6,-418.45 398.06,-824.04 565.59,-1213.04 136.49,-32.8 279.14,-49.23 424.08,-47.02 -401.25,955.5 -802.81,1911.08 -1204.37,2866.67z"/>
   <path class="fil1" d="M15360.91 11827.58c-170.13,2359.97 -5580.88,3139.65 -8111.64,1713.28 -703.23,-396.23 -1184.06,-963.12 -1268.58,-1713.28 -389.09,-3450.67 1895.49,-6610.02 4519.98,-6610.02 951.56,0 2068.81,364.2 2993.96,1170.89 1185.87,1032.73 2057.77,2791.2 1866.28,5439.13z"/>
   <path class="fil1" d="M5876.85 8274.66c-19.1,-10.34 -475.9,-259.67 -834.01,-842.98 -327.76,-533.71 -631.32,-1460.53 -215.84,-2844.84l244.14 73.35c-309.8,1032.8 -248.48,1916.49 181.99,2626.48 321.44,529.6 740.34,760.96 744.68,763.24l-120.96 224.75z"/>
   <path class="fil3" d="M5640.22 4331.9c0,328.06 -265.91,594.04 -593.97,594.04 -328.06,0 -593.89,-265.98 -593.89,-594.04 0,-328.14 265.83,-594.05 593.89,-594.05 328.06,0 593.97,265.91 593.97,594.05z"/>
   <path class="fil3" d="M13956.98 9743.18c0,473.53 -519.87,765.15 -1189.92,938.31 -705.88,182.6 -1578.16,234.03 -2185.36,228.25 -869.38,-8.45 -2546.37,-159.32 -3151.06,-710.15 -141.74,-129.03 -224.52,-280.36 -224.52,-456.41 0,-512.86 213.56,-977.26 559.28,-1313.77 345.41,-336.05 823.05,-543.9 1350.44,-543.9l2931.19 0c613.29,0 1158.87,281.11 1508.08,717.74 251.98,314.98 401.87,710.53 401.87,1139.93z"/>
   <path class="fil4" d="M13956.98 9743.18c0,473.53 -519.87,765.15 -1189.92,938.31 -705.88,182.6 -1578.16,234.03 -2185.36,228.25 -869.38,-8.45 -2546.37,-159.32 -3151.06,-710.15 1721.95,-51.73 4649.33,-334.3 6124.47,-1596.34 251.98,314.98 401.87,710.53 401.87,1139.93z"/>
   <path class="fil2" d="M15360.91 11827.58c-170.13,2359.97 -5580.88,3139.65 -8111.64,1713.28 1546.27,256.62 6149.34,820.23 6977.56,-1397.61 712.28,-1907.21 -168.36,-4451.98 -732.2,-5754.8 1185.87,1032.73 2057.77,2791.2 1866.28,5439.13z"/>
   <path class="fil5" d="M7476.37 7539.79c140.06,184.35 999.78,-201.61 1576.93,-626.45 553.49,-407.27 1118.48,-1049.54 993.78,-1231.3 -110.55,-161.45 -745.52,68.62 -1144.72,280.81 -893.96,474.83 -1578.16,1375.93 -1425.99,1576.94z"/>
   <path class="fil5" d="M6223.69 11212.1c20.61,630.41 405.59,1228.86 561.56,1188.08 163.42,-42.91 96.92,-795.81 21.68,-1209.69 -21.68,-118.84 -154.15,-845.65 -323.96,-842.53 -133.67,2.51 -272.52,455.81 -259.28,864.14z"/>
   <path class="fil6" d="M13357.53 9343.92c0,471.24 -381.85,853.18 -853.1,853.18 -364.28,0 -674.99,-227.87 -797.63,-548.86 -35.91,-94.49 -55.85,-197.04 -55.85,-304.32 0,-471.18 381.85,-853.1 853.48,-853.1 346.85,0 645.09,206.94 778.15,504.11 48.32,106.59 74.95,224.67 74.95,348.99z"/>
   <path class="fil7" d="M12504.43 8344.96c-551.13,0 -999.25,448.12 -999.25,998.95 0,122.49 21.98,242.31 65.35,356.29 146.69,384.36 521.92,642.73 933.9,642.73 550.75,0 998.87,-448.19 998.87,-999.02 0,-142.42 -29.44,-280.05 -87.95,-409.09 -160.23,-358.12 -517.81,-589.86 -910.92,-589.86l0 0zm-0.31 145.85c346.86,0 645.4,206.94 778.46,504.11 48.32,106.59 74.95,224.67 74.95,348.99 0,471.24 -381.85,853.18 -853.1,853.18 -364.28,0 -674.99,-227.87 -797.63,-548.86 -35.91,-94.49 -55.85,-197.04 -55.85,-304.32 0,-471.18 381.85,-853.1 853.17,-853.1l0 0z"/>
   <path class="fil8" d="M13282.28 8992.18c-318.47,769.95 -1108.81,748.03 -1573.43,658.57 -36.45,-94.42 -56.76,-196.91 -57.06,-304.11 -1.68,-471.17 379.03,-854.46 850.58,-855.99 346.86,-1.14 646.01,204.82 779.91,501.53z"/>
   <path class="fil5" d="M12467.07 9060.73c0,156.43 -126.75,283.18 -283.25,283.18 -156.5,0 -283.17,-126.75 -283.17,-283.18 0,-156.42 126.67,-283.25 283.17,-283.25 156.5,0 283.25,126.83 283.25,283.25z"/>
   <path class="fil5" d="M13173.48 9509.61c46.34,31.12 -16.73,328.29 -227.93,441.96 -187.77,101.04 -436.25,27.08 -442.04,-27.62 -4.33,-40.17 124.4,-51.12 339.93,-181.68 226.81,-137.32 297.71,-254.42 330.04,-232.66z"/>
   <path class="fil6" d="M9572.64 9343.84c0,471.25 -381.85,853.18 -853.18,853.18 -364.21,0 -675.22,-227.79 -797.57,-548.85 -36.13,-94.5 -55.83,-197.06 -55.83,-304.33 0,-471.17 381.85,-853.1 853.4,-853.1 346.86,0 645.17,206.95 778.23,504.12 48.01,106.59 74.95,224.66 74.95,348.98z"/>
   <path class="fil7" d="M8719.46 8344.89c-551.06,0 -999.18,448.11 -999.18,998.94 0,122.49 21.99,242.32 65.35,356.29 146.7,384.44 521.92,642.74 933.83,642.74 550.83,0 999.02,-448.12 999.02,-999.03 0,-142.43 -29.52,-280.13 -88.02,-409.09 -160.23,-358.11 -518.12,-589.85 -911,-589.85l0 0zm-0.23 145.84c346.86,0 645.4,206.95 778.46,504.12 48.01,106.59 74.95,224.66 74.95,348.98 0,471.25 -381.85,853.18 -853.18,853.18 -364.21,0 -675.22,-227.79 -797.57,-548.85 -36.13,-94.5 -55.83,-197.06 -55.83,-304.33 0,-471.17 381.85,-853.1 853.17,-853.1l0 0z"/>
   <path class="fil8" d="M9497.39 8992.11c-318.48,770.02 -1108.88,748.03 -1573.74,658.55 -36.14,-94.33 -56.45,-196.89 -56.68,-304.09 -1.75,-471.17 378.96,-854.39 850.51,-855.99 346.85,-1.14 646.01,204.89 779.91,501.53z"/>
   <path class="fil5" d="M8682.18 9060.66c0,156.42 -126.98,283.17 -283.25,283.17 -156.5,0 -283.17,-126.75 -283.17,-283.17 0,-156.43 126.67,-283.26 283.17,-283.26 156.27,0 283.25,126.83 283.25,283.26z"/>
   <path class="fil5" d="M9388.36 9509.53c46.26,31.2 -16.81,328.3 -228.01,442.04 -187.46,101.04 -436.25,27.01 -442.03,-27.62 -4.04,-40.17 124.7,-51.2 340.23,-181.76 226.8,-137.24 297.71,-254.34 329.81,-232.66z"/>
   <path class="fil9" d="M10835.44 8079.82c8.36,56.67 -374.93,190.2 -772.15,226.8 -644.27,59.42 -1234.43,-144.64 -1225.75,-216 3.73,-32.79 411.07,-36.75 1225.75,-43.22 654.37,-5.25 767.81,2.44 772.15,32.42z"/>
   <path class="fil9" d="M4648.81 4229.58c31.49,173.24 197.27,288.12 370.59,256.62 173.24,-31.5 288.12,-197.43 256.62,-370.59 -31.57,-173.24 -197.66,-288.2 -370.67,-256.7 -173.24,31.58 -288.12,197.51 -256.54,370.67z"/>
   <path class="fil1" d="M15020.13 17221.75c0,2381.8 -1670.97,5179.54 -4325.9,5179.54 -1644.96,0 -2998.83,-1007.17 -3790.38,-2353.73 -486.61,-826.78 -761.11,-1781.45 -761.11,-2709.56 0,-2440.16 2663.23,-2323.82 4351.01,-2323.82 1851.21,0 4048.45,-141.83 4458.38,1582.03 44.88,185.94 68.01,393.64 68.01,625.54l-0.01 0z"/>
   <path class="fil2" d="M15020.13 17221.75c0,2381.8 -1670.97,5179.54 -4325.9,5179.54 -1644.96,0 -2998.83,-1007.17 -3790.38,-2353.73 1648.69,776.11 6345.49,2383.63 8048.27,-3451.36 44.88,185.94 68.01,393.64 68.01,625.54l0 0.01z"/>
   <path class="fil5" d="M7062.11 16391.94c-344.88,562.39 -100.97,1362.54 491.25,1676.68 625.7,332.02 1477.42,34.39 1710,-625.62 221.33,-627.06 -204.81,-1329.82 -815.21,-1526.95 -489.5,-158.1 -1099.37,8.37 -1386.04,475.89z"/>
   <path class="fil1" d="M5231.74 15709.17c528.84,251.84 291.85,881.18 -305.24,1664.29 -713.72,935.11 -2719.98,2039.05 -3985.06,1430.55 -0.31,0 -0.31,0 -0.31,0 -115.41,-55.54 -224.21,-124.92 -325.77,-210.21 -1214.72,-1021.24 3254.37,-3005.67 3913.39,-3003.93 312.39,0.91 542.68,42.76 702.99,119.29l0 0.01z"/>
   <path class="fil2" d="M5231.74 15709.17c528.84,251.84 291.85,881.18 -305.24,1664.29 -713.72,935.11 -2719.98,2039.05 -3985.06,1430.55 1252.07,-200.78 3339.97,-870.82 4290.3,-3094.84z"/>
   <path class="fil5" d="M1470.59 17330.63c324.25,-186.32 889.23,-443.63 961.59,-336.81 73.79,109.17 -364.81,601.12 -907.27,880.56 -370.29,190.81 -857.14,317.72 -912.15,215.09 -61.93,-116.11 434.81,-515.91 857.83,-758.84z"/>
   <path class="fil1" d="M15729.21 16507.58c129.57,571.22 795.59,478.63 1690.91,68.18 1069.02,-490.28 2587.22,-2204.7 2271.86,-3572.79 0,-0.3 0,-0.3 0,-0.3 -28.6,-124.7 -72.27,-246.04 -133.37,-363.82 -729.01,-1409.64 -3647.72,2513.42 -3790.98,3156.84 -67.93,304.7 -77.75,538.73 -38.42,711.89z"/>
   <path class="fil2" d="M15729.21 16507.58c129.57,571.22 795.59,478.63 1690.91,68.18 1069.02,-490.28 2587.22,-2204.7 2271.86,-3572.79 -471.25,1177.44 -1584.16,3066.84 -3962.77,3504.61z"/>
   <path class="fil5" d="M18138.48 13195.07c-253.13,275.41 -628.36,770.17 -540.11,864.05 90.24,95.94 666.48,-223.52 1058.53,-691.28 267.57,-319.23 498.48,-766.36 410.23,-842.44 -99.51,-86.05 -598.61,310.56 -928.65,669.67z"/>
   <path class="fil4" d="M8682.18 11332.52c151.86,81.94 305.24,154.67 460.82,219.57 155.66,64.97 312.77,122.8 471.86,170.73 317.95,96.47 643.12,154.52 969.2,162.81 162.82,3.2 325.4,-7 487.15,-28.15 161.44,-22.52 320.53,-61.01 479.09,-106.59 314.74,-98.9 617.62,-245.59 916.77,-418.37 -232.35,255.64 -523.06,462.42 -846.78,606.52 -163.42,68.32 -333.85,122.8 -509.13,157.18 -43.76,9.06 -88.26,13.85 -132.24,20.93 -44.27,7.53 -88.56,11.18 -133.06,14.75 -89.17,8.68 -178.57,8.38 -267.66,8.75 -357.27,-9.12 -709.3,-91.67 -1032.19,-230.14 -161.44,-69.54 -316.2,-152.69 -461.74,-248.4 -72.58,-48.32 -143.49,-98.6 -210.59,-153.92 -67.41,-54.85 -133.07,-111.84 -191.5,-175.67z"/>
   <path class="fil10" d="M21376.27 14676.99l0 0c-160,276.86 -513.77,371.74 -790.63,211.88l-4796.32 -2769.05c-276.79,-159.85 -371.66,-513.93 -211.74,-790.79l0 0c159.7,-276.86 513.78,-371.73 790.64,-211.89l4796.32 2769.06c276.86,159.85 371.73,513.93 211.73,790.79z"/>
   <path class="fil4" d="M16878.27 9214.26c0,2038.22 -1652.49,3690.63 -3690.56,3690.63 -1708.93,0 -3146.41,-1161.83 -3566.16,-2738.47 -81.02,-303.79 -124.16,-622.8 -124.16,-952.16 0,-2038.22 1652.26,-3690.7 3690.32,-3690.7 1276.35,0 2401.13,648.06 3063.95,1632.7 396.08,587.81 626.61,1295.74 626.61,2058z"/>
   <path class="fil3" d="M16416 7134.12c-237.23,403.69 -516.14,754.88 -824.8,1060.73 -1353.64,1341.77 -3274.85,1805.64 -4685.47,1955.98 -510.89,54.92 -954.97,68.01 -1280.98,66.57 -83.08,-311.1 -127.36,-637.87 -127.36,-975.29 0,-2087.75 1692.12,-3780.41 3780.03,-3780.41 1307.3,0 2459.63,663.82 3138.58,1672.42z"/>
   <path class="fil1" d="M10962.11 11105.72c0,0 2012.35,561.64 4345.31,0 0,0 -1670.14,2160.1 -4345.31,0z"/>
   <path class="fil11" d="M13187.72 11826.82c-1111.47,0 -2063.02,-697.67 -2439.39,-1677.9 -111.61,-290.55 -173.01,-605.53 -173.01,-934.66 0,-1440.67 1171.65,-2612.63 2612.4,-2612.63 1056.78,0 1969.21,630.64 2380.05,1535.4 149.28,328.52 232.59,693.4 232.59,1077.23 0,1440.61 -1171.96,2612.56 -2612.64,2612.56zm3228.28 -4780.8c-698.35,-1037.44 -1883.62,-1720.2 -3228.29,-1720.2 -2147.47,0 -3888.21,1740.97 -3888.21,3888.44 0,347.01 45.73,683.06 131.1,1003.14 442.02,1661.16 1956.8,2885.3 3757.11,2885.3 2147.48,0 3888.44,-1741.04 3888.44,-3888.44 0,-803.11 -243.3,-1548.94 -660.15,-2168.24z"/>
   <path class="fil6" d="M14849.41 9214.12c0,917.61 -743.77,1661.38 -1661.39,1661.38 -709.39,0 -1314.61,-443.63 -1552.97,-1068.87 -70.3,-183.96 -109.1,-383.67 -109.1,-592.51 0,-917.55 743.85,-1661.39 1662.07,-1661.39 675.53,0 1256.41,403.07 1515.62,981.67 93.73,207.62 145.77,437.62 145.77,679.72z"/>
   <path class="fil7" d="M13188.03 7268.79c-1073.05,0 -1945.85,872.65 -1945.85,1945.33 0,238.43 42.83,471.85 127.58,693.78 285.54,748.56 1016.3,1251.54 1818.27,1251.54 1072.67,0 1945.55,-872.66 1945.55,-1945.32 0,-277.48 -57.59,-545.51 -171.34,-796.66 -312.16,-697.43 -1008.76,-1148.67 -1774.21,-1148.67l0 0zm0 283.94c675.53,0 1256.41,403.07 1515.62,981.67 93.73,207.62 145.77,437.62 145.77,679.72 0,917.61 -743.77,1661.38 -1661.39,1661.38 -709.39,0 -1314.61,-443.63 -1552.97,-1068.87 -70.3,-183.96 -109.1,-383.67 -109.1,-592.51 0,-917.55 743.85,-1661.39 1662.07,-1661.39l0 0z"/>
   <path class="fil8" d="M14702.19 8531.13c-620.29,1499.48 -2158.73,1454.75 -3063.64,1280.45 -70.61,-183.74 -110.25,-383.37 -110.86,-592.14 -3.19,-917.54 738.3,-1663.9 1656.53,-1666.94 675.52,-2.29 1257.01,400.87 1517.97,978.63z"/>
   <path class="fil5" d="M13115.37 8662.6c0,304.55 -247.04,551.52 -551.66,551.52 -304.64,0 -551.37,-246.97 -551.37,-551.52 0,-304.63 246.73,-551.59 551.37,-551.59 304.62,0 551.66,246.96 551.66,551.59z"/>
   <path class="fil5" d="M14490.69 9536.7c90.3,60.71 -32.34,639.38 -443.79,860.86 -365.34,196.74 -849.37,52.64 -860.63,-53.87 -8.45,-78.21 242.39,-99.66 662.21,-353.78 441.73,-267.42 579.44,-495.43 642.21,-453.21z"/>
   <path class="fil1" d="M18391.07 12284.91c0,0 -144.71,1492.56 1496.52,864.05 0,0 15.29,-1328.07 -1496.52,-864.05z"/>
   <path class="fil5" d="M19137.73 12707.85c83.31,148.2 147.83,394.17 58.12,460.82 -116.55,86.8 -517.88,-113.21 -594.18,-421.26 -30.74,-124.93 -18.57,-308.74 75.77,-356.44 122.95,-62.16 352.02,124.16 460.29,316.88z"/>
   <path class="fil12" d="M9836.18 9882.26c-73.8,0 -137.4,-56.15 -144.63,-131.39 -0.91,-6.92 -2.05,-16.59 -3.5,-28.84 -147.82,-1264.09 247.11,-2415.51 1083.48,-3159.05 1117.25,-993.47 2454.99,-941.73 2838.28,-902.32 80.12,8.29 138.55,79.88 130.18,160 -8.06,80.11 -80.11,138.31 -160,130.09 -353.24,-36.44 -1586.53,-84.22 -2614.68,830.13 -1046.35,930.17 -1067.81,2220.73 -987.62,2907.29 1.68,14.31 3.12,25.65 4.03,33.78 7.77,80.2 -50.67,151.64 -130.78,159.63 -4.87,0.45 -9.82,0.68 -14.76,0.68z"/>
   <path class="fil12" d="M15220.31 11800.65c-38.73,0 -77.23,-15.37 -105.91,-45.73 -55.23,-58.5 -52.65,-150.79 5.86,-206.1 818.93,-773.75 1186.94,-1864.53 983.88,-2917.87 -15.37,-79.12 36.44,-155.51 115.41,-170.8 78.98,-15.14 155.67,36.44 170.73,115.57 222.16,1151.79 -177.95,2342.54 -1069.85,3185.07 -28.07,26.62 -64.21,39.86 -100.12,39.86z"/>
   <path class="fil12" d="M13183.07 12409.07c-277.47,0 -536.06,-31.65 -748.71,-80.42 -78.37,-18.03 -127.59,-96.31 -109.33,-174.75 17.96,-78.52 96.01,-127.6 174.76,-109.49 579.44,133.07 1434.58,102.79 2038.67,-264.84 68.55,-41.92 158.48,-20.08 200.17,48.77 42,68.71 20.24,158.48 -48.61,200.33 -460.83,280.58 -1013.71,380.4 -1506.95,380.4z"/>
   <path class="fil13" d="M18007.7 12641.12c-22.3,0 -44.82,-5.86 -65.36,-18.11l-1404.23 -840.16c-60.48,-36.22 -80.19,-114.58 -44.05,-175.07 36.21,-60.4 114.58,-80.11 175.06,-43.9l1404.23 840.17c60.49,36.14 80.2,114.5 43.98,174.99 -23.97,39.94 -66.19,62.08 -109.63,62.08z"/>
   <path class="fil13" d="M21075.14 14382.86c-20.23,0 -40.54,-4.72 -59.57,-14.76l-1340.93 -708.62c-62.24,-32.87 -85.9,-110.09 -53.26,-172.41 33.02,-62.3 110.24,-86.19 172.48,-53.18l1340.86 708.63c62.53,32.94 86.19,110.09 53.25,172.4 -22.9,43.29 -67.1,67.94 -112.83,67.94z"/>
  </g>
 </g>
</svg>
