<?xml version="1.0" encoding="UTF-8"?>
<!DOCTYPE svg PUBLIC "-//W3C//DTD SVG 1.0//EN" "http://www.w3.org/TR/2001/REC-SVG-20010904/DTD/svg10.dtd">
<!-- Creator: CorelDRAW -->
<svg xmlns="http://www.w3.org/2000/svg" xml:space="preserve" width="218.612mm" height="261.392mm" version="1.0" style="shape-rendering:geometricPrecision; text-rendering:geometricPrecision; image-rendering:optimizeQuality; fill-rule:evenodd; clip-rule:evenodd"
viewBox="0 0 21861.2 26139.16"
 xmlns:xlink="http://www.w3.org/1999/xlink"
 xmlns:xodm="http://www.corel.com/coreldraw/odm/2003">
 <defs>
  <style type="text/css">
   <![CDATA[
    .fil0 {fill:none}
    .fil4 {fill:#193669;fill-rule:nonzero}
    .fil9 {fill:#194FB6;fill-rule:nonzero}
    .fil8 {fill:#1D2E58;fill-rule:nonzero}
    .fil5 {fill:#203060;fill-rule:nonzero}
    .fil6 {fill:#242345;fill-rule:nonzero}
    .fil7 {fill:#2EA4CF;fill-rule:nonzero}
    .fil2 {fill:#44A4DC;fill-rule:nonzero}
    .fil1 {fill:#44B4E7;fill-rule:nonzero}
    .fil3 {fill:#A8EBED;fill-rule:nonzero}
   ]]>
  </style>
 </defs>
 <g id="Camada_x0020_1">
  <metadata id="CorelCorpID_0Corel-Layer"/>
  <rect class="fil0" width="21861.2" height="26139.16"/>
  <g id="_1533996932128">
   <path class="fil1" d="M5466.74 14994.47c562.32,163.81 429.56,822.82 -34.39,1691.52 -554.1,1037.75 -2357.38,2449.21 -3703.77,2051.76 -0.4,0 -0.4,0 -0.4,0 -122.68,-36.44 -241.19,-87.42 -355.05,-155.36 -1362.9,-812.92 2729.78,-3488.95 3380.65,-3592.79 308.28,-49.53 542.54,-44.89 712.96,4.87z"/>
   <path class="fil2" d="M5466.74 14994.47c562.32,163.81 429.56,822.82 -34.39,1691.52 -554.1,1037.75 -2357.38,2449.21 -3703.77,2051.76 1203.82,-399.27 3157.13,-1395.56 3738.16,-3743.28z"/>
   <path class="fil3" d="M2014.39 17198.39c290.25,-235.77 806.76,-580.65 895.17,-486.61 90.31,95.79 -263.47,651.79 -754.12,1014.54 -334.9,247.65 -795.16,451.02 -865.74,358.8 -79.89,-104.76 346.2,-578.9 724.69,-886.73z"/>
   <path class="fil1" d="M15453.39 16652.22c0,2381.73 -1670.97,5179.57 -4325.83,5179.57 -1645.18,0 -2999.05,-1007.35 -3790.37,-2353.76 -486.69,-826.77 -761.12,-1781.44 -761.12,-2709.56 0,-2440.23 2663.23,-2323.9 4351.01,-2323.9 1851.06,0 4048.46,-141.82 4458.15,1581.88 44.89,186.02 68.17,393.72 68.17,625.77l-0.01 0z"/>
   <path class="fil2" d="M15453.39 16652.22c0,2381.73 -1670.97,5179.57 -4325.83,5179.57 -1645.18,0 -2999.05,-1007.35 -3790.37,-2353.76 1648.75,775.92 6345.34,2383.56 8048.03,-3451.59 44.89,186.02 68.17,393.72 68.17,625.77l0 0.01z"/>
   <path class="fil3" d="M7495.28 15822.17c-344.8,562.38 -100.95,1362.61 491.26,1676.82 625.92,332.1 1477.5,34.39 1710.24,-625.76 221.01,-626.91 -204.89,-1329.68 -815.3,-1526.96 -489.5,-157.94 -1099.45,8.45 -1386.2,475.9z"/>
   <path class="fil1" d="M20337.43 16789.61c533.64,956.12 653.69,1661.16 -148.73,1731.16 -137.79,11.87 -302.88,5.17 -497.65,-21.99 -652.94,-91.98 -4794.89,-2690.46 -3447.33,-3529.19 348.3,-216.67 748.03,-274.49 1160.47,-222.15 1183.37,151.02 2469.68,1210.99 2933.24,2042.17z"/>
   <path class="fil2" d="M20337.43 16789.61c533.64,956.12 653.69,1661.16 -148.73,1731.16 -91.83,-617.94 -591.16,-1873.81 -2784.51,-3773.33 1183.37,151.02 2469.68,1210.99 2933.24,2042.17z"/>
   <path class="fil3" d="M17697.03 16524.32c598.53,436.55 1576.93,1234.11 1498.27,1348.16 -70.83,102.63 -1011.27,-336.51 -1785.78,-1027.94 -431.54,-385.04 -856.45,-889.01 -793.45,-961.29 78.28,-90.3 894.71,505.41 1080.96,641.07z"/>
   <path class="fil1" d="M5253.85 10259.25c-180.08,-129.27 -329.66,-288.12 -444.39,-466.08 -264.23,-408.48 -347.08,-915.86 -205.12,-1388.33 144.18,-479.31 502.14,-862.69 960.84,-1054.49 129.49,-54.7 267.42,-94.04 410.99,-115.41 633.3,1809.53 -722.32,3024.31 -722.32,3024.31z"/>
   <path class="fil2" d="M5253.85 10259.25c-180.08,-129.27 -329.66,-288.12 -444.39,-466.08 135.5,-363.29 268.34,-748.41 395.02,-1154 139.6,-447.2 258.75,-877.98 360.7,-1288.82 129.49,-54.7 267.42,-94.04 410.99,-115.41 -240.79,1007.93 -481.52,2016.16 -722.32,3024.31z"/>
   <path class="fil1" d="M14769.73 10620.33c215.76,2356.31 -4996.11,4005.3 -7725.31,3009.55 -758.29,-276.55 -1324.87,-758 -1530.29,-1484.42 -944.86,-3341.34 795.51,-6830.05 3385.24,-7257.03 938.76,-154.52 2100.37,23.13 3144.36,668.6 1338.04,826.24 2484.28,2419.39 2726,5063.29l0 0.01z"/>
   <path class="fil1" d="M4834.19 8656.82c-20.7,-7.23 -511.87,-178.71 -960.07,-696.07 -410.16,-473.52 -860.33,-1338.57 -675.68,-2772.02l253.12 32.72c-137.78,1069.55 66.27,1931.32 606.6,2561.96 403,470.18 854.16,630.41 858.65,631.86l-82.62 241.55z"/>
   <path class="fil4" d="M3959.63 4804.83c53.34,323.72 -165.86,629.49 -489.5,682.75 -323.73,53.49 -629.43,-165.78 -682.75,-489.51 -53.34,-323.72 165.78,-629.19 489.5,-682.75 323.73,-53.18 629.42,166.08 682.75,489.51z"/>
   <path class="fil4" d="M13045.34 8791.95c77,467.21 -388.47,839.56 -1021.39,1119.3 -666.7,295.12 -1519.04,487.46 -2119.17,580.58 -859.19,133.07 -2538.3,256.93 -3224.55,-188.31 -160.91,-104.45 -267.2,-240.11 -295.73,-413.95 -83.47,-506.02 51.81,-998.95 338.1,-1387.19 286.3,-387.71 723.69,-670.35 1244.16,-756.25l2892.15 -476.5c605.01,-99.74 1189.16,88.86 1604.72,462.88 299.75,269.93 511.87,635.89 581.71,1059.44z"/>
   <path class="fil5" d="M13045.34 8791.95c77,467.21 -388.47,839.56 -1021.39,1119.3 -666.7,295.12 -1519.04,487.46 -2119.17,580.58 -859.19,133.07 -2538.3,256.93 -3224.55,-188.31 1690.68,-331.25 4533.01,-1085.75 5783.4,-2571.01 299.75,269.93 511.87,635.89 581.71,1059.44z"/>
   <path class="fil2" d="M14769.73 10620.33c215.76,2356.31 -4996.11,4005.3 -7725.31,3009.55 1567.51,1.75 6201.09,-190.66 6657.73,-2513.73 392.66,-1997.59 -890.07,-4365.24 -1658.42,-5559.11 1338.04,826.24 2484.28,2419.39 2726,5063.29z"/>
   <path class="fil3" d="M6292.97 7671.49c167.99,159.4 953.45,-361.31 1454.07,-874.55 479.77,-491.56 932.76,-1217.38 780.21,-1376.46 -135.42,-141.21 -724.52,189.21 -1083.92,463.4 -804.65,613.91 -1333.34,1614.3 -1150.36,1787.61z"/>
   <path class="fil3" d="M5653.97 11498.61c122.71,618.85 600.12,1146.78 747.19,1081.11 154.44,-68.85 -33.63,-801.05 -175.37,-1197.13 -40.62,-113.67 -289.48,-809.13 -456.64,-778.47 -131.54,23.97 -194.69,493.85 -115.18,894.49z"/>
   <path class="fil6" d="M12389.07 8495.45c76.69,464.86 -238.14,904 -703.07,980.69 -359.41,59.04 -703.07,-115.11 -876.16,-411.98 -50.89,-87.34 -87.19,-185.41 -104.61,-291.01 -76.61,-465.16 238.14,-904.07 703.38,-980.76 342.21,-56.38 671.41,97.53 850.96,368.84 64.83,97.54 109.33,211.5 129.5,334.22z"/>
   <path class="fil7" d="M11548.3 7635.05c-54.4,0 -109.33,4.64 -163.42,13.32 -263.4,43.06 -494.15,185.71 -649.66,400.94 -155.51,215.54 -217.29,477.95 -173.85,739.44 19.86,120.05 61.1,234.03 122.57,338.79 178.18,303.71 508.53,492.39 862.08,492.39 54.47,0 109.56,-4.63 163.72,-13.31 543.53,-89.09 912.83,-600.58 823.21,-1140.46 -23.14,-139.68 -74.64,-269.85 -153.16,-386.72 -185.1,-278.07 -496.05,-444.39 -831.49,-444.39l0 0zm-1.14 144.63c289.71,0 556.38,147.29 711.28,380.18 64.9,96.62 110.47,208.01 130.64,329.74 76.69,461.73 -238.14,897.99 -703.07,974.14 -47.02,7.46 -93.81,11.26 -139.99,11.26 -306.46,0 -583.47,-152.47 -733.88,-408.79 -50.98,-86.8 -89.48,-195.9 -106.9,-300.89 -76.61,-461.67 238.14,-897.69 703.38,-974.07 46.94,-7.54 92.51,-11.57 138.54,-11.57l0 0z"/>
   <path class="fil8" d="M12259.19 8160.7c-189.06,811.48 -974.07,918.53 -1447.06,905.51 -51.21,-87.1 -87.88,-184.87 -105.68,-290.77 -78.14,-464.64 235.17,-904.62 700.1,-982.75 342.06,-57.52 672.1,97.23 852.64,368.01z"/>
   <path class="fil3" d="M11464.37 8360.87c25.49,154.22 -79.05,300.06 -233.34,325.47 -154.37,25.49 -300.14,-78.97 -325.55,-233.41 -25.41,-154.22 79.12,-300.07 233.42,-325.48 154.36,-25.48 300.06,78.97 325.47,233.42z"/>
   <path class="fil3" d="M12234.31 8688.93c50.83,23.21 36.91,326.61 -152.99,473.3 -168.67,130.18 -426.06,97.53 -440.67,44.58 -10.73,-39.1 114.66,-70.9 306.08,-234.63 201.46,-172.4 252.28,-299.45 287.58,-283.25z"/>
   <path class="fil6" d="M8654.46 9110.8c76.69,464.86 -238.14,904 -703.07,980.69 -359.33,59.27 -703.07,-115.18 -876.15,-411.98 -50.9,-87.34 -87.19,-185.41 -104.61,-291.01 -76.61,-464.94 238.13,-904.08 703.37,-980.77 342.22,-56.38 670.28,99.29 849.83,370.9 64.89,97.54 110.47,209.45 130.63,332.17z"/>
   <path class="fil7" d="M7813.69 8250.4c-54.41,0 -109.33,4.56 -163.42,13.54 -543.69,89.7 -913.06,604.7 -823.51,1148.3 19.86,120.59 61.09,235.47 122.56,340.76 178.18,305.77 508.61,495.9 862.16,495.9 54.48,0 109.55,-4.64 163.65,-13.62 263.31,-43.44 493.92,-186.63 649.43,-403.61 155.43,-216.68 217.22,-481.13 173.84,-744.68 -23.2,-140.3 -74.7,-271.31 -153.22,-389.08 -185.11,-280.06 -496.05,-447.51 -831.49,-447.51l0 0zm-1.14 145.47c289.79,0 556.37,148.43 711.28,382.76 64.89,97.54 110.47,209.45 130.63,332.17 76.69,464.86 -238.14,904 -703.07,980.69 -47.01,7.53 -93.8,11.26 -139.91,11.26 -306.54,0 -585.82,-165.18 -736.24,-423.24 -50.9,-87.34 -87.19,-185.41 -104.61,-291.01 -76.61,-464.94 238.13,-904.08 703.37,-980.77 46.94,-7.76 92.44,-11.86 138.55,-11.86l0 0z"/>
   <path class="fil8" d="M8522.84 8777.18c-189.06,811.48 -972.32,917.39 -1445.32,904.61 -51.2,-87.34 -87.87,-185.1 -105.67,-291.01 -78.14,-464.63 235.17,-904.61 700.17,-982.74 341.99,-57.52 670.36,98.07 850.82,369.14z"/>
   <path class="fil3" d="M7729.77 8976.21c25.49,154.22 -79.05,300.07 -233.42,325.48 -154.29,25.48 -300.07,-78.98 -325.47,-233.42 -25.42,-154.22 79.04,-300.07 233.41,-325.55 154.37,-25.42 300.07,79.05 325.48,233.49z"/>
   <path class="fil3" d="M8499.71 9304.29c50.82,23.2 36.9,326.61 -153,473.3 -168.74,130.17 -426.05,97.53 -440.66,44.58 -10.73,-39.1 114.65,-70.9 306.07,-234.64 201.46,-172.4 252.29,-299.45 287.59,-283.24z"/>
   <path class="fil9" d="M9695.1 7658.18c17.42,54.7 -339.17,248.78 -725.06,349.44 -625.99,163.5 -1241.64,58.21 -1244.68,-13.84 -1.45,-33.03 399.88,-103.02 1202.54,-241.87 644.86,-111.69 758.07,-122.34 767.2,-93.73z"/>
   <path class="fil9" d="M2964.57 4865.32c59.19,165.7 241.63,252.29 407.41,192.94 165.78,-59.27 252.13,-241.56 192.94,-407.64 -59.26,-165.7 -241.7,-251.98 -407.49,-192.64 -165.7,59.04 -252.13,241.56 -192.86,407.34z"/>
   <path class="fil4" d="M10559.39 12561.17c-356.06,80.18 -676.3,-49.99 -932.76,-253.05 -460.29,-363.97 -715.32,-963.11 -602.95,-1003.06 174.99,-61.32 677.05,169.28 1161.01,60.49 556.07,-125 887.03,-423.55 1168.91,-505.72 12.55,-3.73 24.8,-6.92 37.2,-9.81 290.25,-65.13 261.12,1465.86 -831.41,1711.15z"/>
   <path class="fil5" d="M10559.39 12561.17c-356.06,80.18 -676.3,-49.99 -932.76,-253.05 461.66,-205.73 1352.27,-684.2 1726.97,-1448.29 12.55,-3.73 24.8,-6.92 37.2,-9.81 290.25,-65.13 261.12,1465.86 -831.41,1711.15z"/>
  </g>
 </g>
</svg>
