<?xml version="1.0" encoding="UTF-8"?>
<!DOCTYPE svg PUBLIC "-//W3C//DTD SVG 1.0//EN" "http://www.w3.org/TR/2001/REC-SVG-20010904/DTD/svg10.dtd">
<!-- Creator: CorelDRAW -->
<svg xmlns="http://www.w3.org/2000/svg" xml:space="preserve" width="218.612mm" height="261.392mm" version="1.0" style="shape-rendering:geometricPrecision; text-rendering:geometricPrecision; image-rendering:optimizeQuality; fill-rule:evenodd; clip-rule:evenodd"
viewBox="0 0 21855.34 26132.15"
 xmlns:xlink="http://www.w3.org/1999/xlink"
 xmlns:xodm="http://www.corel.com/coreldraw/odm/2003">
 <defs>
  <style type="text/css">
   <![CDATA[
    .fil0 {fill:none}
    .fil14 {fill:#294F81;fill-rule:nonzero}
    .fil16 {fill:#296ABD;fill-rule:nonzero}
    .fil19 {fill:#2F4572;fill-rule:nonzero}
    .fil7 {fill:#326BAB;fill-rule:nonzero}
    .fil15 {fill:#33487A;fill-rule:nonzero}
    .fil17 {fill:#393760;fill-rule:nonzero}
    .fil18 {fill:#46AED2;fill-rule:nonzero}
    .fil1 {fill:#576BAE;fill-rule:nonzero}
    .fil2 {fill:#5776D2;fill-rule:nonzero}
    .fil3 {fill:#5B96DA;fill-rule:nonzero}
    .fil6 {fill:#5BACDA;fill-rule:nonzero}
    .fil12 {fill:#5FAEDE;fill-rule:nonzero}
    .fil11 {fill:#5FBBE8;fill-rule:nonzero}
    .fil13 {fill:#B1ECED;fill-rule:nonzero}
    .fil9 {fill:#B2C6FA;fill-rule:nonzero}
    .fil10 {fill:#C2DDFF;fill-rule:nonzero}
    .fil4 {fill:#D8E3FF;fill-rule:nonzero}
    .fil8 {fill:#DEFFFF;fill-rule:nonzero}
    .fil5 {fill:#E3EEFF;fill-rule:nonzero}
   ]]>
  </style>
 </defs>
 <g id="Camada_x0020_1">
  <metadata id="CorelCorpID_0Corel-Layer"/>
  <rect class="fil0" width="21855.34" height="26132.15"/>
  <g id="_1533997009680">
   <g>
    <path class="fil1" d="M13972.57 21040.32l-8935.4 513.33c-588.37,33.89 -1145.44,-421.47 -1244.24,-1016.55l-2541.29 -15324.05c-98.87,-595.39 298.03,-1105.37 886.68,-1139.26l8935.39 -513.31c588.36,-33.89 1145.37,421.47 1243.97,1016.57l2541.55 15324.06c98.87,595.38 -298.29,1105.32 -886.66,1139.21z"/>
    <path class="fil2" d="M12916.94 4542.68l2541.57 15323.99c98.52,595.38 -298.65,1105.34 -886.74,1139.22l-8935.33 513.35c-588.64,33.9 -1145.44,-421.23 -1244.31,-1016.57l-2541.56 -15324.34c-98.52,-594.83 298.37,-1105.02 886.67,-1138.91l8935.67 -513.38c588.16,-33.88 1145.43,421.53 1244.03,1016.64z"/>
    <path class="fil3" d="M12916.94 4542.68l34.37 206.44c-232.58,6133.3 -5633.66,9764.84 -9261.12,11520.36l-1839.63 -11091.15c-98.52,-594.83 298.37,-1105.02 886.67,-1138.91l8935.67 -513.38c588.16,-33.88 1145.43,421.53 1244.03,1016.64z"/>
    <path class="fil4" d="M12303.46 4977.35l2165.35 13055.7c85.39,515.15 -258.23,956.28 -767.19,985.54l-7864.45 451.75c-509.17,29.25 -991.19,-364.31 -1076.86,-879.47l-2165.08 -13055.69c-85.39,-515.16 257.96,-956.55 767.4,-985.82l7864.25 -451.75c509.16,-29.25 991.19,364.58 1076.58,879.74z"/>
    <path class="fil5" d="M12303.46 4977.35l327.29 1972.85c-2040.89,6871.16 -8311.57,8980.37 -8311.57,8980.37l-1723.96 -10395.4c-85.39,-515.16 257.96,-956.55 767.4,-985.82l7864.25 -451.75c509.16,-29.25 991.19,364.58 1076.58,879.74z"/>
    <path class="fil6" d="M10577.94 20167.9c60.29,362.67 -181.6,673.44 -540.47,694.14 -358.65,20.7 -698.05,-256.89 -758.35,-619.63 -60.08,-362.74 181.88,-673.77 540.48,-694.18 358.59,-20.74 698.33,256.66 758.34,619.67z"/>
    <path class="fil7" d="M9810.83 19495.43c-387.31,22.24 -648.66,358.11 -583.74,750.04 65.18,391.73 431.87,691.34 819.17,669.1 387.31,-22.24 648.66,-357.8 583.67,-749.8 -64.9,-392 -431.52,-691.59 -819.1,-669.34l0 0zm38.03 228.22c262.38,-15.31 511.76,188.61 555.71,454.05 44.03,265.44 -133.69,493.66 -396.08,508.89 -262.37,15.04 -511.74,-188.54 -555.77,-454.32 -43.96,-265.44 133.5,-493.66 396.14,-508.62l0 0z"/>
    <path class="fil3" d="M8407.98 20049.38l-3173.14 182.42c-89.82,5.17 -174.87,-64.43 -190.18,-155.55 -14.97,-90.77 45.53,-168.95 135.61,-174.05l3172.86 -182.15c90.03,-5.24 175.14,64.37 190.11,155.2 15.32,91.06 -45.51,168.96 -135.26,174.13z"/>
    <path class="fil3" d="M14386.54 19705.76l-3106.39 178.54c-89.75,5.17 -174.87,-64.44 -190.18,-155.28 -14.97,-91.04 45.53,-168.88 135.61,-174.11l3106.12 -178.48c90.02,-5.18 175.13,64.36 190.17,155.48 15.26,90.84 -45.59,168.67 -135.33,173.85z"/>
    <path class="fil8" d="M13576.69 18551.33l-7681.83 441.33c-246.04,14.29 -478.89,-176.16 -520.05,-424.8l0 0c-41.38,-248.9 124.72,-462.09 370.49,-476.3l7682.11 -441.19c245.76,-14.23 478.68,175.95 520.05,424.87l0 0c41.17,248.89 -124.73,462.08 -370.77,476.09z"/>
    <path class="fil9" d="M8518.96 6081.07c34.91,210.87 -2.59,405.47 -91.59,550.06 -88.73,144.39 -229.24,238.84 -399.75,248.36l-3323.18 191 -970.78 652.75c20.41,-33.34 111.26,-409.01 183.45,-717.46 -201.55,-122.89 -361.99,-359.13 -408.06,-636.75 -34.9,-210.86 2.59,-405.67 91.39,-550.33 89.01,-144.32 229.24,-238.77 399.75,-248.36l3774.38 -217.05c341.03,-19.46 674.51,306.06 744.39,727.78z"/>
    <path class="fil10" d="M7756.46 6317.05l-3488.51 200.53c-122.9,7.01 -239.32,-87.98 -260,-212.43l0 0c-20.75,-124.45 62.32,-231.07 185.22,-238.01l3488.51 -200.53c122.89,-7.01 239.31,87.98 260.06,212.42l0 0c20.68,124.39 -62.39,231.01 -185.28,238.02z"/>
    <path class="fil9" d="M9086.09 13793.46c34.91,210.86 120.85,398.18 231.83,531.42 110.5,132.95 246.04,211.41 380.09,203.86l2609.33 -150.03 937.44 543.04c-25.65,-30.75 -205.49,-390.91 -351.45,-686.63 118.81,-141.59 172.89,-390.23 126.84,-667.57 -34.98,-210.86 -121.13,-398.46 -231.56,-531.69 -111.05,-132.95 -246.31,-211.41 -380.09,-203.94l-2963.57 170.25c-268.03,15.58 -428.74,369.54 -358.86,791.28z"/>
    <path class="fil10" d="M9763.94 13946.9l2694.25 -155.01c108.94,-6.26 182.42,-100.63 164.06,-210.86l-8.58 -51.24c-18.1,-110.51 -121.32,-194.54 -230.26,-188.35l-2694.18 154.67c-108.93,6.26 -182.42,100.69 -164.33,211.2l8.58 51.17c18.3,110.24 121.6,194.61 230.46,188.42z"/>
    <path class="fil9" d="M8505 11621.1c41.11,247.06 21.71,474.26 -42.73,641.65 -64.16,167.12 -173.57,274.83 -312.8,282.58l-2710.23 155.76 -756.51 744.12c14.7,-38.58 66.95,-476.37 107.85,-835.72 -172.28,-148.26 -317.49,-428 -371.52,-753.71 -40.9,-247.41 -21.77,-474.54 42.39,-642.2 64.44,-167.19 173.64,-274.49 312.87,-282.52l3078.15 -176.97c278.36,-15.79 570.48,372.06 652.53,867.01z"/>
    <path class="fil10" d="M7817.49 11537l-2806.25 161.21c-110.98,6.46 -216.04,-79.41 -234.61,-192.03l-7.29 -43.41c-18.58,-112.55 56.13,-208.82 167.4,-215.02l2805.97 -161.19c111.05,-6.47 216.31,79.41 234.96,191.68l7.28 43.75c18.58,112.27 -56.47,208.55 -167.46,215.01z"/>
    <path class="fil10" d="M6991.66 12327.47l-1891.88 108.66c-92.41,5.18 -180.11,-66.27 -195.63,-159.9l-18.37 -111.52c-15.52,-93.7 46.88,-173.86 139.48,-179.3l1891.88 -108.66c92.34,-5.17 180.04,66.2 195.56,159.9l18.38 111.46c15.51,93.69 -46.82,173.91 -139.42,179.36z"/>
    <path class="fil9" d="M12006.73 9542.65c172.27,430.84 411.86,1026.97 433.09,1068.89 22.99,45.25 -980.85,-451 -1624.6,-772.36l-2223.52 127.59c-528.36,30.48 -1028.55,-378.05 -1117.28,-912.81l-93.34 -563.06c-88.53,-534.49 268.02,-992.48 796.1,-1022.76l2838.3 -163.24c528.63,-30.29 1028.74,378.52 1117.48,912.8l93.42 563.27c49.4,298.3 -39.88,572.31 -219.64,761.68z"/>
    <path class="fil10" d="M11413.66 8339.57l-3286.98 188.89c-122.89,6.94 -239.31,-88.26 -259.99,-212.7l0 0c-20.48,-124.46 62.33,-230.8 185.48,-238.02l3286.71 -188.89c122.89,-7.01 239.38,88.26 260.06,212.43l0 0c20.41,124.45 -62.39,231.08 -185.28,238.29z"/>
    <path class="fil10" d="M9833.82 9362.6l-1560.16 89.83c-119.56,6.67 -232.58,-85.67 -252.51,-206.51l-50.49 -304.29c-20.13,-120.85 60.55,-224.27 179.83,-231.28l1560.17 -89.56c119.55,-6.94 232.64,85.41 252.78,206.25l50.5 304.28c19.86,120.79 -60.56,224.55 -180.12,231.28z"/>
    <path class="fil10" d="M11573.09 9262.72l-1050.53 60.29c-119.21,7 -232.57,-85.41 -252.51,-206.44l-50.41 -304.02c-19.94,-121.12 60.48,-224.62 180.03,-231.56l1050.19 -60.28c119.55,-6.74 232.64,85.67 252.84,206.44l50.43 304.29c19.93,120.84 -60.56,224.34 -180.04,231.28z"/>
    <path class="fil9" d="M13273.97 16419.6l214.74 787.54 -1017.59 -650.44 -1390.68 79.68c-277.62,16.06 -540.27,-198.42 -586.81,-479.16l-44.77 -270.34c-46.61,-280.74 140.51,-521.42 418.13,-537.2l1923.11 -110.71c277.42,-15.79 540.27,198.96 586.6,479.7l44.97 270.41c28.72,173.3 -31.77,331.44 -147.71,430.51z"/>
    <path class="fil10" d="M11033.84 16188.32l1863.43 -107.17c123.17,-6.95 205.9,-113.57 185.49,-238.02l0 0c-20.68,-124.46 -137.1,-219.44 -259.99,-212.43l-1863.71 107.1c-122.89,7.01 -205.9,113.56 -185.28,238.09l0 0c20.75,124.45 137.17,219.37 260.06,212.43z"/>
   </g>
   <g>
    <path class="fil11" d="M20332.69 17815c0,2381.16 -1670.59,5178.18 -4324.75,5178.18 -1644.81,0 -2998.39,-1007.06 -3789.35,-2353.13 -486.78,-826.56 -760.91,-1780.96 -760.91,-2708.83 0,-2439.51 2662.52,-2323.28 4349.84,-2323.28 1850.41,0 4047.37,-141.71 4456.87,1581.76 44.88,185.66 68.3,393.61 68.3,625.3z"/>
    <path class="fil12" d="M20332.69 17815c0,2381.16 -1670.59,5178.18 -4324.75,5178.18 -1644.81,0 -2998.39,-1007.06 -3789.35,-2353.13 1648.25,775.73 6343.49,2382.91 8045.8,-3450.36 44.88,185.66 68.3,393.61 68.3,625.3z"/>
    <path class="fil13" d="M13754.64 16550.18c-344.78,562.01 -100.93,1361.94 491.05,1676.07 625.6,332.01 1477.1,34.39 1709.62,-625.29 221.26,-627.05 -204.76,-1329.54 -814.99,-1526.84 -489.38,-157.83 -1099.08,8.44 -1385.68,476.06z"/>
    <path class="fil11" d="M11338.19 18097.57c1264.2,191.44 2084.14,33.54 1831.62,-872.35 -43.36,-155.24 -118.28,-333.14 -227.88,-535.02 -368.21,-675.95 -4906.31,-4139.38 -5271.03,-2322.44 -94,469.67 6.62,930.37 232.83,1359.89 649.87,1231.82 2335.98,2203.57 3434.46,2369.91z"/>
    <path class="fil12" d="M11338.19 18097.57c1264.2,191.44 2084.14,33.54 1831.62,-872.35 -713.22,153.04 -2290.66,121.78 -5266.08,-1497.57 649.87,1231.82 2335.98,2203.57 3434.46,2369.91z"/>
    <path class="fil13" d="M9966.13 15319.59c722.8,475.45 1995.31,1218.19 2087.87,1085.46 83.36,-119.49 -782.06,-967.79 -1855.66,-1531.18 -597.76,-313.83 -1322.55,-572.06 -1376.1,-473.4 -66.47,122.62 919.2,771.03 1143.89,919.12z"/>
    <path class="fil11" d="M20592.37 12497.65c-170.07,2359.19 -5579.37,3138.66 -8109.77,1712.75 -702.73,-396.2 -1183.44,-962.79 -1268.17,-1712.75 -388.75,-3449.82 1894.98,-6608.4 4519.09,-6608.4 951.22,0 2068.17,364.1 2993.15,1170.51 1185.48,1032.44 2057.15,2790.67 1865.7,5437.89z"/>
    <path class="fil14" d="M12860.62 12936.37c-235.95,-76.89 -389.59,-228.18 -484.13,-389.28 -169.76,-289.26 -149.23,-610.85 -70.58,-592.6 122.39,28.91 307.74,413.02 628.48,517.45 368.45,120.03 700.53,-35.9 892.81,17.35 8.75,2.28 16.82,4.94 24.87,7.52 192.36,62.75 -267.51,675.28 -991.45,439.56z"/>
    <path class="fil12" d="M20592.37 12497.65c-170.07,2359.19 -5579.37,3138.66 -8109.77,1712.75 1545.94,256.55 6148,819.93 6976,-1397.25 712.08,-1906.77 -168.32,-4450.78 -731.93,-5753.4 1185.48,1032.44 2057.15,2790.67 1865.7,5437.89z"/>
    <path class="fil14" d="M16879.07 10769.55c-98.64,463.06 -611.07,651.61 -1229.44,696.71 -651.09,47.47 -1419.53,-63.88 -1945.87,-182.47 -753.47,-169.46 -2178.47,-628.18 -2588.89,-1278.66 -96.29,-152.73 -136.45,-315.81 -99.71,-487.93 107.31,-501.48 365.55,-1013.44 736.04,-1278.06 370.19,-264.61 852.64,-281.72 1310.76,-183.91l2546.29 543.98c532.43,113.64 947.8,489.68 1160.08,981.34 152.96,354.9 200.73,769.36 110.74,1188.99z"/>
    <path class="fil15" d="M16879.07 10769.55c-98.64,463.06 -611.07,651.61 -1229.44,696.71 -651.09,47.47 -1419.53,-63.88 -1945.87,-182.47 -753.47,-169.46 -2178.47,-628.18 -2588.89,-1278.66 1506.93,268.72 4108.43,535.62 5653.45,-424.58 152.96,354.9 200.73,769.36 110.74,1188.99z"/>
    <path class="fil16" d="M14693.46 8633.99c-4.64,56.97 -365.54,116.22 -718.17,78.35 -572.06,-61.31 -1042.34,-370.5 -1019.75,-438.72 10.34,-31.26 364.93,40.47 1073.82,185.36 569.47,116.3 666.68,144.89 664.09,175.01z"/>
    <path class="fil17" d="M13071.54 9268.8c0,426.93 -346.23,773.08 -773.15,773.08 -330.26,0 -612,-206.51 -722.74,-497.44 -32.7,-85.65 -50.89,-178.44 -50.89,-275.65 0,-427.17 346.16,-773.39 773.62,-773.39 314.44,0 584.83,187.72 705.46,456.98 43.66,96.6 67.69,203.62 67.69,316.42z"/>
    <path class="fil18" d="M12298.38 8349.67c-507.03,0 -919.43,412.41 -919.43,919.12 0,112.49 20.23,222.7 60.47,327.66 134.78,353.77 480.09,591.23 858.96,591.23 506.71,0 918.89,-412.18 918.89,-918.89 0,-131.06 -27.15,-257.7 -80.71,-376.27 -147.48,-329.73 -476.59,-542.85 -838.19,-542.85l0 0zm-0.23 145.73c314.36,0 585.06,187.72 705.69,456.98 43.66,96.6 67.69,203.62 67.69,316.42 0,426.93 -346.23,773.08 -773.15,773.08 -330.26,0 -612,-206.51 -722.74,-497.44 -32.7,-85.65 -50.89,-178.44 -50.89,-275.65 0,-427.17 346.16,-773.39 773.39,-773.39l0 0z"/>
    <path class="fil19" d="M13003.23 8951.54c-288.65,697.86 -1004.76,676.49 -1425.84,595.18 -33.01,-85.57 -51.49,-178.44 -51.81,-275.58 -1.44,-426.93 343.66,-774.29 771.03,-775.74 314.14,-1.14 585.14,187.41 706.61,456.14z"/>
    <path class="fil13" d="M12264.6 9011.93c0,141.78 -115.15,256.86 -256.85,256.86 -141.7,0 -256.55,-115.08 -256.55,-256.86 0,-141.7 114.85,-256.55 256.55,-256.55 141.7,0 256.85,114.85 256.85,256.55z"/>
    <path class="fil13" d="M12904.59 9418.86c41.98,28.07 -14.99,297.63 -206.51,400.61 -169.99,91.67 -395.28,24.57 -400.54,-25.17 -4.02,-36.43 112.81,-46.24 308.28,-164.6 205.37,-124.36 269.57,-230.46 298.78,-210.84z"/>
    <path class="fil17" d="M15983.08 10041.88c0,427.16 -346.24,773.38 -773.39,773.38 -329.95,0 -611.68,-206.49 -722.73,-497.51 -32.7,-85.58 -50.66,-178.75 -50.66,-275.88 0,-426.86 346.23,-773.08 773.38,-773.08 314.37,0 584.84,187.72 705.4,456.97 43.73,96.6 67.99,203.62 67.99,316.12z"/>
    <path class="fil18" d="M15209.68 9123.06c-506.71,0 -919.12,412.1 -919.12,918.81 0,112.79 20.23,223.01 60.17,327.97 135.08,353.46 480.09,591.14 858.95,591.14 506.72,0 919.2,-412.4 919.2,-919.11 0,-131.05 -27.23,-257.7 -81.01,-376.27 -147.56,-329.42 -476.37,-542.54 -838.2,-542.54l0 0zm0 145.73c314.37,0 584.84,187.72 705.4,456.97 43.73,96.6 67.99,203.62 67.99,316.12 0,427.16 -346.24,773.38 -773.39,773.38 -329.95,0 -611.68,-206.49 -722.73,-497.51 -32.7,-85.58 -50.66,-178.75 -50.66,-275.88 0,-426.86 345.93,-773.08 773.38,-773.08l0 0z"/>
    <path class="fil19" d="M15914.54 9724.01c-288.65,697.94 -1004.76,677.1 -1425.84,596.09 -33.01,-85.57 -51.19,-178.43 -51.49,-275.65 -1.46,-427.15 343.56,-774.52 770.71,-775.66 314.45,-1.14 585.13,186.5 706.61,455.22z"/>
    <path class="fil13" d="M15175.84 9785.33c0,141.7 -114.78,256.55 -256.55,256.55 -141.7,0 -256.78,-114.85 -256.78,-256.55 0,-141.7 115.08,-256.78 256.78,-256.78 141.77,0 256.55,115.08 256.55,256.78z"/>
    <path class="fil13" d="M15816.2 10192.25c41.91,28.06 -15.3,297.33 -206.51,400.61 -170.06,91.36 -395.36,24.26 -400.84,-25.17 -3.79,-36.43 113.11,-46.32 308.28,-164.6 205.67,-124.6 269.87,-230.77 299.08,-210.84z"/>
    <path class="fil11" d="M16170.19 6759.47c-3.12,-21.67 -77.2,-536.77 175.31,-1172.79 230.77,-581.86 790.97,-1379.82 2147.74,-1876.73l87.62 239.75c-1012.3,370.57 -1683,948.71 -1993.34,1718.6 -231.37,574.41 -165.73,1048.42 -164.82,1052.98l-252.52 38.19z"/>
    <path class="fil14" d="M19184.78 4208.61c-262.63,196.39 -634.87,142.84 -831.5,-119.8 -196.39,-262.56 -142.91,-634.81 119.73,-831.5 262.56,-196.39 634.8,-142.84 831.19,119.8 196.7,262.56 143.15,634.8 -119.42,831.5z"/>
    <path class="fil16" d="M18672.51 3353.38c-119.72,128.93 -112.5,330.56 16.51,450.28 129,120.02 330.56,112.5 450.59,-16.51 119.71,-128.92 112.26,-330.56 -16.75,-450.28 -129,-119.72 -330.55,-112.5 -450.35,16.51z"/>
    <path class="fil13" d="M17243.48 6889.98c83.9,504.35 -839.03,1177.96 -1724.6,1259.8 -786.4,72.94 -1745.98,-302.2 -1795.5,-784.65 -52.64,-511.65 921.78,-1102.49 1795.5,-1166.47 710.94,-51.73 1646.79,223.31 1724.6,691.31z"/>
   </g>
  </g>
 </g>
</svg>
