<?xml version="1.0" encoding="UTF-8"?>
<!DOCTYPE svg PUBLIC "-//W3C//DTD SVG 1.0//EN" "http://www.w3.org/TR/2001/REC-SVG-20010904/DTD/svg10.dtd">
<!-- Creator: CorelDRAW -->
<svg xmlns="http://www.w3.org/2000/svg" xml:space="preserve" width="218.612mm" height="261.392mm" version="1.0" style="shape-rendering:geometricPrecision; text-rendering:geometricPrecision; image-rendering:optimizeQuality; fill-rule:evenodd; clip-rule:evenodd"
viewBox="0 0 21861.2 26139.16"
 xmlns:xlink="http://www.w3.org/1999/xlink"
 xmlns:xodm="http://www.corel.com/coreldraw/odm/2003">
 <defs>
  <style type="text/css">
   <![CDATA[
    .fil0 {fill:none}
    .fil14 {fill:#193669;fill-rule:nonzero}
    .fil16 {fill:#194FB6;fill-rule:nonzero}
    .fil19 {fill:#1D2E58;fill-rule:nonzero}
    .fil7 {fill:#1F50A0;fill-rule:nonzero}
    .fil15 {fill:#203060;fill-rule:nonzero}
    .fil17 {fill:#242345;fill-rule:nonzero}
    .fil18 {fill:#2EA4CF;fill-rule:nonzero}
    .fil1 {fill:#3D50A4;fill-rule:nonzero}
    .fil2 {fill:#3D5CCF;fill-rule:nonzero}
    .fil3 {fill:#4184D8;fill-rule:nonzero}
    .fil6 {fill:#41A1D8;fill-rule:nonzero}
    .fil12 {fill:#44A4DC;fill-rule:nonzero}
    .fil11 {fill:#44B4E7;fill-rule:nonzero}
    .fil13 {fill:#A8EBED;fill-rule:nonzero}
    .fil9 {fill:#A9C1FA;fill-rule:nonzero}
    .fil10 {fill:#BCDBFF;fill-rule:nonzero}
    .fil4 {fill:#D6E2FF;fill-rule:nonzero}
    .fil8 {fill:#DCFFFF;fill-rule:nonzero}
    .fil5 {fill:#E2EEFF;fill-rule:nonzero}
   ]]>
  </style>
 </defs>
 <g id="Camada_x0020_1">
  <metadata id="CorelCorpID_0Corel-Layer"/>
  <rect class="fil0" width="21861.2" height="26139.16"/>
  <g id="_1533997009680">
   <g>
    <path class="fil1" d="M13976.32 21045.96l-8937.8 513.47c-588.53,33.9 -1145.75,-421.58 -1244.57,-1016.82l-2541.97 -15328.16c-98.9,-595.55 298.11,-1105.67 886.92,-1139.57l8937.79 -513.45c588.52,-33.9 1145.68,421.58 1244.3,1016.84l2542.23 15328.17c98.9,595.54 -298.37,1105.62 -886.9,1139.52z"/>
    <path class="fil2" d="M12920.4 4543.9l2542.25 15328.1c98.55,595.54 -298.73,1105.64 -886.98,1139.53l-8937.73 513.49c-588.8,33.91 -1145.75,-421.34 -1244.64,-1016.84l-2542.24 -15328.45c-98.55,-594.99 298.45,-1105.32 886.91,-1139.22l8938.07 -513.52c588.32,-33.89 1145.74,421.64 1244.36,1016.91z"/>
    <path class="fil3" d="M12920.4 4543.9l34.38 206.5c-232.64,6134.94 -5635.17,9767.46 -9263.6,11523.45l-1840.12 -11094.12c-98.55,-594.99 298.45,-1105.32 886.91,-1139.22l8938.07 -513.52c588.32,-33.89 1145.74,421.64 1244.36,1016.91z"/>
    <path class="fil4" d="M12306.76 4978.69l2165.93 13059.2c85.41,515.29 -258.3,956.54 -767.4,985.8l-7866.56 451.87c-509.31,29.26 -991.46,-364.41 -1077.15,-879.71l-2165.66 -13059.19c-85.41,-515.3 258.03,-956.81 767.61,-986.08l7866.36 -451.87c509.3,-29.26 991.46,364.68 1076.87,879.98z"/>
    <path class="fil5" d="M12306.76 4978.69l327.38 1973.38c-2041.44,6873 -8313.8,8982.78 -8313.8,8982.78l-1724.42 -10398.19c-85.41,-515.3 258.03,-956.81 767.61,-986.08l7866.36 -451.87c509.3,-29.26 991.46,364.68 1076.87,879.98z"/>
    <path class="fil6" d="M10580.78 20173.31c60.31,362.77 -181.65,673.62 -540.61,694.33 -358.75,20.71 -698.24,-256.96 -758.55,-619.8 -60.1,-362.84 181.93,-673.95 540.62,-694.37 358.69,-20.75 698.52,256.73 758.54,619.84z"/>
    <path class="fil7" d="M9813.46 19500.66c-387.41,22.25 -648.83,358.21 -583.9,750.24 65.2,391.84 431.99,691.53 819.39,669.28 387.41,-22.25 648.83,-357.9 583.83,-750 -64.92,-392.11 -431.64,-691.78 -819.32,-669.52l0 0zm38.04 228.28c262.45,-15.31 511.9,188.66 555.86,454.17 44.04,265.51 -133.73,493.79 -396.19,509.03 -262.44,15.04 -511.88,-188.59 -555.92,-454.44 -43.97,-265.51 133.54,-493.79 396.25,-508.76l0 0z"/>
    <path class="fil3" d="M8410.23 20054.76l-3173.99 182.47c-89.84,5.17 -174.92,-64.45 -190.23,-155.59 -14.97,-90.79 45.54,-169 135.65,-174.1l3173.71 -182.2c90.05,-5.24 175.19,64.39 190.16,155.24 15.32,91.08 -45.52,169.01 -135.3,174.18z"/>
    <path class="fil3" d="M14390.4 19711.05l-3107.22 178.59c-89.77,5.17 -174.92,-64.46 -190.23,-155.32 -14.97,-91.06 45.54,-168.93 135.65,-174.16l3106.95 -178.53c90.04,-5.18 175.18,64.38 190.22,155.52 15.26,90.86 -45.6,168.72 -135.37,173.9z"/>
    <path class="fil8" d="M13580.33 18556.31l-7683.89 441.45c-246.11,14.29 -479.02,-176.21 -520.19,-424.91l0 0c-41.39,-248.97 124.75,-462.21 370.59,-476.43l7684.17 -441.31c245.83,-14.23 478.81,176 520.19,424.98l0 0c41.18,248.96 -124.76,462.2 -370.87,476.22z"/>
    <path class="fil9" d="M8521.24 6082.7c34.92,210.93 -2.59,405.58 -91.61,550.21 -88.75,144.43 -229.3,238.9 -399.86,248.43l-3324.07 191.05 -971.04 652.93c20.42,-33.35 111.29,-409.12 183.5,-717.65 -201.6,-122.92 -362.09,-359.23 -408.17,-636.92 -34.91,-210.92 2.59,-405.78 91.41,-550.48 89.03,-144.36 229.3,-238.83 399.86,-248.43l3775.39 -217.11c341.12,-19.47 674.69,306.14 744.59,727.98l0 -0.01z"/>
    <path class="fil10" d="M7758.54 6318.75l-3489.45 200.58c-122.93,7.01 -239.38,-88 -260.07,-212.49l0 0c-20.76,-124.48 62.34,-231.13 185.27,-238.07l3489.45 -200.58c122.92,-7.01 239.37,88 260.13,212.48l0 0c20.69,124.42 -62.41,231.07 -185.33,238.08z"/>
    <path class="fil9" d="M9088.53 13797.16c34.92,210.92 120.88,398.29 231.89,531.56 110.53,132.99 246.11,211.47 380.19,203.91l2610.03 -150.07 937.69 543.19c-25.66,-30.76 -205.55,-391.01 -351.54,-686.81 118.84,-141.63 172.94,-390.33 126.87,-667.75 -34.99,-210.92 -121.16,-398.57 -231.62,-531.83 -111.08,-132.99 -246.38,-211.47 -380.19,-203.99l-2964.36 170.3c-268.1,15.58 -428.85,369.64 -358.96,791.49z"/>
    <path class="fil10" d="M9766.56 13950.64l2694.97 -155.05c108.97,-6.26 182.47,-100.66 164.1,-210.92l-8.58 -51.25c-18.1,-110.54 -121.35,-194.59 -230.32,-188.4l-2694.9 154.71c-108.96,6.26 -182.47,100.72 -164.37,211.26l8.58 51.18c18.3,110.27 121.63,194.66 230.52,188.47z"/>
    <path class="fil9" d="M8507.28 11624.22c41.12,247.13 21.72,474.39 -42.74,641.82 -64.18,167.16 -173.62,274.9 -312.88,282.66l-2710.96 155.8 -756.71 744.32c14.7,-38.59 66.97,-476.5 107.88,-835.94 -172.33,-148.3 -317.58,-428.11 -371.62,-753.91 -40.91,-247.48 -21.78,-474.67 42.4,-642.37 64.46,-167.23 173.69,-274.56 312.95,-282.6l3078.98 -177.02c278.43,-15.79 570.63,372.16 652.7,867.24z"/>
    <path class="fil10" d="M7819.59 11540.09l-2807 161.25c-111.01,6.46 -216.1,-79.43 -234.67,-192.08l-7.29 -43.42c-18.58,-112.58 56.15,-208.88 167.44,-215.08l2806.72 -161.23c111.08,-6.47 216.37,79.43 235.02,191.73l7.28 43.76c18.58,112.3 -56.49,208.61 -167.5,215.07z"/>
    <path class="fil10" d="M6993.53 12330.78l-1892.39 108.69c-92.43,5.18 -180.16,-66.29 -195.68,-159.94l-18.37 -111.55c-15.52,-93.73 46.89,-173.91 139.52,-179.35l1892.39 -108.69c92.36,-5.17 180.09,66.22 195.61,159.94l18.38 111.49c15.51,93.72 -46.83,173.96 -139.46,179.41z"/>
    <path class="fil9" d="M12009.95 9545.21c172.32,430.96 411.97,1027.25 433.21,1069.18 23,45.26 -981.11,-451.12 -1625.04,-772.57l-2224.12 127.62c-528.5,30.49 -1028.83,-378.15 -1117.58,-913.05l-93.37 -563.21c-88.55,-534.63 268.09,-992.75 796.31,-1023.03l2839.06 -163.28c528.77,-30.3 1029.02,378.62 1117.78,913.04l93.45 563.42c49.41,298.38 -39.89,572.46 -219.7,761.88z"/>
    <path class="fil10" d="M11416.72 8341.81l-3287.86 188.94c-122.92,6.94 -239.37,-88.28 -260.06,-212.76l0 0c-20.49,-124.49 62.35,-230.86 185.53,-238.08l3287.59 -188.94c122.92,-7.01 239.44,88.28 260.13,212.49l0 0c20.42,124.48 -62.41,231.14 -185.33,238.35z"/>
    <path class="fil10" d="M9836.46 9365.11l-1560.58 89.85c-119.59,6.67 -232.64,-85.69 -252.58,-206.57l-50.5 -304.37c-20.14,-120.88 60.57,-224.33 179.88,-231.34l1560.59 -89.58c119.58,-6.94 232.7,85.43 252.85,206.31l50.51 304.36c19.87,120.82 -60.58,224.61 -180.17,231.34z"/>
    <path class="fil10" d="M11576.19 9265.21l-1050.81 60.31c-119.24,7 -232.63,-85.43 -252.58,-206.5l-50.42 -304.1c-19.95,-121.15 60.5,-224.68 180.08,-231.62l1050.47 -60.3c119.58,-6.74 232.7,85.69 252.91,206.5l50.44 304.37c19.94,120.87 -60.58,224.4 -180.09,231.34z"/>
    <path class="fil9" d="M13277.53 16424l214.8 787.75 -1017.86 -650.61 -1391.05 79.7c-277.69,16.06 -540.41,-198.47 -586.97,-479.29l-44.78 -270.41c-46.62,-280.82 140.55,-521.56 418.24,-537.34l1923.63 -110.74c277.49,-15.79 540.41,199.01 586.76,479.83l44.98 270.48c28.73,173.35 -31.78,331.53 -147.75,430.63z"/>
    <path class="fil10" d="M11036.8 16192.66l1863.93 -107.2c123.2,-6.95 205.96,-113.6 185.54,-238.08l0 0c-20.69,-124.49 -137.14,-219.5 -260.06,-212.49l-1864.21 107.13c-122.92,7.01 -205.96,113.59 -185.33,238.15l0 0c20.76,124.48 137.21,219.43 260.13,212.49z"/>
   </g>
   <g>
    <path class="fil11" d="M20338.14 17819.78c0,2381.8 -1671.04,5179.57 -4325.91,5179.57 -1645.25,0 -2999.19,-1007.33 -3790.37,-2353.76 -486.91,-826.78 -761.11,-1781.44 -761.11,-2709.56 0,-2440.16 2663.23,-2323.9 4351.01,-2323.9 1850.91,0 4048.46,-141.75 4458.07,1582.18 44.89,185.71 68.32,393.72 68.32,625.47l-0.01 0z"/>
    <path class="fil12" d="M20338.14 17819.78c0,2381.8 -1671.04,5179.57 -4325.91,5179.57 -1645.25,0 -2999.19,-1007.33 -3790.37,-2353.76 1648.69,775.94 6345.19,2383.55 8047.96,-3451.29 44.89,185.71 68.32,393.72 68.32,625.47l0 0.01z"/>
    <path class="fil13" d="M13758.33 16554.62c-344.87,562.16 -100.96,1362.31 491.18,1676.52 625.77,332.1 1477.5,34.4 1710.08,-625.46 221.32,-627.22 -204.81,-1329.9 -815.21,-1527.25 -489.51,-157.87 -1099.37,8.44 -1386.05,476.19z"/>
    <path class="fil11" d="M11341.23 18102.42c1264.54,191.49 2084.7,33.55 1832.11,-872.58 -43.37,-155.28 -118.31,-333.23 -227.94,-535.16 -368.31,-676.13 -4907.63,-4140.49 -5272.44,-2323.06 -94.03,469.8 6.62,930.62 232.89,1360.25 650.04,1232.15 2336.61,2204.16 3435.38,2370.55z"/>
    <path class="fil12" d="M11341.23 18102.42c1264.54,191.49 2084.7,33.55 1832.11,-872.58 -713.41,153.08 -2291.27,121.81 -5267.49,-1497.97 650.04,1232.15 2336.61,2204.16 3435.38,2370.55z"/>
    <path class="fil13" d="M9968.8 15323.7c722.99,475.58 1995.85,1218.52 2088.43,1085.75 83.38,-119.52 -782.27,-968.05 -1856.16,-1531.59 -597.92,-313.91 -1322.9,-572.21 -1376.47,-473.53 -66.49,122.65 919.45,771.24 1144.2,919.37z"/>
    <path class="fil11" d="M20597.89 12501c-170.12,2359.82 -5580.87,3139.5 -8111.94,1713.21 -702.92,-396.31 -1183.76,-963.05 -1268.51,-1713.21 -388.85,-3450.75 1895.49,-6610.17 4520.3,-6610.17 951.48,0 2068.72,364.2 2993.95,1170.82 1185.8,1032.72 2057.7,2791.42 1866.2,5439.35z"/>
    <path class="fil14" d="M12864.07 12939.84c-236.01,-76.91 -389.69,-228.24 -484.26,-389.38 -169.81,-289.34 -149.27,-611.01 -70.6,-592.76 122.42,28.92 307.82,413.13 628.65,517.59 368.55,120.06 700.72,-35.91 893.05,17.35 8.75,2.28 16.82,4.94 24.88,7.52 192.41,62.77 -267.58,675.46 -991.72,439.68z"/>
    <path class="fil12" d="M20597.89 12501c-170.12,2359.82 -5580.87,3139.5 -8111.94,1713.21 1546.35,256.62 6149.65,820.15 6977.87,-1397.62 712.27,-1907.28 -168.37,-4451.97 -732.13,-5754.94 1185.8,1032.72 2057.7,2791.42 1866.2,5439.35z"/>
    <path class="fil14" d="M16883.6 10772.44c-98.67,463.18 -611.23,651.78 -1229.77,696.9 -651.26,47.48 -1419.91,-63.9 -1946.39,-182.52 -753.67,-169.51 -2179.05,-628.35 -2589.58,-1279 -96.32,-152.77 -136.49,-315.89 -99.74,-488.06 107.34,-501.61 365.65,-1013.71 736.24,-1278.4 370.29,-264.68 852.87,-281.8 1311.11,-183.96l2546.97 544.13c532.57,113.67 948.05,489.81 1160.39,981.6 153,355 200.78,769.57 110.77,1189.31z"/>
    <path class="fil15" d="M16883.6 10772.44c-98.67,463.18 -611.23,651.78 -1229.77,696.9 -651.26,47.48 -1419.91,-63.9 -1946.39,-182.52 -753.67,-169.51 -2179.05,-628.35 -2589.58,-1279 1507.33,268.79 4109.53,535.76 5654.97,-424.69 153,355 200.78,769.57 110.77,1189.31z"/>
    <path class="fil16" d="M14697.4 8636.31c-4.64,56.99 -365.64,116.25 -718.36,78.37 -572.21,-61.33 -1042.62,-370.6 -1020.02,-438.84 10.34,-31.27 365.03,40.48 1074.11,185.41 569.62,116.33 666.86,144.93 664.27,175.06z"/>
    <path class="fil17" d="M13075.04 9271.29c0,427.04 -346.32,773.29 -773.36,773.29 -330.35,0 -612.16,-206.57 -722.93,-497.57 -32.71,-85.67 -50.9,-178.49 -50.9,-275.72 0,-427.28 346.25,-773.6 773.83,-773.6 314.52,0 584.99,187.77 705.65,457.1 43.67,96.63 67.71,203.67 67.71,316.5z"/>
    <path class="fil18" d="M12301.68 8351.91c-507.17,0 -919.68,412.52 -919.68,919.37 0,112.52 20.24,222.76 60.49,327.75 134.82,353.86 480.22,591.39 859.19,591.39 506.85,0 919.14,-412.29 919.14,-919.14 0,-131.1 -27.16,-257.77 -80.73,-376.37 -147.52,-329.82 -476.72,-543 -838.41,-543l0 0zm-0.23 145.77c314.44,0 585.22,187.77 705.88,457.1 43.67,96.63 67.71,203.67 67.71,316.5 0,427.04 -346.32,773.29 -773.36,773.29 -330.35,0 -612.16,-206.57 -722.93,-497.57 -32.71,-85.67 -50.9,-178.49 -50.9,-275.72 0,-427.28 346.25,-773.6 773.6,-773.6l0 0z"/>
    <path class="fil19" d="M13006.72 8953.94c-288.73,698.05 -1005.03,676.67 -1426.22,595.34 -33.02,-85.59 -51.5,-178.49 -51.82,-275.65 -1.44,-427.04 343.75,-774.5 771.24,-775.95 314.22,-1.14 585.3,187.46 706.8,456.26z"/>
    <path class="fil13" d="M12267.89 9014.35c0,141.82 -115.18,256.93 -256.92,256.93 -141.74,0 -256.62,-115.11 -256.62,-256.93 0,-141.74 114.88,-256.62 256.62,-256.62 141.74,0 256.92,114.88 256.92,256.62z"/>
    <path class="fil13" d="M12908.05 9421.39c41.99,28.08 -14.99,297.71 -206.57,400.72 -170.04,91.69 -395.39,24.58 -400.65,-25.18 -4.02,-36.44 112.84,-46.25 308.36,-164.64 205.43,-124.39 269.64,-230.52 298.86,-210.9z"/>
    <path class="fil17" d="M15987.37 10044.57c0,427.27 -346.33,773.59 -773.6,773.59 -330.04,0 -611.84,-206.55 -722.92,-497.64 -32.71,-85.6 -50.67,-178.8 -50.67,-275.95 0,-426.97 346.32,-773.29 773.59,-773.29 314.45,0 585,187.77 705.59,457.09 43.74,96.63 68.01,203.67 68.01,316.2z"/>
    <path class="fil18" d="M15213.76 9125.51c-506.85,0 -919.37,412.21 -919.37,919.06 0,112.82 20.24,223.07 60.19,328.06 135.12,353.55 480.22,591.3 859.18,591.3 506.86,0 919.45,-412.51 919.45,-919.36 0,-131.09 -27.24,-257.77 -81.03,-376.37 -147.6,-329.51 -476.5,-542.69 -838.42,-542.69l0 0zm0 145.77c314.45,0 585,187.77 705.59,457.09 43.74,96.63 68.01,203.67 68.01,316.2 0,427.27 -346.33,773.59 -773.6,773.59 -330.04,0 -611.84,-206.55 -722.92,-497.64 -32.71,-85.6 -50.67,-178.8 -50.67,-275.95 0,-426.97 346.02,-773.29 773.59,-773.29l0 0z"/>
    <path class="fil19" d="M15918.81 9726.62c-288.73,698.13 -1005.03,677.28 -1426.22,596.25 -33.02,-85.59 -51.2,-178.48 -51.5,-275.72 -1.46,-427.26 343.65,-774.73 770.92,-775.87 314.53,-1.14 585.29,186.55 706.8,455.34z"/>
    <path class="fil13" d="M15179.91 9787.96c0,141.74 -114.81,256.62 -256.62,256.62 -141.74,0 -256.85,-114.88 -256.85,-256.62 0,-141.74 115.11,-256.85 256.85,-256.85 141.81,0 256.62,115.11 256.62,256.85z"/>
    <path class="fil13" d="M15820.44 10194.98c41.92,28.07 -15.3,297.41 -206.57,400.72 -170.11,91.38 -395.47,24.27 -400.95,-25.18 -3.79,-36.44 113.14,-46.33 308.36,-164.64 205.73,-124.63 269.94,-230.83 299.16,-210.9z"/>
    <path class="fil11" d="M16174.53 6761.28c-3.12,-21.68 -77.22,-536.91 175.36,-1173.1 230.83,-582.02 791.18,-1380.19 2148.32,-1877.23l87.64 239.81c-1012.57,370.67 -1683.45,948.96 -1993.87,1719.06 -231.43,574.56 -165.77,1048.7 -164.86,1053.26l-252.59 38.2z"/>
    <path class="fil14" d="M19189.92 4209.74c-262.7,196.44 -635.04,142.88 -831.72,-119.83 -196.44,-262.63 -142.95,-634.98 119.76,-831.72 262.63,-196.44 634.97,-142.88 831.41,119.83 196.75,262.63 143.19,634.97 -119.45,831.72z"/>
    <path class="fil16" d="M18677.52 3354.28c-119.75,128.96 -112.53,330.65 16.51,450.4 129.03,120.05 330.65,112.53 450.71,-16.51 119.74,-128.95 112.29,-330.65 -16.75,-450.4 -129.03,-119.75 -330.64,-112.53 -450.47,16.51z"/>
    <path class="fil13" d="M17248.1 6891.83c83.92,504.49 -839.25,1178.28 -1725.06,1260.14 -786.61,72.96 -1746.45,-302.28 -1795.98,-784.86 -52.65,-511.79 922.03,-1102.79 1795.98,-1166.78 711.13,-51.74 1647.23,223.37 1725.06,691.5z"/>
   </g>
  </g>
 </g>
</svg>
