<?xml version="1.0" encoding="UTF-8"?>
<!DOCTYPE svg PUBLIC "-//W3C//DTD SVG 1.0//EN" "http://www.w3.org/TR/2001/REC-SVG-20010904/DTD/svg10.dtd">
<!-- Creator: CorelDRAW -->
<svg xmlns="http://www.w3.org/2000/svg" xml:space="preserve" width="218.612mm" height="261.392mm" version="1.0" style="shape-rendering:geometricPrecision; text-rendering:geometricPrecision; image-rendering:optimizeQuality; fill-rule:evenodd; clip-rule:evenodd"
viewBox="0 0 21861.2 26139.16"
 xmlns:xlink="http://www.w3.org/1999/xlink"
 xmlns:xodm="http://www.corel.com/coreldraw/odm/2003">
 <defs>
  <style type="text/css">
   <![CDATA[
    .fil0 {fill:none}
    .fil4 {fill:#193669;fill-rule:nonzero}
    .fil9 {fill:#194FB6;fill-rule:nonzero}
    .fil8 {fill:#1D2E58;fill-rule:nonzero}
    .fil5 {fill:#203060;fill-rule:nonzero}
    .fil6 {fill:#242345;fill-rule:nonzero}
    .fil7 {fill:#2EA4CF;fill-rule:nonzero}
    .fil2 {fill:#44A4DC;fill-rule:nonzero}
    .fil1 {fill:#44B4E7;fill-rule:nonzero}
    .fil3 {fill:#A8EBED;fill-rule:nonzero}
   ]]>
  </style>
 </defs>
 <g id="Camada_x0020_1">
  <metadata id="CorelCorpID_0Corel-Layer"/>
  <rect class="fil0" width="21861.2" height="26139.16"/>
  <g id="_2766216718928">
   <path class="fil1" d="M6259.44 15688.46c-129.4,571.22 -795.41,478.62 -1690.7,68.09 -1069.14,-490.27 -2587.42,-2204.61 -2272.1,-3572.71 0,-0.37 0,-0.37 0,-0.37 28.81,-124.7 72.55,-246.05 133.41,-363.82 729.07,-1409.64 3647.87,2513.42 3791.12,3156.85 67.82,304.77 77.65,538.8 38.27,711.97l0 -0.01z"/>
   <path class="fil2" d="M6259.44 15688.46c-129.4,571.22 -795.41,478.62 -1690.7,68.09 -1069.14,-490.27 -2587.42,-2204.61 -2272.1,-3572.71 471.36,1177.44 1584.25,3066.77 3962.8,3504.62z"/>
   <path class="fil3" d="M3850.37 12375.87c253.09,275.41 628.41,770.17 540.06,864.05 -90.26,95.94 -666.55,-223.52 -1058.49,-691.19 -267.59,-319.32 -498.44,-766.46 -410.44,-842.53 99.58,-86.05 598.86,310.56 928.87,669.67z"/>
   <path class="fil1" d="M15924.9 17186.94c0,2381.88 -1670.97,5179.62 -4325.85,5179.62 -1645.11,0 -2998.97,-1007.16 -3790.37,-2353.73 -486.69,-826.77 -761.15,-1781.44 -761.15,-2709.56 0,-2440.15 2663.26,-2323.9 4351.05,-2323.9 1851.06,0 4048.45,-141.82 4458.22,1582.11 44.82,185.86 68.1,393.64 68.1,625.46l-0.01 0 0.01 0z"/>
   <path class="fil2" d="M15924.9 17186.94c0,2381.88 -1670.97,5179.62 -4325.85,5179.62 -1645.11,0 -2998.97,-1007.16 -3790.37,-2353.73 1648.76,776.11 6345.34,2383.63 8048.11,-3451.36 44.82,185.86 68.1,393.64 68.1,625.46l0 0.01 0.01 0z"/>
   <path class="fil3" d="M7966.87 16357.22c-344.88,562.32 -100.96,1362.54 491.18,1676.68 625.93,332.02 1477.58,34.39 1710.23,-625.69 221.09,-626.98 -204.96,-1329.75 -815.29,-1526.87 -489.51,-158.1 -1099.45,8.29 -1386.12,475.88z"/>
   <path class="fil1" d="M19598.26 18915.21c-26.56,1094.66 -281.73,1762.87 -1008.23,1415.11 -124.7,-59.8 -263.55,-149.43 -417.39,-271.91 -515.44,-411.23 -2760.91,-4754.63 -1174.16,-4791.76 410.08,-9.51 783.72,143.94 1112.16,398.82 942.34,731.6 1510.98,2298.34 1487.62,3249.74z"/>
   <path class="fil2" d="M19598.26 18915.21c-26.56,1094.66 -281.73,1762.87 -1008.23,1415.11 235.08,-578.9 443.62,-1914.13 -479.39,-4664.85 942.34,731.6 1510.98,2298.34 1487.62,3249.74z"/>
   <path class="fil3" d="M17459.46 17344.29c293.45,680.32 730.53,1864.38 604.85,1922.58 -113.29,52.49 -699.87,-803.73 -1015.25,-1792.94 -175.74,-551.06 -285.53,-1200.94 -194.46,-1231.3 113.36,-37.81 513.55,890.08 604.85,1101.66l0.01 0z"/>
   <path class="fil1" d="M6854.36 9964.55c-156.74,-156.73 -278.52,-337.88 -362.7,-532.19 -194.3,-445.83 -193.59,-960.14 23.31,-1403.08 220.19,-449.49 635.75,-769.5 1119.49,-884.3 136.65,-32.86 279.23,-49.22 424.31,-47.09 330.65,1888.64 -1204.41,2866.66 -1204.41,2866.66z"/>
   <path class="fil2" d="M6854.36 9964.55c-156.74,-156.73 -278.52,-337.88 -362.7,-532.19 192.77,-336.5 386.39,-694.62 577.39,-1074.34 210.41,-418.45 398.04,-824.12 565.41,-1213.04 136.65,-32.86 279.23,-49.22 424.31,-47.09 -401.48,955.58 -802.96,1911.16 -1204.41,2866.66z"/>
   <path class="fil1" d="M16184.87 11868.19c-170.27,2359.96 -5580.95,3139.64 -8111.87,1713.27 -703.22,-396.31 -1184.02,-963.11 -1268.57,-1713.27 -388.96,-3450.67 1895.56,-6610.03 4520.15,-6610.03 951.48,0 2068.72,364.12 2993.87,1170.82 1185.8,1032.73 2057.77,2791.19 1866.43,5439.22l-0.01 -0.01z"/>
   <path class="fil1" d="M6700.8 8315.18c-19.29,-10.35 -475.98,-259.59 -834.13,-842.91 -327.74,-533.79 -631.23,-1460.62 -215.94,-2844.83l244.38 73.34c-309.81,1032.8 -248.6,1916.49 181.94,2626.48 321.21,529.52 740.34,760.89 744.53,763.17l-120.78 224.75z"/>
   <path class="fil4" d="M6464.18 4372.43c0,328.13 -265.96,594.11 -594.06,594.11 -328.07,0 -594.03,-265.98 -594.03,-594.11 0,-328.07 265.96,-593.97 594.03,-593.97 328.1,0 594.06,265.9 594.06,593.97z"/>
   <path class="fil4" d="M14780.71 9783.78c0,473.53 -519.86,765.16 -1189.83,938.32 -705.74,182.59 -1578.08,234.02 -2185.37,228.16 -869.38,-8.37 -2546.28,-159.31 -3150.98,-710.06 -141.82,-129.11 -224.59,-280.36 -224.59,-456.42 0,-512.94 213.64,-977.34 559.19,-1313.76 345.64,-336.14 823.13,-543.92 1350.61,-543.92l2931.18 0c613.14,0 1158.87,281.05 1508.08,717.76 251.83,314.98 401.71,710.52 401.71,1139.92z"/>
   <path class="fil5" d="M14780.71 9783.78c0,473.53 -519.86,765.16 -1189.83,938.32 -705.74,182.59 -1578.08,234.02 -2185.37,228.16 -869.38,-8.37 -2546.28,-159.31 -3150.98,-710.06 1722.03,-51.81 4649.18,-334.3 6124.47,-1596.34 251.83,314.98 401.71,710.52 401.71,1139.92z"/>
   <path class="fil4" d="M11486.08 13079.49c-556.31,0 -988.98,-197.21 -1302.51,-451.7 -562.77,-455.95 -741.79,-1096.48 -561.33,-1110.64 280.67,-21.52 950.33,313.46 1706.35,313.46 868.71,0 1460.62,-218.73 1907.21,-236.92 20.09,-1.14 39.34,-1.52 58.66,-1.52 453.52,0 -101.64,1487.32 -1808.38,1487.32z"/>
   <path class="fil2" d="M16184.87 11868.19c-170.27,2359.96 -5580.95,3139.64 -8111.87,1713.27 1546.27,256.62 6149.57,820.15 6977.8,-1397.62 712.27,-1907.28 -168.45,-4452.05 -732.36,-5754.86 1185.8,1032.73 2057.77,2791.19 1866.43,5439.22l0 -0.01z"/>
   <path class="fil3" d="M8300.33 7580.32c139.84,184.42 999.56,-201.62 1576.94,-626.46 553.34,-407.18 1118.32,-1049.46 993.7,-1231.3 -110.7,-161.37 -745.6,68.63 -1144.95,280.82 -893.65,474.9 -1578,1376.01 -1425.69,1576.94z"/>
   <path class="fil3" d="M7047.54 11252.62c20.5,630.41 405.7,1228.94 561.52,1188.08 163.57,-42.83 97,-795.81 21.61,-1209.69 -21.61,-118.76 -154.08,-845.57 -324.04,-842.44 -133.65,2.43 -272.34,455.72 -259.09,864.05z"/>
   <path class="fil6" d="M14181.42 9384.52c0,471.17 -382,853.17 -853.18,853.17 -364.27,0 -675.07,-227.86 -797.48,-548.92 -36.06,-94.42 -56,-197.05 -56,-304.25 0,-471.17 382.01,-853.18 853.48,-853.18 346.86,0 645.25,206.94 778.24,504.12 48.15,106.59 74.94,224.67 74.94,349.06z"/>
   <path class="fil7" d="M13328.24 8385.48c-550.98,0 -999.33,448.2 -999.33,999.03 0,122.41 22.06,242.32 65.58,356.29 146.61,384.36 521.92,642.66 933.75,642.66 550.83,0 998.95,-448.12 998.95,-998.95 0,-142.5 -29.52,-280.13 -87.8,-409.09 -160.37,-358.19 -518.12,-589.94 -911.15,-589.94l0 0zm-0.15 145.85c346.85,0 645.4,206.94 778.39,504.12 48.15,106.59 74.94,224.67 74.94,349.06 0,471.17 -382,853.17 -853.18,853.17 -364.27,0 -675.07,-227.86 -797.56,-548.92 -35.98,-94.42 -55.92,-197.05 -55.92,-304.25 0,-471.17 381.85,-853.18 853.33,-853.18l0 0z"/>
   <path class="fil8" d="M14105.72 9033.77c-318.48,770.02 -1108.51,747.05 -1573.14,657.5 -36.37,-94.34 -56.6,-196.82 -56.98,-304.02 -1.53,-471.25 379.11,-854.48 850.66,-856.07 346.86,-1.14 645.48,205.95 779.46,502.59z"/>
   <path class="fil3" d="M13290.88 9101.26c0,156.42 -126.82,283.25 -283.24,283.25 -156.43,0 -283.18,-126.83 -283.18,-283.25 0,-156.42 126.75,-283.25 283.18,-283.25 156.42,0 283.24,126.83 283.24,283.25z"/>
   <path class="fil3" d="M13997.23 9550.14c46.41,31.19 -16.73,328.37 -227.93,442.03 -187.62,101.03 -436.26,27.08 -442.04,-27.62 -4.26,-40.17 124.63,-51.13 340.16,-181.68 226.8,-137.33 297.55,-254.41 329.81,-232.73z"/>
   <path class="fil6" d="M10396.45 9384.45c0,471.16 -382.01,853.17 -853.18,853.17 -364.28,0 -675.07,-227.86 -797.48,-548.93 -36.07,-94.41 -56,-197.04 -56,-304.24 0,-471.17 382,-853.18 853.48,-853.18 346.86,0 645.25,207.01 778.23,504.11 48.24,106.67 74.95,224.75 74.95,349.07z"/>
   <path class="fil7" d="M9543.27 8385.41c-550.98,0 -999.25,448.19 -999.25,999.03 0,122.41 21.99,242.32 65.51,356.21 146.61,384.44 521.83,642.73 933.74,642.73 550.83,0 999.03,-448.12 999.03,-998.94 0,-142.43 -29.6,-280.13 -87.88,-409.1 -160.38,-358.11 -518.11,-589.93 -911.15,-589.93l0 0zm-0.15 145.85c346.85,0 645.4,207.01 778.38,504.11 48.24,106.67 74.95,224.75 74.95,349.07 0,471.16 -382.01,853.17 -853.18,853.17 -364.28,0 -675.07,-227.86 -797.48,-548.93 -36.07,-94.41 -56,-197.04 -56,-304.24 0,-471.17 381.86,-853.18 853.33,-853.18l0 0z"/>
   <path class="fil8" d="M10320.82 9033.7c-318.55,770.02 -1108.58,747.04 -1573.21,657.57 -36.36,-94.42 -56.6,-196.9 -56.98,-304.09 -1.52,-471.26 379.19,-854.48 850.66,-856 346.86,-1.22 645.48,205.88 779.53,502.52z"/>
   <path class="fil3" d="M9505.92 9101.18c0,156.5 -126.76,283.26 -283.25,283.26 -156.43,0 -283.18,-126.76 -283.18,-283.26 0,-156.42 126.75,-283.25 283.18,-283.25 156.49,0 283.25,126.83 283.25,283.25z"/>
   <path class="fil3" d="M10212.26 9550.06c46.33,31.2 -16.74,328.37 -227.87,442.03 -187.69,101.04 -436.32,27.09 -442.03,-27.54 -4.26,-40.24 124.54,-51.27 340,-181.75 226.88,-137.33 297.64,-254.42 329.9,-232.74z"/>
   <path class="fil9" d="M11659.4 8120.33c8.29,56.69 -375.16,190.21 -772.23,226.88 -644.25,59.34 -1234.64,-144.63 -1225.98,-216.08 4.04,-32.78 411.38,-36.67 1225.98,-43.21 654.46,-5.17 767.89,2.51 772.23,32.41z"/>
   <path class="fil9" d="M5472.51 4270.18c31.49,173.16 197.45,288.12 370.65,256.54 173.21,-31.41 288.13,-197.35 256.63,-370.59 -31.53,-173.24 -197.46,-288.12 -370.66,-256.62 -173.21,31.5 -288.1,197.44 -256.62,370.67z"/>
   <path class="fil5" d="M11486.08 13079.49c-556.31,0 -988.98,-197.21 -1302.51,-451.7 755.34,-99.44 2239.69,-371.05 3052.23,-1034.1 20.09,-1.14 39.34,-1.52 58.66,-1.52 453.52,0 -101.64,1487.32 -1808.38,1487.32z"/>
  </g>
 </g>
</svg>
