<?xml version="1.0" encoding="UTF-8"?>
<!DOCTYPE svg PUBLIC "-//W3C//DTD SVG 1.0//EN" "http://www.w3.org/TR/2001/REC-SVG-20010904/DTD/svg10.dtd">
<!-- Creator: CorelDRAW -->
<svg xmlns="http://www.w3.org/2000/svg" xml:space="preserve" width="218.612mm" height="261.392mm" version="1.0" style="shape-rendering:geometricPrecision; text-rendering:geometricPrecision; image-rendering:optimizeQuality; fill-rule:evenodd; clip-rule:evenodd"
viewBox="0 0 21855.34 26132.15"
 xmlns:xlink="http://www.w3.org/1999/xlink"
 xmlns:xodm="http://www.corel.com/coreldraw/odm/2003">
 <defs>
  <style type="text/css">
   <![CDATA[
    .fil0 {fill:none}
    .fil3 {fill:#294F81;fill-rule:nonzero}
    .fil9 {fill:#296ABD;fill-rule:nonzero}
    .fil8 {fill:#2F4572;fill-rule:nonzero}
    .fil4 {fill:#33487A;fill-rule:nonzero}
    .fil6 {fill:#393760;fill-rule:nonzero}
    .fil7 {fill:#46AED2;fill-rule:nonzero}
    .fil2 {fill:#5FAEDE;fill-rule:nonzero}
    .fil1 {fill:#5FBBE8;fill-rule:nonzero}
    .fil5 {fill:#B1ECED;fill-rule:nonzero}
    .fil10 {fill:#D36E52;fill-rule:nonzero}
    .fil11 {fill:#E4B166;fill-rule:nonzero}
    .fil12 {fill:#F3E0B3;fill-rule:nonzero}
    .fil13 {fill:#F48B4D;fill-rule:nonzero}
   ]]>
  </style>
 </defs>
 <g id="Camada_x0020_1">
  <metadata id="CorelCorpID_0Corel-Layer"/>
  <rect class="fil0" width="21855.34" height="26132.15"/>
  <g id="_1534329002464">
   <path class="fil1" d="M6028.82 9921.37c-156.76,-156.69 -278.16,-337.86 -362.65,-532.13 -194.12,-445.63 -193.51,-959.88 23.42,-1402.64 220.11,-449.37 635.72,-769.34 1119.31,-884.12 136.45,-32.79 279.07,-49.22 423.97,-47.01 330.56,1888.14 -1204.05,2865.9 -1204.05,2865.9z"/>
   <path class="fil2" d="M6028.82 9921.37c-156.76,-156.69 -278.16,-337.86 -362.65,-532.13 192.89,-336.34 386.39,-694.43 577.3,-1074.05 210.54,-418.34 397.95,-823.82 565.44,-1212.71 136.45,-32.79 279.07,-49.22 423.97,-47.01 -401.14,955.24 -802.59,1910.57 -1204.05,2865.9z"/>
   <path class="fil1" d="M15356.79 11824.41c-170.08,2359.34 -5579.38,3138.81 -8109.47,1712.82 -703.04,-396.12 -1183.74,-962.86 -1268.24,-1712.82 -388.99,-3449.75 1894.98,-6608.25 4518.77,-6608.25 951.3,0 2068.26,364.1 2993.16,1170.58 1185.55,1032.45 2057.22,2790.45 1865.78,5437.67z"/>
   <path class="fil1" d="M5875.27 8272.44c-19.09,-10.34 -475.77,-259.6 -833.79,-842.75 -327.67,-533.57 -631.15,-1460.14 -215.78,-2844.08l244.07 73.33c-309.72,1032.52 -248.41,1915.98 181.94,2625.78 321.35,529.46 740.14,760.76 744.48,763.04l-120.93 224.69z"/>
   <path class="fil3" d="M5638.71 4330.74c0,327.97 -265.84,593.88 -593.81,593.88 -327.97,0 -593.73,-265.91 -593.73,-593.88 0,-328.05 265.76,-593.89 593.73,-593.89 327.97,0 593.81,265.84 593.81,593.89z"/>
   <path class="fil3" d="M13953.24 9740.57c0,473.4 -519.73,764.94 -1189.6,938.06 -705.69,182.55 -1577.74,233.97 -2184.77,228.19 -869.15,-8.45 -2545.69,-159.28 -3150.22,-709.96 -141.7,-129 -224.46,-280.28 -224.46,-456.29 0,-512.72 213.5,-977 559.13,-1313.42 345.32,-335.96 822.83,-543.75 1350.08,-543.75l2930.4 0c613.13,0 1158.56,281.03 1507.68,717.55 251.91,314.9 401.76,710.34 401.76,1139.62z"/>
   <path class="fil4" d="M13953.24 9740.57c0,473.4 -519.73,764.94 -1189.6,938.06 -705.69,182.55 -1577.74,233.97 -2184.77,228.19 -869.15,-8.45 -2545.69,-159.28 -3150.22,-709.96 1721.49,-51.72 4648.08,-334.21 6122.83,-1595.91 251.91,314.9 401.76,710.34 401.76,1139.62z"/>
   <path class="fil2" d="M15356.79 11824.41c-170.08,2359.34 -5579.38,3138.81 -8109.47,1712.82 1545.86,256.55 6147.69,820.01 6975.69,-1397.24 712.09,-1906.7 -168.31,-4450.79 -732,-5753.26 1185.55,1032.45 2057.22,2790.45 1865.78,5437.67z"/>
   <path class="fil5" d="M7474.37 7537.77c140.02,184.3 999.51,-201.56 1576.51,-626.28 553.34,-407.16 1118.18,-1049.26 993.51,-1230.97 -110.52,-161.41 -745.32,68.6 -1144.41,280.73 -893.72,474.7 -1577.74,1375.56 -1425.61,1576.52z"/>
   <path class="fil5" d="M6222.02 11209.09c20.6,630.24 405.48,1228.53 561.41,1187.76 163.38,-42.9 96.89,-795.6 21.67,-1209.37 -21.67,-118.81 -154.11,-845.42 -323.87,-842.3 -133.63,2.51 -272.45,455.69 -259.21,863.91z"/>
   <path class="fil6" d="M13353.95 9341.41c0,471.11 -381.75,852.95 -852.87,852.95 -364.18,0 -674.81,-227.81 -797.42,-548.71 -35.9,-94.46 -55.84,-196.99 -55.84,-304.24 0,-471.05 381.75,-852.87 853.25,-852.87 346.76,0 644.92,206.88 777.94,503.97 48.31,106.56 74.93,224.61 74.93,348.9z"/>
   <path class="fil7" d="M12501.08 8342.72c-550.98,0 -998.98,448 -998.98,998.68 0,122.46 21.97,242.25 65.33,356.19 146.65,384.26 521.78,642.56 933.65,642.56 550.6,0 998.6,-448.07 998.6,-998.75 0,-142.38 -29.43,-279.97 -87.93,-408.98 -160.19,-358.02 -517.67,-589.7 -910.68,-589.7l0 0zm-0.31 145.81c346.77,0 645.23,206.88 778.25,503.97 48.31,106.56 74.93,224.61 74.93,348.9 0,471.11 -381.75,852.95 -852.87,852.95 -364.18,0 -674.81,-227.81 -797.42,-548.71 -35.9,-94.46 -55.84,-196.99 -55.84,-304.24 0,-471.05 381.75,-852.87 852.94,-852.87l0 0z"/>
   <path class="fil8" d="M13278.72 8989.77c-318.38,769.74 -1108.51,747.83 -1573.01,658.39 -36.44,-94.39 -56.74,-196.86 -57.04,-304.03 -1.68,-471.04 378.93,-854.23 850.35,-855.76 346.77,-1.14 645.84,204.77 779.7,501.4z"/>
   <path class="fil5" d="M12463.73 9058.3c0,156.39 -126.72,283.1 -283.17,283.1 -156.46,0 -283.09,-126.72 -283.09,-283.1 0,-156.38 126.64,-283.17 283.09,-283.17 156.46,0 283.17,126.8 283.17,283.17z"/>
   <path class="fil5" d="M13169.95 9507.06c46.33,31.11 -16.73,328.2 -227.87,441.84 -187.72,101.01 -436.13,27.07 -441.92,-27.61 -4.33,-40.16 124.37,-51.11 339.84,-181.63 226.75,-137.28 297.63,-254.35 329.95,-232.6z"/>
   <path class="fil6" d="M9570.07 9341.33c0,471.12 -381.75,852.95 -852.95,852.95 -364.11,0 -675.04,-227.73 -797.36,-548.7 -36.12,-94.47 -55.82,-197.01 -55.82,-304.25 0,-471.04 381.75,-852.87 853.17,-852.87 346.77,0 645,206.89 778.02,503.98 48,106.56 74.93,224.6 74.93,348.89z"/>
   <path class="fil7" d="M8717.12 8342.65c-550.91,0 -998.91,447.99 -998.91,998.67 0,122.46 21.98,242.26 65.33,356.19 146.66,384.34 521.78,642.57 933.58,642.57 550.68,0 998.75,-448 998.75,-998.76 0,-142.39 -29.51,-280.05 -88,-408.98 -160.19,-358.01 -517.98,-589.69 -910.76,-589.69l0 0zm-0.23 145.8c346.77,0 645.23,206.89 778.25,503.98 48,106.56 74.93,224.6 74.93,348.89 0,471.12 -381.75,852.95 -852.95,852.95 -364.11,0 -675.04,-227.73 -797.36,-548.7 -36.12,-94.47 -55.82,-197.01 -55.82,-304.25 0,-471.04 381.75,-852.87 852.94,-852.87l0 0z"/>
   <path class="fil8" d="M9494.84 8989.7c-318.39,769.81 -1108.58,747.83 -1573.32,658.37 -36.13,-94.3 -56.43,-196.84 -56.66,-304.01 -1.75,-471.04 378.86,-854.16 850.28,-855.76 346.76,-1.14 645.84,204.84 779.7,501.4z"/>
   <path class="fil5" d="M8679.85 9058.23c0,156.38 -126.95,283.09 -283.17,283.09 -156.46,0 -283.09,-126.72 -283.09,-283.09 0,-156.39 126.64,-283.18 283.09,-283.18 156.23,0 283.17,126.8 283.17,283.18z"/>
   <path class="fil5" d="M9385.84 9506.98c46.25,31.19 -16.81,328.21 -227.95,441.92 -187.41,101.01 -436.13,27 -441.91,-27.61 -4.04,-40.16 124.67,-51.19 340.14,-181.71 226.74,-137.2 297.63,-254.27 329.72,-232.6z"/>
   <path class="fil9" d="M10832.54 8077.65c8.36,56.65 -374.83,190.15 -771.94,226.74 -644.1,59.4 -1234.1,-144.6 -1225.42,-215.94 3.73,-32.78 410.96,-36.74 1225.42,-43.21 654.19,-5.25 767.6,2.44 771.94,32.41z"/>
   <path class="fil9" d="M4647.56 4228.44c31.48,173.19 197.22,288.04 370.49,256.55 173.19,-31.49 288.04,-197.38 256.55,-370.49 -31.56,-173.19 -197.61,-288.12 -370.57,-256.63 -173.19,31.57 -288.04,197.46 -256.47,370.57z"/>
   <path class="fil1" d="M15016.1 17217.13c0,2381.16 -1670.52,5178.15 -4324.74,5178.15 -1644.52,0 -2998.03,-1006.9 -3789.36,-2353.1 -486.48,-826.56 -760.91,-1780.97 -760.91,-2708.83 0,-2439.51 2662.52,-2323.2 4349.84,-2323.2 1850.71,0 4047.36,-141.79 4457.18,1581.61 44.87,185.89 67.99,393.53 67.99,625.37z"/>
   <path class="fil2" d="M15016.1 17217.13c0,2381.16 -1670.52,5178.15 -4324.74,5178.15 -1644.52,0 -2998.03,-1006.9 -3789.36,-2353.1 1648.25,775.9 6343.79,2382.99 8046.11,-3450.43 44.87,185.89 67.99,393.53 67.99,625.37z"/>
   <path class="fil5" d="M7060.22 16387.54c-344.79,562.24 -100.94,1362.17 491.12,1676.23 625.53,331.93 1477.02,34.38 1709.54,-625.45 221.27,-626.89 -204.76,-1329.46 -814.99,-1526.54 -489.37,-158.06 -1099.08,8.37 -1385.67,475.76z"/>
   <path class="fil1" d="M5230.34 15704.96c528.7,251.77 291.77,880.94 -305.16,1663.84 -713.53,934.86 -2719.25,2038.5 -3983.99,1430.17 -0.31,0 -0.31,0 -0.31,0 -115.38,-55.53 -224.15,-124.89 -325.68,-210.15 -1214.39,-1020.97 3253.5,-3004.86 3912.34,-3003.12 312.31,0.91 542.53,42.75 702.8,119.26z"/>
   <path class="fil2" d="M5230.34 15704.96c528.7,251.77 291.77,880.94 -305.16,1663.84 -713.53,934.86 -2719.25,2038.5 -3983.99,1430.17 1251.73,-200.73 3339.07,-870.59 4289.15,-3094.01z"/>
   <path class="fil5" d="M1470.2 17325.98c324.16,-186.27 888.99,-443.51 961.33,-336.72 73.77,109.14 -364.71,600.96 -907.03,880.32 -370.19,190.76 -856.91,317.63 -911.91,215.03 -61.91,-116.08 434.69,-515.77 857.6,-758.64z"/>
   <path class="fil1" d="M15724.99 16503.15c129.54,571.07 795.38,478.5 1690.46,68.16 1068.73,-490.15 2586.53,-2204.11 2271.25,-3571.83 0,-0.3 0,-0.3 0,-0.3 -28.59,-124.67 -72.25,-245.97 -133.33,-363.72 -728.81,-1409.26 -3646.74,2512.75 -3789.96,3155.99 -67.91,304.62 -77.73,538.59 -38.41,711.7z"/>
   <path class="fil2" d="M15724.99 16503.15c129.54,571.07 795.38,478.5 1690.46,68.16 1068.73,-490.15 2586.53,-2204.11 2271.25,-3571.83 -471.12,1177.12 -1583.74,3066.02 -3961.71,3503.67z"/>
   <path class="fil5" d="M18133.62 13191.53c-253.06,275.34 -628.19,769.96 -539.97,863.82 90.22,95.91 666.3,-223.46 1058.25,-691.09 267.5,-319.14 498.35,-766.15 410.12,-842.21 -99.48,-86.03 -598.45,310.48 -928.4,669.49z"/>
   <path class="fil4" d="M8679.85 11329.48c151.82,81.92 305.16,154.63 460.7,219.51 155.62,64.95 312.69,122.77 471.73,170.68 317.86,96.44 642.95,154.48 968.94,162.77 162.78,3.2 325.31,-7 487.02,-28.14 161.4,-22.51 320.44,-60.99 478.96,-106.56 314.66,-98.87 617.45,-245.52 916.52,-418.26 -232.29,255.57 -522.92,462.3 -846.55,606.36 -163.38,68.3 -333.76,122.77 -508.99,157.14 -43.75,9.06 -88.24,13.85 -132.2,20.92 -44.26,7.53 -88.54,11.18 -133.02,14.75 -89.15,8.68 -178.52,8.38 -267.59,8.75 -357.17,-9.12 -709.11,-91.65 -1031.91,-230.08 -161.4,-69.52 -316.12,-152.65 -461.62,-248.33 -72.56,-48.31 -143.45,-98.57 -210.53,-153.88 -67.39,-54.84 -133.03,-111.81 -191.45,-175.62z"/>
   <path class="fil10" d="M21370.54 14673.05l0 0c-159.96,276.79 -513.63,371.64 -790.42,211.82l-4795.03 -2768.31c-276.72,-159.81 -371.56,-513.79 -211.68,-790.58l0 0c159.66,-276.79 513.64,-371.63 790.43,-211.83l4795.03 2768.32c276.79,159.81 371.63,513.79 211.67,790.58z"/>
   <path class="fil4" d="M16873.75 9211.79c0,2037.67 -1652.05,3689.64 -3689.57,3689.64 -1708.47,0 -3145.57,-1161.52 -3565.2,-2737.74 -81,-303.71 -124.13,-622.63 -124.13,-951.9 0,-2037.67 1651.82,-3689.71 3689.33,-3689.71 1276.01,0 2400.49,647.89 3063.13,1632.26 395.97,587.65 626.44,1295.39 626.44,2057.45z"/>
   <path class="fil3" d="M16411.6 7132.21c-237.17,403.58 -516,754.68 -824.58,1060.45 -1353.28,1341.41 -3273.97,1805.16 -4684.21,1955.46 -510.75,54.91 -954.71,67.99 -1280.64,66.55 -83.06,-311.02 -127.33,-637.7 -127.33,-975.03 0,-2087.19 1691.67,-3779.4 3779.02,-3779.4 1306.95,0 2458.97,663.64 3137.74,1671.97z"/>
   <path class="fil1" d="M10959.17 11102.74c0,0 2011.81,561.49 4344.15,0 0,0 -1669.69,2159.52 -4344.15,0z"/>
   <path class="fil11" d="M13184.18 11823.65c-1111.17,0 -2062.47,-697.48 -2438.74,-1677.45 -111.58,-290.47 -172.96,-605.37 -172.96,-934.41 0,-1440.28 1171.34,-2611.93 2611.7,-2611.93 1056.5,0 1968.68,630.47 2379.41,1534.99 149.24,328.43 232.53,693.21 232.53,1076.94 0,1440.22 -1171.65,2611.86 -2611.94,2611.86zm3227.42 -4779.52c-698.16,-1037.16 -1883.12,-1719.74 -3227.42,-1719.74 -2146.89,0 -3887.17,1740.5 -3887.17,3887.4 0,346.92 45.72,682.88 131.06,1002.87 441.9,1660.71 1956.28,2884.53 3756.1,2884.53 2146.9,0 3887.4,-1740.57 3887.4,-3887.4 0,-802.89 -243.23,-1548.52 -659.97,-2167.66z"/>
   <path class="fil6" d="M14845.43 9211.65c0,917.36 -743.57,1660.93 -1660.94,1660.93 -709.2,0 -1314.26,-443.51 -1552.55,-1068.58 -70.28,-183.91 -109.07,-383.57 -109.07,-592.35 0,-917.3 743.65,-1660.94 1661.62,-1660.94 675.35,0 1256.07,402.96 1515.21,981.41 93.7,207.56 145.73,437.5 145.73,679.54z"/>
   <path class="fil7" d="M13184.49 7266.84c-1072.76,0 -1945.33,872.42 -1945.33,1944.81 0,238.37 42.82,471.72 127.55,693.59 285.46,748.36 1016.03,1251.2 1817.78,1251.2 1072.38,0 1945.03,-872.43 1945.03,-1944.8 0,-277.41 -57.57,-545.36 -171.29,-796.45 -312.08,-697.24 -1008.49,-1148.36 -1773.73,-1148.36l0 0zm0 283.86c675.35,0 1256.07,402.96 1515.21,981.41 93.7,207.56 145.73,437.5 145.73,679.54 0,917.36 -743.57,1660.93 -1660.94,1660.93 -709.2,0 -1314.26,-443.51 -1552.55,-1068.58 -70.28,-183.91 -109.07,-383.57 -109.07,-592.35 0,-917.3 743.65,-1660.94 1661.62,-1660.94l0 0z"/>
   <path class="fil8" d="M14698.25 8528.84c-620.12,1499.08 -2158.15,1454.36 -3062.82,1280.11 -70.59,-183.69 -110.22,-383.27 -110.83,-591.98 -3.19,-917.29 738.1,-1663.45 1656.09,-1666.49 675.34,-2.29 1256.67,400.76 1517.56,978.37z"/>
   <path class="fil5" d="M13111.85 8660.28c0,304.47 -246.97,551.37 -551.51,551.37 -304.56,0 -551.22,-246.9 -551.22,-551.37 0,-304.55 246.66,-551.44 551.22,-551.44 304.54,0 551.51,246.89 551.51,551.44z"/>
   <path class="fil5" d="M14486.81 9534.14c90.28,60.69 -32.33,639.21 -443.67,860.63 -365.24,196.69 -849.14,52.63 -860.4,-53.86 -8.45,-78.19 242.33,-99.63 662.03,-353.69 441.61,-267.35 579.28,-495.3 642.04,-453.09z"/>
   <path class="fil1" d="M18386.14 12281.62c0,0 -144.67,1492.16 1496.12,863.82 0,0 15.29,-1327.71 -1496.12,-863.82z"/>
   <path class="fil5" d="M19132.6 12704.44c83.29,148.16 147.79,394.06 58.1,460.7 -116.52,86.78 -517.74,-113.18 -594.02,-421.15 -30.73,-124.9 -18.57,-308.66 75.75,-356.34 122.92,-62.14 351.93,124.13 460.17,316.8z"/>
   <path class="fil12" d="M9833.54 9879.61c-73.78,0 -137.36,-56.13 -144.59,-131.35 -0.91,-6.92 -2.05,-16.59 -3.5,-28.83 -147.78,-1263.75 247.04,-2414.86 1083.19,-3158.2 1116.95,-993.2 2454.33,-941.48 2837.52,-902.08 80.1,8.29 138.51,79.86 130.15,159.96 -8.06,80.09 -80.09,138.27 -159.96,130.06 -353.15,-36.43 -1586.1,-84.2 -2613.98,829.91 -1046.07,929.92 -1067.52,2220.13 -987.36,2906.51 1.68,14.31 3.12,25.64 4.03,33.77 7.77,80.18 -50.66,151.6 -130.74,159.59 -4.87,0.45 -9.82,0.68 -14.76,0.68z"/>
   <path class="fil12" d="M15216.23 11797.49c-38.72,0 -77.21,-15.37 -105.88,-45.72 -55.22,-58.48 -52.64,-150.75 5.86,-206.04 818.71,-773.54 1186.62,-1864.03 983.62,-2917.09 -15.37,-79.1 36.43,-155.47 115.38,-170.75 78.96,-15.14 155.63,36.43 170.68,115.54 222.1,1151.48 -177.9,2341.91 -1069.56,3184.22 -28.06,26.61 -64.19,39.85 -100.09,39.85z"/>
   <path class="fil12" d="M13179.54 12405.74c-277.4,0 -535.92,-31.64 -748.51,-80.4 -78.35,-18.03 -127.56,-96.28 -109.3,-174.7 17.96,-78.5 95.98,-127.57 174.71,-109.46 579.28,133.03 1434.2,102.76 2038.12,-264.77 68.53,-41.91 158.44,-20.07 200.12,48.76 41.99,68.69 20.23,158.44 -48.6,200.28 -460.71,280.5 -1013.44,380.3 -1506.55,380.3z"/>
   <path class="fil13" d="M18002.87 12637.73c-22.29,0 -44.81,-5.86 -65.34,-18.11l-1403.85 -839.93c-60.46,-36.21 -80.17,-114.55 -44.04,-175.02 36.2,-60.38 114.55,-80.09 175.01,-43.89l1403.85 839.94c60.47,36.13 80.18,114.47 43.97,174.94 -23.96,39.93 -66.17,62.06 -109.6,62.06z"/>
   <path class="fil13" d="M21069.49 14379c-20.22,0 -40.53,-4.72 -59.55,-14.76l-1340.57 -708.43c-62.22,-32.86 -85.88,-110.06 -53.25,-172.36 33.01,-62.28 110.21,-86.17 172.43,-53.17l1340.5 708.44c62.51,32.93 86.17,110.06 53.24,172.35 -22.89,43.28 -67.08,67.92 -112.8,67.92z"/>
  </g>
 </g>
</svg>
