<?xml version="1.0" encoding="UTF-8"?>
<!DOCTYPE svg PUBLIC "-//W3C//DTD SVG 1.0//EN" "http://www.w3.org/TR/2001/REC-SVG-20010904/DTD/svg10.dtd">
<!-- Creator: CorelDRAW -->
<svg xmlns="http://www.w3.org/2000/svg" xml:space="preserve" width="218.612mm" height="261.392mm" version="1.0" style="shape-rendering:geometricPrecision; text-rendering:geometricPrecision; image-rendering:optimizeQuality; fill-rule:evenodd; clip-rule:evenodd"
viewBox="0 0 21855.34 26132.15"
 xmlns:xlink="http://www.w3.org/1999/xlink"
 xmlns:xodm="http://www.corel.com/coreldraw/odm/2003">
 <defs>
  <style type="text/css">
   <![CDATA[
    .fil0 {fill:none}
    .fil4 {fill:#294F81;fill-rule:nonzero}
    .fil9 {fill:#296ABD;fill-rule:nonzero}
    .fil8 {fill:#2F4572;fill-rule:nonzero}
    .fil5 {fill:#33487A;fill-rule:nonzero}
    .fil6 {fill:#393760;fill-rule:nonzero}
    .fil7 {fill:#46AED2;fill-rule:nonzero}
    .fil2 {fill:#5FAEDE;fill-rule:nonzero}
    .fil1 {fill:#5FBBE8;fill-rule:nonzero}
    .fil13 {fill:#779AB6;fill-rule:nonzero}
    .fil10 {fill:#9FBFD9;fill-rule:nonzero}
    .fil3 {fill:#B1ECED;fill-rule:nonzero}
    .fil12 {fill:#FFB455;fill-rule:nonzero}
    .fil11 {fill:#FFE06D;fill-rule:nonzero}
    .fil14 {fill:#FFF088;fill-rule:nonzero}
    .fil15 {fill:#FFFFB8;fill-rule:nonzero}
   ]]>
  </style>
 </defs>
 <g id="Camada_x0020_1">
  <metadata id="CorelCorpID_0Corel-Layer"/>
  <rect class="fil0" width="21855.34" height="26132.15"/>
  <g id="_1533989900560">
   <path class="fil1" d="M6683.8 18581.91c496.31,310.86 188.87,908.62 -494.24,1617.81 -815.91,846.87 -2935.04,1713.05 -4121.74,963.55 -0.23,-0.08 -0.23,-0.08 -0.23,-0.08 -108.24,-68.38 -208.25,-149.76 -299.38,-246.06 -1089.19,-1153.61 3576.77,-2611.7 4231.27,-2534.27 309.81,36.66 533.96,104.73 684.32,199.06z"/>
   <path class="fil2" d="M6683.8 18581.91c496.31,310.86 188.87,908.62 -494.24,1617.81 -815.91,846.87 -2935.04,1713.05 -4121.74,963.55 1266.48,-55.69 3417.18,-481.62 4615.97,-2581.36z"/>
   <path class="fil3" d="M2762.26 19760.69c343.57,-147.78 934.48,-338.54 993.73,-224.07 60.77,116.83 -431.18,555.09 -1001.88,770.34 -389.81,147.02 -887.85,217.15 -930.67,109 -48.3,-122.46 490.82,-462.53 938.82,-655.27z"/>
   <path class="fil1" d="M16623.44 20465.93c0,2381.16 -1670.52,5178.23 -4324.75,5178.23 -1644.74,0 -2998.32,-1006.97 -3789.35,-2353.18 -486.48,-826.55 -760.92,-1780.96 -760.92,-2708.83 0,-2439.5 2662.6,-2323.28 4349.85,-2323.28 1850.49,0 4047.37,-141.7 4456.95,1581.69 44.8,185.82 68.22,393.61 68.22,625.37z"/>
   <path class="fil2" d="M16623.44 20465.93c0,2381.16 -1670.52,5178.23 -4324.75,5178.23 -1644.74,0 -2998.32,-1006.97 -3789.35,-2353.18 1648.25,775.9 6343.79,2383.07 8045.88,-3450.43 44.8,185.82 68.22,393.61 68.22,625.37z"/>
   <path class="fil3" d="M8667.56 19636.35c-344.71,562.16 -100.94,1362.16 491.12,1676.22 625.52,332.01 1477.03,34.38 1709.54,-625.52 220.97,-626.82 -204.76,-1329.39 -814.99,-1526.47 -489.38,-158.05 -1099,8.37 -1385.67,475.77z"/>
   <path class="fil1" d="M18751.94 16832.12c-706.68,835.84 -1324.16,1196.29 -1672.12,470.06 -59.56,-124.75 -111.67,-281.65 -154.41,-473.48 -143.75,-643.32 830.05,-5433.48 2088.94,-4467.74 325.53,249.7 520.26,603.39 616.08,1007.74 275.35,1160.45 -263.93,2737.13 -878.49,3463.42z"/>
   <path class="fil2" d="M18751.94 16832.12c-706.68,835.84 -1324.16,1196.29 -1672.12,470.06 546.03,-303.49 1545.1,-1212.63 2550.62,-3933.49 275.35,1160.45 -263.93,2737.13 -878.49,3463.42z"/>
   <path class="fil3" d="M18071.28 14267.96c-197.84,713.76 -599.82,1909.9 -734.07,1876.43 -121.16,-30.12 -41.3,-1064.62 333.23,-2032.73 208.55,-539.35 530.45,-1114.29 620.42,-1080.83 111.97,41.6 -157.98,1015.11 -219.58,1237.13z"/>
   <path class="fil1" d="M6655.14 13557.02c-167.12,-145.43 -301.06,-317.7 -398.48,-505.64 -224.77,-431.19 -259.75,-944.16 -74.09,-1400.97 188.55,-463.52 580.8,-811.49 1055.35,-959.5 133.94,-42.22 275.11,-68.46 420.01,-76.3 460.4,1860.68 -1002.78,2942.42 -1002.78,2942.42z"/>
   <path class="fil2" d="M6655.14 13557.02c-167.12,-145.43 -301.06,-317.7 -398.48,-505.64 168.85,-348.98 337.25,-719.55 501.47,-1111.48 180.79,-431.95 339.84,-849.45 479.79,-1249 133.94,-42.22 275.11,-68.46 420.01,-76.3 -334.36,980.82 -668.42,1961.61 -1002.78,2942.42z"/>
   <path class="fil1" d="M16092.7 14809.13c-6.32,2365.5 -5348.53,3517.98 -7971.49,2270.72 -728.81,-346.53 -1247.7,-878.49 -1383.92,-1620.94 -626.97,-3414.44 1432.53,-6723.64 4050.24,-6905.42 948.71,-65.94 2088.17,219.89 3066.93,960.34 1254.08,947.8 2245.54,2641.15 2238.24,5295.29z"/>
   <path class="fil4" d="M14547.67 12827.59c33.01,472.26 -465.35,799.1 -1121.52,1018.23 -691.24,231.08 -1557.5,342.73 -2163.7,379.02 -867.63,51.87 -2550.33,17.5 -3191.82,-489.92 -150.45,-118.88 -243.24,-264.08 -255.41,-439.62 -35.6,-511.59 145.2,-989.48 466.55,-1349.02 321.28,-359.16 783.2,-599.44 1309.32,-635.95l2923.4 -203.09c611.38,-42.52 1175.14,199.97 1553.7,611.38 273.06,296.65 450.05,680.68 479.48,1108.97z"/>
   <path class="fil5" d="M14547.67 12827.59c33.01,472.26 -465.35,799.1 -1121.52,1018.23 -691.24,231.08 -1557.5,342.73 -2163.7,379.02 -867.63,51.87 -2550.33,17.5 -3191.82,-489.92 1713.88,-170.98 4613.62,-655.48 5997.56,-2016.3 273.06,296.65 450.05,680.68 479.48,1108.97z"/>
   <path class="fil2" d="M16092.7 14809.13c-6.32,2365.5 -5348.53,3517.98 -7971.49,2270.72 1559.78,148.78 6189.92,391.94 6862.37,-1877.33 578.15,-1951.43 -476.36,-4428.43 -1129.12,-5688.69 1254.08,947.8 2245.54,2641.15 2238.24,5295.29z"/>
   <path class="fil3" d="M7932.12 11078.95c152.42,174.26 983.01,-270.33 1529.35,-733.99 523.76,-444.5 1042.65,-1124.18 905.81,-1296.9 -121.7,-153.27 -738.92,120.17 -1122.43,359.45 -858.42,535.47 -1478.47,1481.67 -1312.73,1671.44z"/>
   <path class="fil3" d="M6937.16 14828.3c63.89,627.28 489.69,1197.51 642.34,1145.94 160.27,-54.01 41.68,-800.4 -62.44,-1207.93 -29.82,-116.98 -211.98,-832.65 -381.52,-817.73 -133.04,11.64 -240.06,473.32 -198.38,879.71z"/>
   <path class="fil6" d="M13922.45 12470.95c32.63,469.89 -321.96,877.28 -791.64,909.99 -363.27,25.17 -689.19,-180.49 -833.56,-492.19 -42.52,-91.74 -69.36,-192.66 -76.9,-299.6 -32.7,-469.91 321.89,-877.36 792.18,-910 345.93,-24.04 657.69,161.71 810.96,448.83 55.53,102.99 90.29,218.98 98.95,342.97z"/>
   <path class="fil7" d="M13072.4 11531.29l0 0c-23.12,0 -46.86,0.84 -69.98,2.43 -266.37,18.49 -509.3,139.49 -684.55,340.76 -175.01,201.25 -261.5,458.57 -243.01,724.79 8.75,122.16 38.79,240.12 90.29,350.72 162.77,351.63 518.27,578.74 905.5,578.74 23.2,0 46.86,-0.76 70.29,-2.43 266.13,-18.5 509.07,-139.5 684.02,-340.76 175.23,-201.19 261.49,-458.57 242.93,-724.71 -9.81,-142.08 -48.84,-277.32 -115.92,-401.91 -173.57,-325.31 -510.82,-527.63 -879.56,-527.63l0 0zm-0.84 145.58c321.58,0 607.65,180.71 751.94,451.11 55.53,102.99 90.29,218.98 98.95,342.97 32.63,469.89 -321.96,877.28 -791.64,909.99 -20.23,1.37 -40.17,2.06 -60.17,2.06 -338.92,0 -636.85,-199.82 -773.38,-494.25 -42.52,-91.74 -69.36,-192.66 -76.9,-299.6 -32.7,-469.91 321.89,-877.36 792.18,-910 19.92,-1.45 39.02,-2.28 59.02,-2.28l0 0z"/>
   <path class="fil8" d="M13822.66 12126.39c-264.39,790.04 -1053.68,821.83 -1523.35,764.72 -42.83,-91.58 -69.98,-192.36 -77.81,-299.3 -34.39,-469.83 318.69,-878.42 788.98,-912.66 345.92,-25.18 658,160.64 812.18,447.24z"/>
   <path class="fil3" d="M13014.82 12250.14c10.72,156 -106.95,291.24 -262.88,302.11 -156.14,10.81 -291.23,-106.86 -302.26,-262.86 -10.66,-156 107.02,-291.24 262.94,-302.11 156.16,-10.81 291.24,106.85 302.2,262.86z"/>
   <path class="fil3" d="M13750.32 12648.85c48.3,27.91 6.09,328.66 -196.62,456.67 -180.18,113.79 -433.24,57.2 -442.83,3.12 -6.92,-39.78 120.56,-59.7 326.53,-204.84 216.62,-152.65 279.07,-274.35 312.92,-254.95z"/>
   <path class="fil6" d="M10147.54 12733.05c32.63,469.9 -321.65,877.36 -791.64,910 -363.26,25.25 -689.19,-180.49 -833.55,-492.19 -42.52,-91.74 -69.37,-192.59 -76.9,-299.61 -32.4,-469.89 321.89,-877.28 792.18,-909.99 345.92,-24.04 657.99,161.78 811.26,448.83 55.22,103.06 90.21,218.98 98.64,342.96z"/>
   <path class="fil7" d="M9297.79 11793.47l0 0c-23.42,0 -46.85,0.76 -70.27,2.43 -266.14,18.49 -509.38,139.5 -684.33,340.68 -175.24,201.26 -261.42,458.65 -242.93,724.79 8.37,122.16 38.79,240.13 89.99,350.8 162.77,351.55 518.27,578.74 905.5,578.74 23.12,0 46.86,-0.84 70.28,-2.44 549.24,-38.18 965.13,-516.14 926.95,-1065.53 -9.81,-142.07 -48.83,-277.25 -115.92,-401.9 -173.56,-325.23 -510.51,-527.56 -879.26,-527.56l0 0zm1.15 145.5c321.58,0 605.37,180.72 749.96,451.12 55.22,103.06 90.21,218.98 98.64,342.96 32.63,469.9 -321.65,877.36 -791.64,910 -20.22,1.44 -40.16,2.05 -60.16,2.05 -338.7,0 -636.86,-199.74 -773.38,-494.24 -42.52,-91.74 -69.37,-192.59 -76.9,-299.61 -32.4,-469.89 321.89,-877.28 792.18,-909.99 20.22,-1.37 41.37,-2.29 61.3,-2.29l0 0z"/>
   <path class="fil8" d="M10048.9 12390.09c-264.39,790.05 -1054.82,820.24 -1524.49,763.2 -42.82,-91.66 -69.97,-192.44 -77.81,-299.3 -34.15,-469.9 318.99,-878.42 788.98,-912.73 345.93,-25.18 658.84,162.31 813.32,448.83z"/>
   <path class="fil3" d="M9239.91 12512.33c10.72,155.92 -106.94,291.23 -262.87,302.04 -155.93,10.8 -291.24,-106.87 -301.96,-262.88 -11.03,-156 106.71,-291.23 262.63,-302.11 156.16,-10.8 291.24,106.94 302.2,262.95z"/>
   <path class="fil3" d="M9975.42 12911.04c48.3,27.83 6.09,328.65 -196.61,456.59 -180.27,113.86 -433.33,57.27 -442.83,3.12 -6.92,-39.78 120.56,-59.71 326.52,-204.76 216.93,-152.73 279.38,-274.36 312.92,-254.95z"/>
   <path class="fil9" d="M11319.73 11384.87c12.17,55.98 -360.91,215.7 -754.61,279.68 -638.3,103.9 -1241.32,-58.64 -1237.51,-130.52 1.67,-32.94 407.76,-65.04 1219.63,-127.94 652.46,-50.59 766.09,-50.74 772.48,-21.22z"/>
   <path class="fil1" d="M6218.69 11958.59c-17.88,-12.32 -444.5,-309.95 -736.57,-928.77 -267.58,-566.21 -468,-1520.31 95.99,-2850.62l234.88 99.55c-420.85,992.52 -456.45,1877.42 -106.19,2629.97 261.5,561.33 652.76,837.05 656.56,839.71l-144.67 210.15z"/>
   <path class="fil4" d="M6414.25 8014.68c-35.9,325.99 -329.12,561.26 -655.11,525.43 -326.22,-35.74 -561.33,-329.11 -525.51,-655.18 35.9,-325.99 329.19,-561.26 655.11,-525.43 326.23,35.83 561.41,329.11 525.51,655.18z"/>
   <path class="fil9" d="M5439.9 7804.76c12.4,175.54 164.83,307.82 340.38,295.42 175.54,-12.32 308.04,-164.68 295.57,-340.3 -12.4,-175.55 -164.83,-307.82 -340.37,-295.49 -175.63,12.4 -307.75,164.75 -295.58,340.37z"/>
   <path class="fil4" d="M11416.62 16315.68c-407.53,39.92 -743.87,-125.2 -998.37,-355.82 -456.97,-413.31 -650.48,-1037.77 -519.8,-1064.85 203.7,-41.52 727.15,243.7 1281.02,189.4 636.56,-62.37 1049.26,-322.42 1374.65,-372.62 14.76,-2.59 28.6,-4.26 42.83,-5.71 332.3,-32.55 70.5,1487.07 -1180.32,1609.61z"/>
   <path class="fil5" d="M11416.62 16315.68c-407.53,39.92 -743.87,-125.2 -998.37,-355.82 543.68,-153.26 1605.19,-530.06 2135.87,-1248.08 14.76,-2.59 28.6,-4.26 42.83,-5.71 332.3,-32.55 70.5,1487.07 -1180.32,1609.61z"/>
   <path class="fil10" d="M15864.52 8753.77l-985.68 -290.17c-138.21,-40.7 -217.46,-185.82 -176.69,-324.02l414.77 -1408.57c40.46,-138.28 185.66,-217.38 323.94,-176.69l985.67 290.17c138.2,40.7 217.46,185.82 176.68,324.02l-414.75 1408.57c-40.47,138.28 -185.67,217.38 -323.94,176.69z"/>
   <path class="fil11" d="M18214.49 5103.61c-131.88,447.84 -451.79,792.48 -857.58,982.55 -132.73,62.21 -232.83,177.83 -274.21,318.46l-172.04 584.45c-79.56,270.48 -363.26,425.19 -633.66,345.55l-975.87 -287.2c-270.4,-79.64 -425.18,-363.34 -345.62,-633.82l172.12 -584.37c41.3,-140.64 19.92,-292 -57.88,-416.21 -238.3,-379.62 -320.14,-842.67 -188.56,-1290.6 254.2,-862.98 1206.34,-1342.85 2126.67,-1072 920.26,270.94 1460.37,1190.2 1206.63,2053.2z"/>
   <path class="fil12" d="M17053.19 2896.08c-484.42,-142.6 -992.59,-99.55 -1431.01,121.4 -441.68,222.78 -759.77,598.98 -895.16,1059.46 -71.12,241.88 -87.93,491.12 -49.45,740.91 37.27,240.35 123.23,469.37 255.64,680.74 53.86,85.34 68.31,189.25 39.94,285.15l-172.05 584.37c-104.43,355.13 99.41,729.12 454.62,833.63l975.86 287.29c354.82,104.5 728.82,-99.34 833.49,-454.47l172.12 -584.53c28.06,-95.9 96.59,-175.32 188.02,-218.14 225.82,-105.8 422.22,-251.68 583.61,-433.54 167.8,-189.01 288.95,-407.46 359.77,-649.34 135.38,-460.47 72.25,-949.02 -178.44,-1375.55 -248.72,-423.22 -652.45,-734.76 -1136.97,-877.37l0 0zm-45.33 154.33c920.26,270.94 1460.37,1190.2 1206.63,2053.2 -131.88,447.84 -451.79,792.48 -857.58,982.55 -132.73,62.21 -232.83,177.83 -274.21,318.46l-172.04 584.45c-79.56,270.48 -363.26,425.19 -633.66,345.55l-975.87 -287.2c-270.4,-79.64 -425.18,-363.34 -345.62,-633.82l172.12 -584.37c41.3,-140.64 19.92,-292 -57.88,-416.21 -238.3,-379.62 -320.14,-842.67 -188.56,-1290.6 254.2,-862.98 1206.34,-1342.85 2126.67,-1072l0 0z"/>
   <path class="fil13" d="M16415.5 7859.74l-1515.51 -446.17c-39.33,-11.64 -61.91,-53.01 -50.36,-92.42l0 0c11.65,-39.4 52.94,-61.98 92.34,-50.35l1515.74 446.17c39.33,11.57 61.91,52.95 50.36,92.34l0 0c-11.56,39.48 -52.94,61.99 -92.57,50.43z"/>
   <path class="fil13" d="M16318.6 8189.24l-1515.82 -446.17c-39.32,-11.64 -61.82,-52.95 -50.27,-92.43l0 0c11.87,-39.47 53.17,-61.98 92.49,-50.34l1515.51 446.08c39.63,11.65 62.22,53.03 50.67,92.5l0 0c-11.57,39.41 -53.26,61.91 -92.58,50.36z"/>
   <path class="fil13" d="M16221.69 8518.74l-1515.81 -446.17c-39.33,-11.64 -61.83,-53.01 -50.28,-92.42l0 0c11.56,-39.47 52.94,-61.98 92.27,-50.43l1515.81 446.25c39.33,11.56 61.91,52.94 50.28,92.41l0 0c-11.56,39.41 -52.87,61.92 -92.27,50.36z"/>
   <path class="fil14" d="M17844.84 4959.77c-209.09,711.1 -955.32,1117.87 -1666.49,908.55 -711.17,-209.32 -1117.79,-955.47 -908.48,-1666.64 209.17,-711.1 955.32,-1117.87 1666.49,-908.55 711.17,209.39 1117.87,955.48 908.48,1666.64z"/>
   <path class="fil15" d="M16361.72 5246.82c-449.45,-132.34 -671.32,-482.37 -729.12,-587.71 -17.11,-31.11 -5.78,-70.29 25.4,-87.4 31.26,-17.12 70.29,-5.71 87.33,25.39 52.71,95.76 256.32,417.35 670.47,531.22 383.51,105.95 697.86,-30.42 815,-93.93 31.26,-16.9 70.27,-5.32 87.39,25.93 16.74,31.26 5.17,70.35 -26.09,87.32 -130.97,70.89 -481.84,223.17 -910.68,104.81 -6.69,-1.82 -13.31,-3.73 -19.69,-5.63z"/>
   <path class="fil15" d="M15262.11 6739.9c-34.15,-10.04 -53.55,-45.87 -43.43,-79.94l219.81 -746.84c10.12,-34.08 45.72,-53.63 79.87,-43.59 34.15,10.04 53.78,45.87 43.66,79.94l-219.81 746.85c-10.12,34.14 -46.02,53.62 -80.1,43.58z"/>
   <path class="fil12" d="M14974.6 2535.79c-21.97,-6.39 -40.77,-21.98 -50.88,-44.43l-598.68 -1340.49c-18.26,-40.62 0,-88.24 40.47,-106.34 40.76,-18.1 88.23,0.09 106.4,40.62l598.68 1340.58c18.26,40.62 0,88.15 -40.46,106.33 -18.19,8.06 -37.88,8.97 -55.54,3.73z"/>
   <path class="fil12" d="M16602.38 2113.88c-33.31,-9.74 -57.57,-40.4 -57.88,-76.76l-7.53 -1468.28c-0.3,-44.42 35.6,-80.62 80.1,-80.85 44.26,-0.31 80.69,35.59 81.01,80.01l7.52 1468.21c0.31,44.5 -35.59,80.71 -80.09,80.93 -8.14,0 -15.9,-1.06 -23.12,-3.26z"/>
   <path class="fil12" d="M17775.09 2466.35c-8.06,-2.44 -15.9,-6.17 -23.34,-11.34 -36.52,-25.48 -45.18,-75.68 -19.7,-112.12l842.68 -1202.22c25.85,-36.36 76.05,-45.18 112.57,-19.61 36.51,25.47 44.87,75.68 19.77,112.03l-843.13 1202.22c-20.54,28.98 -56.36,40.54 -88.85,31.04z"/>
   <path class="fil12" d="M18777.8 3538.65c-22.81,-6.77 -42.6,-23.96 -52.49,-48.23 -15.97,-41.53 5.33,-88.08 46.41,-104.05l1370.61 -527.48c41.07,-15.98 87.48,4.71 103.44,46.17 15.98,41.53 -4.56,88.08 -45.64,104.05l-1370.61 527.48c-16.74,6.55 -34.99,6.93 -51.73,2.06z"/>
  </g>
 </g>
</svg>
