<?xml version="1.0" encoding="UTF-8"?>
<!DOCTYPE svg PUBLIC "-//W3C//DTD SVG 1.0//EN" "http://www.w3.org/TR/2001/REC-SVG-20010904/DTD/svg10.dtd">
<!-- Creator: CorelDRAW -->
<svg xmlns="http://www.w3.org/2000/svg" xml:space="preserve" width="218.612mm" height="261.392mm" version="1.0" style="shape-rendering:geometricPrecision; text-rendering:geometricPrecision; image-rendering:optimizeQuality; fill-rule:evenodd; clip-rule:evenodd"
viewBox="0 0 21853.34 26129.77"
 xmlns:xlink="http://www.w3.org/1999/xlink"
 xmlns:xodm="http://www.corel.com/coreldraw/odm/2003">
 <defs>
  <style type="text/css">
   <![CDATA[
    .fil0 {fill:none}
    .fil5 {fill:#294F81;fill-rule:nonzero}
    .fil10 {fill:#296ABD;fill-rule:nonzero}
    .fil9 {fill:#2F4572;fill-rule:nonzero}
    .fil6 {fill:#33487A;fill-rule:nonzero}
    .fil7 {fill:#393760;fill-rule:nonzero}
    .fil8 {fill:#46AED2;fill-rule:nonzero}
    .fil2 {fill:#5FAEDE;fill-rule:nonzero}
    .fil1 {fill:#5FBBE8;fill-rule:nonzero}
    .fil3 {fill:#B1ECED;fill-rule:nonzero}
    .fil4 {fill:#D7F5F6;fill-rule:nonzero}
   ]]>
  </style>
 </defs>
 <g id="Camada_x0020_1">
  <metadata id="CorelCorpID_0Corel-Layer"/>
  <rect class="fil0" width="21853.34" height="26129.77"/>
  <g id="_1533997010592">
   <path class="fil1" d="M17643.84 18369.58c-26.63,1094.04 -281.71,1762.05 -1008.18,1414.46 -124.58,-59.89 -263.45,-149.53 -417.01,-271.9 -515.33,-410.92 -2759.99,-4752.84 -1173.82,-4789.88 409.78,-9.51 783.44,143.75 1111.69,398.53 942.15,731.34 1510.43,2297.59 1487.32,3248.79z"/>
   <path class="fil2" d="M17643.84 18369.58c-26.63,1094.04 -281.71,1762.05 -1008.18,1414.46 235.16,-578.7 443.7,-1913.29 -479.14,-4663.25 942.15,731.34 1510.43,2297.59 1487.32,3248.79z"/>
   <path class="fil3" d="M15505.51 16798.91c293.56,680.23 730.27,1863.85 604.7,1922.03 -113.33,52.33 -699.55,-803.35 -1014.72,-1792.44 -175.92,-550.63 -285.51,-1200.43 -194.39,-1230.78 113.09,-37.65 513.36,889.83 604.4,1101.18z"/>
   <path class="fil1" d="M5814.62 19443.31c-153.85,122.67 -292.65,212.29 -417.31,271.89 -410.91,196.94 -671.25,68.25 -824.18,-278.81 -117.44,-265.73 -172.04,-660.46 -183.59,-1135.64 -23.5,-951.13 545.07,-2517.46 1487,-3248.5 328.48,-254.77 701.83,-408.33 1111.91,-398.82 248.17,5.78 402.34,116.51 483.86,301.32 442.71,997.14 -1223.02,4141.82 -1657.67,4488.56z"/>
   <path class="fil4" d="M5279.89 16298.93c-45.1,68.83 -539.61,826.48 -367.27,990.22 174.09,164.81 1022.93,-276.76 1468.52,-990.22 251.06,-401.65 447.13,-1007.26 280.57,-1126.14 -205.35,-146.33 -945.74,457.78 -1381.82,1126.14z"/>
   <path class="fil2" d="M5814.62 19443.31c-153.85,122.67 -292.65,212.29 -417.31,271.89 -410.91,196.94 -671.25,68.25 -824.18,-278.81 629.56,-260.26 1666.94,-1233.38 2899.17,-4481.64 442.71,997.14 -1223.02,4141.82 -1657.67,4488.56z"/>
   <path class="fil1" d="M15363.28 16247.14c0,2380.95 -1670.45,5177.77 -4324.36,5177.77 -1644.67,0 -2998.05,-1006.98 -3789.01,-2352.89 -486.45,-826.48 -760.92,-1780.88 -760.92,-2708.59 0,-2439.35 2662.34,-2323.06 4349.53,-2323.06 1850.24,0 4046.98,-141.77 4456.46,1581.53 44.87,185.72 68.3,393.66 68.3,625.25z"/>
   <path class="fil2" d="M15363.28 16247.14c0,2380.95 -1670.45,5177.77 -4324.36,5177.77 -1644.67,0 -2998.05,-1006.98 -3789.01,-2352.89 1648.09,775.63 6342.9,2382.69 8045.07,-3450.12 44.87,185.72 68.3,393.66 68.3,625.25z"/>
   <path class="fil3" d="M7407.81 15417.77c-344.76,561.89 -100.62,1361.82 491.3,1675.85 625.55,332.05 1476.97,34.46 1709.47,-625.24 220.94,-626.91 -204.74,-1329.42 -815,-1526.33 -489.25,-158.18 -1098.89,8.38 -1385.77,475.72z"/>
   <path class="fil1" d="M6267.53 9423.65c-157.35,-156.21 -279.42,-336.92 -364.37,-531.01 -195.54,-445.07 -196.38,-959.27 19.08,-1402.59 218.58,-449.94 632.99,-771.26 1116.24,-887.55 136.52,-33.23 279.13,-49.97 424,-48.29 336.32,1887.04 -1194.95,2869.44 -1194.95,2869.44z"/>
   <path class="fil2" d="M6267.53 9423.65c-157.35,-156.21 -279.42,-336.92 -364.37,-531.01 191.72,-336.85 384.29,-695.52 574.05,-1075.78 209.07,-419.06 395.32,-825.11 561.27,-1214.35 136.52,-33.23 279.13,-49.97 424,-48.29 -398.21,956.38 -796.73,1913.05 -1194.95,2869.44z"/>
   <path class="fil1" d="M15600.41 11297.32c-162.83,2359.8 -5569.05,3156.02 -8103.55,1738.07 -704.19,-393.89 -1186.6,-958.97 -1273.3,-1708.87 -399.67,-3448.06 1874.28,-6613.27 4497.83,-6621.64 951.14,-2.89 2069.21,357.69 2996.3,1161.04 1188.64,1028.71 2065.78,2783.8 1882.71,5431.4z"/>
   <path class="fil2" d="M15600.41 11297.32c-162.83,2359.8 -5569.05,3156.02 -8103.55,1738.07 1546.62,251.58 6150.03,800.76 6971.03,-1418.79 705.93,-1908.95 -182.15,-4449.84 -750.2,-5750.67 1188.64,1028.71 2065.78,2783.8 1882.71,5431.4z"/>
   <path class="fil3" d="M7705.4 7035.78c140.55,183.9 998.59,-204.81 1574.39,-631.32 552.08,-408.63 1114.8,-1052.43 989.61,-1233.75 -111.04,-161.07 -745.33,70.88 -1143.47,284.29 -891.89,477.47 -1573.25,1380.3 -1420.54,1580.78z"/>
   <path class="fil3" d="M6464.74 10710.56c22.28,630.11 409.24,1227.28 564.78,1185.99 163.44,-43.43 94.62,-795.91 17.94,-1209.42 -21.97,-118.57 -156.74,-844.74 -326.5,-841 -133.62,2.58 -270.97,456.32 -256.22,864.42z"/>
   <path class="fil5" d="M14193.72 10348.17c1.75,473.43 -517.09,766.69 -1186.21,941.62 -705.1,184.81 -1576.74,238.88 -2184.04,235.16 -868.99,-5.78 -2545.74,-151.58 -3151.91,-700.16 -142.29,-128.67 -225.27,-279.64 -225.88,-455.48 -1.74,-512.76 210.51,-977.75 554.66,-1314.98 344.45,-337.23 821.38,-546.29 1348.53,-548.04l2930.13 -8.98c612.84,-1.98 1159.37,277.37 1509.9,712.62 252.73,314.03 403.69,709.14 404.83,1138.23z"/>
   <path class="fil6" d="M14193.72 10348.17c1.75,473.43 -517.09,766.69 -1186.21,941.62 -705.1,184.81 -1576.74,238.88 -2184.04,235.16 -868.99,-5.78 -2545.74,-151.58 -3151.91,-700.16 1721.26,-56.96 4646.45,-348.78 6117.33,-1614.85 252.73,314.03 403.69,709.14 404.83,1138.23z"/>
   <path class="fil7" d="M13593.65 9950.78c1.45,471.15 -379.43,854.31 -850.21,855.76 -364.06,1.14 -675.58,-225.58 -799.09,-546.29 -36.36,-94.24 -56.36,-196.91 -56.89,-303.91 -1.45,-471.08 379.36,-854.01 850.43,-855.46 346.82,-1.14 645.78,204.74 779.71,501.43 48.59,106.47 75.51,224.43 76.05,348.47z"/>
   <path class="fil8" d="M12740.86 8955.16l-3.2 0c-266.94,0.53 -517.39,105.26 -705.63,294.63 -188,189.14 -290.99,440.2 -290.38,706.85 0.62,122.6 22.82,242.3 66.78,356 147.24,382.55 521.73,639.7 932.12,639.7l3.2 0c266.86,-0.92 517.31,-105.57 705.32,-294.71 188,-189.45 290.91,-440.43 290.38,-707.08 -0.61,-142.6 -30.65,-279.95 -89.14,-408.64 -161.08,-356.3 -517.92,-586.75 -909.45,-586.75l0 0zm16.19 161.08c345.52,0 626.91,190.28 760.55,486.07 48.59,106.47 75.51,224.43 76.05,348.47 1.45,471.15 -379.43,854.31 -850.21,855.76 -0.91,0 -2.05,0 -2.88,0 -362.94,0 -673.01,-226.42 -796.21,-546.29 -36.36,-94.24 -56.36,-196.91 -56.89,-303.91 -1.45,-471.08 368.11,-824.8 839.49,-826.26l30.11 -13.84z"/>
   <path class="fil9" d="M13517.37 9599.49c-316.16,770.65 -1106.2,751.26 -1570.97,663.42 -36.74,-94.32 -57.27,-196.68 -58.11,-303.99 -2.89,-470.77 376.54,-855.15 847.63,-858.34 346.73,-2.29 646.38,202.76 781.45,498.91z"/>
   <path class="fil3" d="M12702.38 9670.6c0.6,156.44 -125.8,283.37 -282.24,283.98 -156.22,0.62 -283.46,-125.79 -283.99,-282.24 -0.31,-156.44 126.01,-283.45 282.23,-283.98 156.44,-0.61 283.69,125.79 284,282.24z"/>
   <path class="fil3" d="M13410.06 10117.11c46.24,30.95 -15.89,328.24 -226.49,442.48 -187.39,101.76 -436.09,28.6 -442.18,-26.01 -4.33,-40.23 124.66,-51.79 339.51,-182.83 226.49,-137.88 296.76,-255.32 329.16,-233.64z"/>
   <path class="fil7" d="M9809.81 9962.72c1.53,471.08 -379.13,853.93 -849.9,855.38 -364.38,1.22 -675.58,-225.57 -799.02,-545.99 -36.43,-94.54 -56.66,-196.9 -56.96,-304.21 -1.52,-470.85 379.12,-854.01 850.5,-855.45 346.74,-1.14 645.71,205.04 779.64,501.49 48.29,106.4 75.51,224.44 75.74,348.78z"/>
   <path class="fil8" d="M8957.33 8966.72l-3.2 0c-266.94,0.84 -517.39,105.56 -705.63,294.71 -188,189.07 -291.29,440.43 -290.38,707.08 0.6,122.29 22.89,241.99 66.78,355.93 147.24,382.31 521.73,639.46 932.11,639.46l3.19 0c550.64,-1.75 997.15,-451.16 995.4,-1001.78 -0.3,-142.31 -30.35,-279.66 -89.06,-408.64 -160.78,-356.24 -517.69,-586.76 -909.22,-586.76l0 0zm24.25 154.7c345.6,0 618.86,196.67 752.49,492.51 48.29,106.4 75.51,224.44 75.74,348.78 1.75,471.08 -379.13,853.93 -849.9,855.38 -1.14,0 -2.05,0 -2.89,0 -362.93,0 -673,-226.42 -796.13,-545.99 -36.43,-94.54 -56.66,-196.9 -56.96,-304.21 -1.52,-470.85 373.89,-844.74 845.26,-846.48l32.4 0z"/>
   <path class="fil9" d="M9733.23 9612.49c-316.09,770.65 -1105.9,750.12 -1570.68,661.97 -36.43,-94.31 -56.96,-196.67 -57.8,-303.68 -2.88,-471.08 376.55,-855.46 847.63,-858.34 346.73,-2.28 646.08,203.6 780.85,500.05z"/>
   <path class="fil3" d="M8957.02 9801.87c0.61,156.52 -125.78,283.45 -282.23,283.99 -156.52,0.61 -283.77,-125.79 -284.07,-282.24 -0.53,-156.44 125.86,-283.38 282.31,-283.99 156.14,-0.53 283.39,125.79 283.99,282.24z"/>
   <path class="fil3" d="M9626.53 10128.98c46.23,30.96 -15.9,328.25 -226.49,442.48 -187.4,101.45 -436.09,28.29 -442.18,-26.31 -4.34,-40.24 124.36,-51.49 339.58,-182.53 226.41,-138.19 296.69,-255.31 329.09,-233.64z"/>
   <path class="fil10" d="M11068.43 8695.13c8.67,56.73 -374.19,191.5 -771.26,229.07 -643.8,61.61 -1234.59,-140.54 -1225.91,-211.96 3.72,-32.7 410.91,-37.87 1225.3,-47.15 654.14,-7.22 767.54,0.31 771.87,30.05z"/>
   <path class="fil5" d="M7757.42 9969.04c0,0 1379.46,-85.56 1974.59,-858.87 0,0 -669.43,-283.46 -1200.44,-169.76 -531.24,113.93 -774.15,1028.63 -774.15,1028.63z"/>
   <path class="fil5" d="M13912.93 9949.94c0,0 -450.85,-25.17 -949.15,-190.59 -373.59,-123.74 -773.55,-326.5 -1030.69,-656.11 0,0 667.75,-287.49 1199.3,-177.06 212.57,44.26 379.73,216.91 503.78,407.8 187.17,286.88 276.76,615.96 276.76,615.96z"/>
   <path class="fil6" d="M13912.93 9949.94c0,0 -450.85,-25.17 -949.15,-190.59 401.41,-166.55 664.02,-417.23 672.39,-425.37 187.17,286.88 276.76,615.96 276.76,615.96z"/>
   <path class="fil1" d="M5993.36 7461.77c-2.9,-3.81 -287.49,-388.72 -854.54,-637.1 -760.32,-332.89 -1644.14,-277.07 -2626.45,166.24l-105.04 -232.49c1317.04,-593.99 2275.39,-415.56 2847.47,-161.39 625.24,277.98 932.57,697.57 945.35,715.51l-206.79 148.93 103.28 -74.62 -103.28 74.92z"/>
   <path class="fil5" d="M2262.15 7598.21c325.05,-43.35 553.52,-342.1 510.17,-667.15 -43.35,-325.05 -341.87,-553.52 -666.84,-510.1 -325.13,43.35 -553.6,341.8 -510.48,666.84 43.35,325.36 342.09,553.52 667.15,510.41z"/>
   <path class="fil10" d="M2029.95 6629.13c175.84,8.14 311.44,157.65 303.07,333.42 -8.36,175.61 -157.65,311.52 -333.42,303.15 -175.83,-8.45 -311.51,-157.66 -303.07,-333.5 8.37,-175.76 157.58,-311.44 333.42,-303.07z"/>
   <path class="fil5" d="M10833.05 12278.88c288.33,-0.91 512.68,54.07 675.52,125.48 292.11,128.07 385.51,308.86 292.11,313.19 -145.49,6.69 -493.13,-87.08 -884.96,-85.86 -450.24,1.44 -756.82,64.19 -988.47,70.27 -10.11,0.23 -20.22,0.23 -30.34,0.23 -235.09,0.91 51.48,-420.74 936.14,-423.32z"/>
   <path class="fil7" d="M11933.09 9103.24c151.58,114.76 303.68,210.74 460.12,297.82 155.91,87.09 315.78,161.99 479.22,229.69l124.66 46.54c20.53,7.76 40.77,17.04 62.14,23.66 21.14,6.69 42.2,13 63.35,20.53 42.21,13.91 84.19,29.2 126.93,42.81 43.12,11.56 86.17,24.57 129.29,37.88l64.8 20.22c21.98,5.25 43.96,10.43 65.94,16.5 43.96,11.26 87.92,23.73 132.42,36.74 88.75,23.43 179.33,43.12 270.97,74.3 -46.54,9.82 -93.4,17.95 -140.55,24.34 -47.07,5.78 -94.85,13.31 -142,14.44 -47.45,0.84 -95.14,1.45 -142.82,0.54 -24.04,0 -47.76,-0.84 -71.72,-1.45 -23.72,-1.67 -47.45,-4.33 -71.18,-7.23 -47.38,-5.17 -95.15,-10.95 -142.53,-17.87 -47.45,-7.3 -93.7,-20.3 -140.85,-30.65 -94.31,-19.39 -184.2,-54.99 -275.31,-87.08 -178.43,-73.47 -347.65,-171.51 -495.95,-294.7 -18.86,-15.29 -37.04,-31.19 -55.29,-46.85 -17.33,-16.73 -34.69,-33.23 -51.72,-50.58 -35.06,-33 -66.25,-69.96 -97.49,-106.39 -60.16,-74.99 -115.99,-154.16 -152.42,-243.22z"/>
   <path class="fil7" d="M9734.68 9103.24c-36.44,89.06 -92.26,168.23 -152.42,243.22 -31.26,36.43 -62.53,73.39 -97.5,106.39 -17.03,17.35 -34.38,33.85 -52.02,50.58 -17.95,15.66 -36.2,31.56 -54.91,46.85 -148.69,123.2 -317.83,221.23 -496.25,294.7 -90.89,32.09 -180.78,67.69 -275.39,87.08 -46.77,10.35 -93.09,23.35 -140.47,30.65 -47.46,6.93 -95.23,12.71 -142.61,17.87 -23.72,2.9 -47.45,5.56 -71.18,7.23 -23.95,0.61 -47.68,1.45 -71.64,1.45 -47.75,0.91 -95.53,0.3 -142.91,-0.54 -47.45,-1.14 -94.84,-8.67 -141.99,-14.44 -47.15,-6.39 -94.01,-14.52 -140.55,-24.34 91.65,-31.18 182.15,-50.87 270.98,-74.3 44.57,-13.01 88.45,-25.48 132.41,-36.74 22.05,-6.08 44.03,-11.26 65.94,-16.5l64.81 -20.22c43.11,-13.31 86.16,-26.32 129.28,-37.88 42.51,-13.62 84.43,-28.91 126.93,-42.81 20.84,-7.54 42.21,-13.85 63.36,-20.53 21.37,-6.62 41.38,-15.9 62.14,-23.66l124.43 -46.54c163.66,-67.7 323.6,-142.6 479.45,-229.69 156.44,-87.08 308.55,-183.06 460.12,-297.82z"/>
  </g>
 </g>
</svg>
