<?xml version="1.0" encoding="UTF-8"?>
<!DOCTYPE svg PUBLIC "-//W3C//DTD SVG 1.0//EN" "http://www.w3.org/TR/2001/REC-SVG-20010904/DTD/svg10.dtd">
<!-- Creator: CorelDRAW -->
<svg xmlns="http://www.w3.org/2000/svg" xml:space="preserve" width="218.612mm" height="261.392mm" version="1.0" style="shape-rendering:geometricPrecision; text-rendering:geometricPrecision; image-rendering:optimizeQuality; fill-rule:evenodd; clip-rule:evenodd"
viewBox="0 0 21861.18 26139.15"
 xmlns:xlink="http://www.w3.org/1999/xlink"
 xmlns:xodm="http://www.corel.com/coreldraw/odm/2003">
 <defs>
  <style type="text/css">
   <![CDATA[
    .fil0 {fill:none}
    .fil5 {fill:#193669;fill-rule:nonzero}
    .fil10 {fill:#194FB6;fill-rule:nonzero}
    .fil9 {fill:#1D2E58;fill-rule:nonzero}
    .fil6 {fill:#203060;fill-rule:nonzero}
    .fil7 {fill:#242345;fill-rule:nonzero}
    .fil8 {fill:#2EA4CF;fill-rule:nonzero}
    .fil2 {fill:#44A4DC;fill-rule:nonzero}
    .fil1 {fill:#44B4E7;fill-rule:nonzero}
    .fil3 {fill:#A8EBED;fill-rule:nonzero}
    .fil4 {fill:#D5F5F6;fill-rule:nonzero}
   ]]>
  </style>
 </defs>
 <g id="Camada_x0020_1">
  <metadata id="CorelCorpID_0Corel-Layer"/>
  <rect class="fil0" y="0" width="21861.18" height="26139.15"/>
  <g id="_1533997010592">
   <path class="fil1" d="M17650.17 18376.17c-26.64,1094.43 -281.81,1762.68 -1008.54,1414.97 -124.62,-59.91 -263.54,-149.58 -417.16,-272 -515.52,-411.07 -2760.97,-4754.55 -1174.24,-4791.6 409.93,-9.51 783.72,143.8 1112.09,398.67 942.49,731.6 1510.97,2298.42 1487.85,3249.96z"/>
   <path class="fil2" d="M17650.17 18376.17c-26.64,1094.43 -281.81,1762.68 -1008.54,1414.97 235.24,-578.91 443.86,-1913.98 -479.31,-4664.93 942.49,731.6 1510.97,2298.42 1487.85,3249.96z"/>
   <path class="fil3" d="M15511.07 16804.94c293.67,680.47 730.53,1864.52 604.92,1922.72 -113.37,52.35 -699.8,-803.64 -1015.08,-1793.08 -175.98,-550.83 -285.61,-1200.86 -194.46,-1231.22 113.13,-37.66 513.54,890.15 604.62,1101.58z"/>
   <path class="fil1" d="M5816.71 19450.29c-153.91,122.71 -292.76,212.37 -417.46,271.99 -411.06,197.01 -671.49,68.27 -824.48,-278.91 -117.48,-265.83 -172.1,-660.7 -183.66,-1136.05 -23.51,-951.47 545.27,-2518.37 1487.53,-3249.67 328.6,-254.86 702.08,-408.48 1112.31,-398.96 248.26,5.78 402.48,116.55 484.03,301.43 442.87,997.5 -1223.46,4143.31 -1658.27,4490.17z"/>
   <path class="fil4" d="M5281.79 16304.78c-45.12,68.85 -539.8,826.78 -367.4,990.58 174.15,164.87 1023.3,-276.86 1469.05,-990.58 251.15,-401.79 447.29,-1007.62 280.67,-1126.55 -205.42,-146.38 -946.08,457.94 -1382.32,1126.55z"/>
   <path class="fil2" d="M5816.71 19450.29c-153.91,122.71 -292.76,212.37 -417.46,271.99 -411.06,197.01 -671.49,68.27 -824.48,-278.91 629.79,-260.35 1667.54,-1233.82 2900.21,-4483.25 442.87,997.5 -1223.46,4143.31 -1658.27,4490.17z"/>
   <path class="fil1" d="M15368.79 16252.97c0,2381.81 -1671.04,5179.63 -4325.91,5179.63 -1645.26,0 -2999.13,-1007.34 -3790.37,-2353.74 -486.62,-826.78 -761.19,-1781.52 -761.19,-2709.56 0,-2440.22 2663.3,-2323.9 4351.09,-2323.9 1850.91,0 4048.43,-141.81 4458.05,1582.1 44.89,185.79 68.32,393.8 68.32,625.47l0.01 0z"/>
   <path class="fil2" d="M15368.79 16252.97c0,2381.81 -1671.04,5179.63 -4325.91,5179.63 -1645.26,0 -2999.13,-1007.34 -3790.37,-2353.74 1648.68,775.91 6345.18,2383.55 8047.95,-3451.36 44.89,185.79 68.32,393.8 68.32,625.47l0.01 0z"/>
   <path class="fil3" d="M7410.47 15423.3c-344.88,562.09 -100.66,1362.31 491.48,1676.45 625.77,332.17 1477.5,34.47 1710.08,-625.46 221.02,-627.14 -204.81,-1329.9 -815.29,-1526.88 -489.43,-158.24 -1099.29,8.38 -1386.27,475.89z"/>
   <path class="fil1" d="M6269.78 9427.05c-157.41,-156.27 -279.52,-337.04 -364.5,-531.2 -195.61,-445.23 -196.45,-959.62 19.09,-1403.09 218.66,-450.1 633.22,-771.54 1116.64,-887.87 136.57,-33.24 279.23,-49.99 424.15,-48.31 336.44,1887.72 -1195.38,2870.47 -1195.38,2870.47z"/>
   <path class="fil2" d="M6269.78 9427.05c-157.41,-156.27 -279.52,-337.04 -364.5,-531.2 191.79,-336.97 384.43,-695.77 574.26,-1076.17 209.15,-419.21 395.46,-825.41 561.47,-1214.79 136.57,-33.24 279.23,-49.99 424.15,-48.31 -398.35,956.72 -797.02,1913.74 -1195.38,2870.47z"/>
   <path class="fil1" d="M15606 11301.38c-162.89,2360.65 -5571.04,3157.15 -8106.45,1738.7 -704.44,-394.03 -1187.03,-959.31 -1273.76,-1709.48 -399.81,-3449.3 1874.95,-6615.65 4499.45,-6624.02 951.48,-2.89 2069.95,357.82 2997.38,1161.46 1189.06,1029.08 2066.51,2784.8 1883.38,5433.35l0 -0.01z"/>
   <path class="fil2" d="M15606 11301.38c-162.89,2360.65 -5571.04,3157.15 -8106.45,1738.7 1547.18,251.67 6152.24,801.05 6973.53,-1419.3 706.18,-1909.64 -182.22,-4451.44 -750.46,-5752.74 1189.06,1029.08 2066.51,2784.8 1883.38,5433.35l0 -0.01z"/>
   <path class="fil3" d="M7708.17 7038.32c140.6,183.97 998.95,-204.88 1574.96,-631.55 552.28,-408.78 1115.2,-1052.81 989.97,-1234.19 -111.08,-161.13 -745.6,70.91 -1143.88,284.39 -892.21,477.64 -1573.82,1380.8 -1421.05,1581.35z"/>
   <path class="fil3" d="M6467.07 10714.42c22.29,630.34 409.39,1227.72 564.98,1186.42 163.5,-43.45 94.65,-796.2 17.95,-1209.85 -21.98,-118.61 -156.8,-845.04 -326.62,-841.3 -133.67,2.58 -271.07,456.48 -256.31,864.73z"/>
   <path class="fil5" d="M14198.81 10351.9c1.75,473.6 -517.27,766.97 -1186.63,941.96 -705.35,184.88 -1577.31,238.97 -2184.83,235.24 -869.3,-5.78 -2546.66,-151.63 -3153.04,-700.41 -142.34,-128.72 -225.35,-279.74 -225.96,-455.64 -1.74,-512.94 210.59,-978.1 554.86,-1315.45 344.57,-337.35 821.68,-546.49 1349.02,-548.24l2931.18 -8.98c613.06,-1.98 1159.79,277.47 1510.44,712.88 252.81,314.14 403.83,709.4 404.97,1138.64l-0.01 0z"/>
   <path class="fil6" d="M14198.81 10351.9c1.75,473.6 -517.27,766.97 -1186.63,941.96 -705.35,184.88 -1577.31,238.97 -2184.83,235.24 -869.3,-5.78 -2546.66,-151.63 -3153.04,-700.41 1721.88,-56.98 4648.12,-348.91 6119.53,-1615.43 252.81,314.14 403.83,709.4 404.97,1138.64z"/>
   <path class="fil7" d="M13598.53 9954.37c1.45,471.32 -379.57,854.62 -850.52,856.07 -364.19,1.14 -675.82,-225.66 -799.38,-546.49 -36.37,-94.27 -56.38,-196.98 -56.91,-304.02 -1.45,-471.25 379.5,-854.32 850.74,-855.77 346.94,-1.14 646.01,204.81 779.99,501.61 48.61,106.51 75.54,224.51 76.08,348.6z"/>
   <path class="fil8" d="M12745.43 8958.39l-3.2 0c-267.04,0.53 -517.58,105.3 -705.88,294.74 -188.07,189.21 -291.09,440.36 -290.48,707.1 0.62,122.64 22.83,242.39 66.8,356.13 147.29,382.69 521.92,639.93 932.46,639.93l3.2 0c266.96,-0.92 517.5,-105.61 705.57,-294.82 188.07,-189.52 291.01,-440.59 290.48,-707.33 -0.61,-142.65 -30.66,-280.05 -89.17,-408.79 -161.14,-356.43 -518.11,-586.96 -909.78,-586.96l0 0zm16.2 161.14c345.64,0 627.14,190.35 760.82,486.24 48.61,106.51 75.54,224.51 76.08,348.6 1.45,471.32 -379.57,854.62 -850.52,856.07 -0.91,0 -2.05,0 -2.88,0 -363.07,0 -673.25,-226.5 -796.5,-546.49 -36.37,-94.27 -56.38,-196.98 -56.91,-304.02 -1.45,-471.25 368.24,-825.1 839.79,-826.56l30.12 -13.84z"/>
   <path class="fil9" d="M13522.22 9602.95c-316.27,770.93 -1106.6,751.53 -1571.54,663.66 -36.75,-94.35 -57.29,-196.75 -58.13,-304.1 -2.89,-470.94 376.68,-855.46 847.93,-858.65 346.85,-2.29 646.61,202.83 781.73,499.09l0.01 0z"/>
   <path class="fil3" d="M12706.94 9674.08c0.6,156.5 -125.85,283.47 -282.34,284.08 -156.28,0.62 -283.56,-125.84 -284.09,-282.34 -0.31,-156.5 126.06,-283.55 282.33,-284.08 156.5,-0.61 283.79,125.84 284.1,282.34z"/>
   <path class="fil3" d="M13414.87 10120.75c46.26,30.96 -15.9,328.36 -226.57,442.64 -187.46,101.8 -436.25,28.61 -442.34,-26.02 -4.33,-40.24 124.7,-51.81 339.63,-182.9 226.57,-137.93 296.87,-255.41 329.28,-233.72z"/>
   <path class="fil7" d="M9813.34 9966.31c1.53,471.25 -379.27,854.24 -850.21,855.69 -364.51,1.22 -675.82,-225.65 -799.31,-546.19 -36.44,-94.57 -56.68,-196.97 -56.98,-304.32 -1.52,-471.02 379.26,-854.32 850.81,-855.76 346.86,-1.14 645.94,205.11 779.92,501.67 48.31,106.44 75.54,224.52 75.77,348.91z"/>
   <path class="fil8" d="M8960.55 8969.95l-3.2 0c-267.04,0.84 -517.58,105.6 -705.88,294.82 -188.07,189.14 -291.39,440.59 -290.48,707.33 0.6,122.33 22.9,242.08 66.8,356.06 147.29,382.45 521.92,639.69 932.45,639.69l3.19 0c550.84,-1.75 997.51,-451.32 995.76,-1002.14 -0.3,-142.36 -30.36,-279.76 -89.09,-408.79 -160.84,-356.37 -517.88,-586.97 -909.55,-586.97l0 0zm24.26 154.76c345.72,0 619.08,196.74 752.76,492.69 48.31,106.44 75.54,224.52 75.77,348.91 1.75,471.25 -379.27,854.24 -850.21,855.69 -1.14,0 -2.05,0 -2.89,0 -363.06,0 -673.24,-226.5 -796.42,-546.19 -36.44,-94.57 -56.68,-196.97 -56.98,-304.32 -1.52,-471.02 374.02,-845.04 845.56,-846.78l32.41 0z"/>
   <path class="fil9" d="M9736.73 9615.95c-316.2,770.93 -1106.3,750.39 -1571.24,662.21 -36.44,-94.34 -56.98,-196.74 -57.82,-303.79 -2.88,-471.25 376.69,-855.77 847.93,-858.65 346.85,-2.28 646.31,203.67 781.13,500.23z"/>
   <path class="fil3" d="M8960.24 9805.4c0.61,156.58 -125.83,283.55 -282.33,284.09 -156.58,0.61 -283.87,-125.84 -284.17,-282.34 -0.53,-156.5 125.91,-283.48 282.41,-284.09 156.2,-0.53 283.49,125.84 284.09,282.34z"/>
   <path class="fil3" d="M9629.99 10132.63c46.25,30.97 -15.91,328.37 -226.57,442.64 -187.47,101.49 -436.25,28.3 -442.34,-26.32 -4.34,-40.25 124.4,-51.51 339.7,-182.6 226.49,-138.24 296.8,-255.4 329.21,-233.72z"/>
   <path class="fil10" d="M11072.4 8698.26c8.67,56.75 -374.32,191.57 -771.54,229.15 -644.03,61.63 -1235.03,-140.59 -1226.35,-212.04 3.72,-32.71 411.06,-37.88 1225.74,-47.17 654.38,-7.22 767.82,0.31 772.15,30.06z"/>
   <path class="fil5" d="M7760.21 9972.63c0,0 1379.96,-85.59 1975.3,-859.18 0,0 -669.67,-283.56 -1200.87,-169.82 -531.43,113.97 -774.43,1029 -774.43,1029z"/>
   <path class="fil5" d="M13917.92 9953.52c0,0 -451.01,-25.18 -949.49,-190.66 -373.72,-123.78 -773.83,-326.62 -1031.06,-656.35 0,0 667.99,-287.59 1199.73,-177.12 212.65,44.28 379.87,216.99 503.96,407.95 187.24,286.98 276.86,616.18 276.86,616.18z"/>
   <path class="fil6" d="M13917.92 9953.52c0,0 -451.01,-25.18 -949.49,-190.66 401.55,-166.61 664.26,-417.38 672.63,-425.52 187.24,286.98 276.86,616.18 276.86,616.18z"/>
   <path class="fil1" d="M5995.52 7464.46c-2.9,-3.81 -287.59,-388.86 -854.85,-637.33 -760.59,-333.01 -1644.73,-277.17 -2627.39,166.3l-105.08 -232.57c1317.51,-594.2 2276.21,-415.71 2848.49,-161.45 625.46,278.08 932.91,697.82 945.69,715.77l-206.86 148.98 103.32 -74.65 -103.32 74.95z"/>
   <path class="fil5" d="M2262.96 7600.95c325.17,-43.37 553.72,-342.22 510.35,-667.39 -43.37,-325.17 -341.99,-553.72 -667.08,-510.28 -325.25,43.37 -553.8,341.92 -510.66,667.08 43.37,325.48 342.21,553.72 667.39,510.59z"/>
   <path class="fil10" d="M2030.68 6631.52c175.9,8.14 311.55,157.71 303.18,333.54 -8.36,175.67 -157.71,311.63 -333.54,303.26 -175.89,-8.45 -311.62,-157.72 -303.18,-333.62 8.37,-175.82 157.64,-311.55 333.54,-303.18z"/>
   <path class="fil5" d="M10836.95 12283.29c288.43,-0.91 512.86,54.09 675.76,125.53 292.22,128.12 385.65,308.97 292.22,313.3 -145.54,6.69 -493.31,-87.11 -885.28,-85.89 -450.4,1.44 -757.09,64.21 -988.83,70.3 -10.11,0.23 -20.23,0.23 -30.35,0.23 -235.17,0.91 51.5,-420.89 936.48,-423.47z"/>
   <path class="fil7" d="M11937.37 9106.52c151.63,114.8 303.79,210.82 460.29,297.93 155.97,87.12 315.89,162.05 479.39,229.77l124.7 46.56c20.54,7.76 40.78,17.05 62.16,23.67 21.15,6.69 42.22,13 63.37,20.54 42.23,13.92 84.22,29.21 126.98,42.83 43.14,11.56 86.2,24.58 129.34,37.89l64.82 20.23c21.99,5.25 43.98,10.43 65.96,16.51 43.98,11.26 87.95,23.74 132.47,36.75 88.78,23.44 179.39,43.14 271.07,74.33 -46.56,9.82 -93.43,17.96 -140.6,24.35 -47.09,5.78 -94.88,13.31 -142.05,14.45 -47.47,0.84 -95.17,1.45 -142.87,0.54 -24.05,0 -47.78,-0.84 -71.75,-1.45 -23.73,-1.67 -47.47,-4.33 -71.21,-7.23 -47.4,-5.17 -95.18,-10.95 -142.58,-17.88 -47.47,-7.3 -93.73,-20.31 -140.9,-30.66 -94.34,-19.4 -184.27,-55.01 -275.41,-87.11 -178.49,-73.5 -347.78,-171.57 -496.13,-294.81 -18.87,-15.3 -37.05,-31.2 -55.31,-46.87 -17.34,-16.74 -34.7,-33.24 -51.74,-50.6 -35.07,-33.01 -66.27,-69.99 -97.53,-106.43 -60.18,-75.02 -116.03,-154.22 -152.47,-243.31z"/>
   <path class="fil7" d="M9738.18 9106.52c-36.45,89.09 -92.29,168.29 -152.47,243.31 -31.27,36.44 -62.55,73.42 -97.54,106.43 -17.04,17.36 -34.39,33.86 -52.04,50.6 -17.96,15.67 -36.21,31.57 -54.93,46.87 -148.74,123.24 -317.94,221.31 -496.43,294.81 -90.92,32.1 -180.85,67.71 -275.49,87.11 -46.79,10.35 -93.12,23.36 -140.52,30.66 -47.48,6.93 -95.26,12.71 -142.66,17.88 -23.73,2.9 -47.47,5.56 -71.21,7.23 -23.96,0.61 -47.7,1.45 -71.67,1.45 -47.77,0.91 -95.56,0.3 -142.96,-0.54 -47.47,-1.14 -94.87,-8.67 -142.04,-14.45 -47.17,-6.39 -94.04,-14.53 -140.6,-24.35 91.68,-31.19 182.22,-50.89 271.08,-74.33 44.59,-13.01 88.48,-25.49 132.46,-36.75 22.06,-6.08 44.05,-11.26 65.96,-16.51l64.83 -20.23c43.13,-13.31 86.19,-26.33 129.33,-37.89 42.53,-13.62 84.46,-28.92 126.98,-42.83 20.85,-7.54 42.23,-13.85 63.38,-20.54 21.38,-6.62 41.39,-15.91 62.16,-23.67l124.47 -46.56c163.72,-67.72 323.72,-142.65 479.62,-229.77 156.5,-87.11 308.66,-183.13 460.29,-297.93z"/>
  </g>
 </g>
</svg>
