<?xml version="1.0" encoding="UTF-8"?>
<!DOCTYPE svg PUBLIC "-//W3C//DTD SVG 1.0//EN" "http://www.w3.org/TR/2001/REC-SVG-20010904/DTD/svg10.dtd">
<!-- Creator: CorelDRAW -->
<svg xmlns="http://www.w3.org/2000/svg" xml:space="preserve" width="218.612mm" height="261.392mm" version="1.0" style="shape-rendering:geometricPrecision; text-rendering:geometricPrecision; image-rendering:optimizeQuality; fill-rule:evenodd; clip-rule:evenodd"
viewBox="0 0 21861.2 26139.16"
 xmlns:xlink="http://www.w3.org/1999/xlink"
 xmlns:xodm="http://www.corel.com/coreldraw/odm/2003">
 <defs>
  <style type="text/css">
   <![CDATA[
    .fil0 {fill:none}
    .fil4 {fill:#193669;fill-rule:nonzero}
    .fil9 {fill:#194FB6;fill-rule:nonzero}
    .fil8 {fill:#1D2E58;fill-rule:nonzero}
    .fil5 {fill:#203060;fill-rule:nonzero}
    .fil6 {fill:#242345;fill-rule:nonzero}
    .fil7 {fill:#2EA4CF;fill-rule:nonzero}
    .fil2 {fill:#44A4DC;fill-rule:nonzero}
    .fil1 {fill:#44B4E7;fill-rule:nonzero}
    .fil3 {fill:#A8EBED;fill-rule:nonzero}
   ]]>
  </style>
 </defs>
 <g id="Camada_x0020_1">
  <metadata id="CorelCorpID_0Corel-Layer"/>
  <rect class="fil0" width="21861.2" height="26139.16"/>
  <g id="_1533815688064">
   <path class="fil1" d="M5285.91 12138.8c-265.52,521.91 -888.63,268.48 -1655.52,-349.75 -915.26,-738.3 -1965.19,-2773.48 -1323.06,-4021.82 0,-0.3 0,-0.3 0,-0.3 58.58,-113.74 130.86,-220.71 218.35,-319.99 1053.73,-1186.95 2917.72,3333.57 2898.7,3992.58 -9.89,311.86 -57.82,541.32 -138.47,699.28z"/>
   <path class="fil2" d="M5285.91 12138.8c-265.52,521.91 -888.63,268.48 -1655.52,-349.75 -915.26,-738.3 -1965.19,-2773.48 -1323.06,-4021.82 167.38,1257.25 781.35,3362.19 2978.58,4371.57z"/>
   <path class="fil3" d="M3765.81 8335.71c178.03,329.21 419.97,900.89 311.17,970.27 -111.08,70.9 -591.15,-380.71 -855.92,-930.4 -181.07,-375.46 -294.43,-865.57 -190.96,-917.61 117.93,-58.74 504.42,448.42 735.71,877.74z"/>
   <path class="fil1" d="M15555.37 17244.3c0,2381.8 -1670.75,5179.61 -4325.98,5179.61 -1644.88,0 -2999.13,-1007.33 -3790.38,-2353.73 -486.92,-826.77 -760.81,-1781.51 -760.81,-2709.56 0,-2440.23 2662.84,-2323.9 4351.1,-2323.9 1850.29,0 4048.29,-141.82 4457.6,1582.11 44.89,185.8 68.47,393.49 68.47,625.47z"/>
   <path class="fil2" d="M15555.37 17244.3c0,2381.8 -1670.75,5179.61 -4325.98,5179.61 -1644.88,0 -2999.13,-1007.33 -3790.38,-2353.73 1648.68,775.9 6345.19,2383.54 8047.89,-3451.36 44.89,185.8 68.47,393.49 68.47,625.47l0 0.01z"/>
   <path class="fil3" d="M7597.26 16414.33c-345.4,562.38 -101.18,1362.61 490.73,1676.75 626.14,332.17 1478.26,34.47 1710.31,-625.77 221.39,-626.83 -204.66,-1329.6 -814.83,-1526.88 -489.97,-157.94 -1099.38,8.37 -1386.21,475.9z"/>
   <path class="fil1" d="M18617.65 11490.19c-759.3,789.8 -1398.38,1110.33 -1699.66,363.36 -51.74,-128.43 -93.59,-288.42 -124.77,-482.58 -101.95,-651.18 1173.92,-5371.42 2369.18,-4327.59 308.89,269.94 481.59,635.59 551.58,1045.22 200.86,1175.98 -437.46,2715.64 -1096.32,3401.59l-0.01 0z"/>
   <path class="fil2" d="M18617.65 11490.19c-759.3,789.8 -1398.38,1110.33 -1699.66,363.36 563.76,-268.49 1619.77,-1112.68 2795.98,-3764.95 200.86,1175.98 -437.46,2715.64 -1096.32,3401.59z"/>
   <path class="fil3" d="M18100.29 8887.37c-242.7,700.1 -719.73,1868.56 -852.11,1826.64 -118.69,-37.89 25.87,-1065.53 461.81,-2008.02 241.94,-525.11 599.52,-1078.83 687.77,-1039.81 108.8,48.63 -222.15,1003.3 -297.47,1221.19z"/>
   <path class="fil1" d="M6426.37 9964.68c-155.2,-157.64 -276.17,-339.62 -359.1,-534.31 -191.72,-446.98 -188.68,-961.37 31.19,-1403.1 222.92,-448.12 640.61,-765.76 1124.48,-877.75 136.95,-32.11 279.22,-47.7 424.54,-44.51 319.54,1890.55 -1221.11,2859.67 -1221.11,2859.67z"/>
   <path class="fil2" d="M6426.37 9964.68c-155.2,-157.64 -276.17,-339.62 -359.1,-534.31 194.01,-335.3 390.3,-692.27 582.78,-1071.01 213.03,-417.46 403.23,-821.83 572.89,-1209.84 136.95,-32.11 279.22,-47.7 424.54,-44.51 -407.04,953.23 -814.07,1906.45 -1221.11,2859.67z"/>
   <path class="fil1" d="M15746.33 11922.11c-184.11,2358.91 -5599.58,3107.39 -8122.44,1666.33 -700.7,-400.41 -1177.74,-970.03 -1258.38,-1720.42 -369,-3453.1 1933.99,-6599.22 4558.79,-6583.85 951.02,5.47 2066.37,376.07 2986.96,1188.16 1179.25,1039.42 2041.26,2802.99 1835.07,5449.78z"/>
   <path class="fil2" d="M15746.33 11922.11c-184.11,2358.91 -5599.58,3107.39 -8122.44,1666.33 1545.21,265.6 6145.09,855.77 6986.55,-1357.36 722.77,-1903.02 -143.03,-4452.89 -699.18,-5758.75 1179.25,1039.42 2041.26,2802.99 1835.07,5449.78z"/>
   <path class="fil3" d="M7886.37 7588.75c138.47,185.1 1000.47,-195.91 1580.21,-617.4 556.15,-403.84 1124.48,-1042.92 1001.23,-1225.44 -110.31,-162.05 -746.36,64.44 -1146.55,274.19 -896.23,469.57 -1586.29,1366.96 -1434.89,1568.65z"/>
   <path class="fil3" d="M6612.01 11253.8c17.5,630.42 398.67,1231.3 555.4,1191.36 163.57,-42 101.18,-795.28 28.14,-1209.54 -20.54,-118.91 -149.12,-846.56 -319.54,-844.5 -133.14,1.75 -274.66,454.21 -264,862.68z"/>
   <path class="fil4" d="M14354.05 8814.49c-3.05,473.52 -524.2,762.03 -1195.25,931.53 -706.79,178.49 -1579.44,224.75 -2186.57,215.46 -869.61,-13.53 -2545.68,-174.14 -3146.73,-728.4 -141.51,-129.94 -222.91,-281.5 -222.15,-457.7 3.04,-512.94 219.11,-976.05 566.81,-1310.5 347.68,-334.15 826.24,-538.96 1353.49,-536.07l2931.41 17.04c613.21,3.5 1157.19,287.59 1503.37,726.43 250.3,316.49 397.9,712.87 395.62,1142.21z"/>
   <path class="fil5" d="M14354.05 8814.49c-3.05,473.52 -524.2,762.03 -1195.25,931.53 -706.79,178.49 -1579.44,224.75 -2186.57,215.46 -869.61,-13.53 -2545.68,-174.14 -3146.73,-728.4 1721.73,-41.69 4650.86,-307.21 6132.93,-1560.8 250.3,316.49 397.9,712.87 395.62,1142.21z"/>
   <path class="fil6" d="M13756.81 8411.8c-2.28,471.25 -386.5,850.82 -858.2,848.15 -364.43,-1.97 -673.32,-231.66 -794.29,-553.41 -35,-94.88 -54.78,-197.29 -54.02,-304.63 3.05,-471.25 387.25,-850.82 858.2,-848.24 346.93,2.05 644.41,210.6 775.27,508.6 47.93,106.75 73.8,225.05 73.04,349.53z"/>
   <path class="fil7" d="M12903.94 7407.89l0 0c-547.79,0 -996.67,445.54 -999.72,993.16 -0.75,122.35 21.31,242.41 63.92,356.68 144.55,385.12 518.11,645.7 929.7,648.06l6.1 0c547.78,0 995.9,-445.53 998.94,-993.16 0.77,-142.66 -28.15,-280.29 -85.97,-409.63 -158.25,-359.03 -514.31,-592.75 -907.65,-595.11l-5.32 0 0 0zm0 145.77c346.17,2.05 648.97,210.6 779.83,508.6 47.93,106.75 73.8,225.05 73.04,349.53 -2.28,469.49 -384.22,848.15 -852.87,848.15 -1.53,0 -3.81,0 -5.33,0 -364.43,-1.97 -673.32,-231.66 -794.29,-553.41 -35,-94.88 -54.78,-197.29 -54.02,-304.63 3.05,-469.5 384.21,-848.24 853.64,-848.24l0 0z"/>
   <path class="fil8" d="M13683.01 8060.52c-322.59,768.11 -1112.31,740.65 -1576.41,648.67 -36.51,-94.65 -55.54,-197.35 -55.54,-304.63 1.53,-471.02 384.22,-852.34 855.92,-851.12 346.17,0.83 644.41,209.68 776.03,507.08z"/>
   <path class="fil3" d="M12868.18 8123.36c-0.77,156.5 -128.58,282.57 -285.31,281.43 -155.97,-0.84 -282.26,-128.12 -281.5,-284.62 0.76,-156.58 128.57,-282.64 285.3,-281.81 155.97,1.14 282.27,128.43 281.51,285z"/>
   <path class="fil3" d="M13571.93 8576.35c45.65,31.57 -19.02,328.06 -230.52,440.58 -188.69,100.13 -436.72,24.66 -442.04,-30.04 -3.8,-40.25 124.77,-50.67 341.6,-179.64 227.49,-136.26 298.24,-252.89 330.96,-230.9z"/>
   <path class="fil6" d="M9971.76 8389.8c-2.28,471.25 -386.5,851.12 -858.19,848.16 -363.67,-1.99 -673.33,-231.68 -793.53,-553.35 -35.76,-94.64 -55.54,-197.35 -54.78,-304.7 3.04,-471.25 387.25,-850.82 858.2,-848.23 346.92,2.05 644.41,210.89 775.26,508.6 47.94,107.05 73.8,225.05 73.04,349.52z"/>
   <path class="fil7" d="M9118.89 7385.91l0 0c-547.78,0 -995.9,445.52 -999.71,993.16 0,122.34 21.31,242.4 63.91,356.67 144.55,385.35 518.11,645.78 929.71,648.06l6.09 0c547.78,0 995.9,-445.53 998.94,-993.17 0.77,-142.34 -28.14,-280.35 -85.21,-409.69 -158.24,-358.96 -515.07,-592.75 -908.41,-595.03l-5.32 0 0 0zm6.86 143.79c346.93,1.98 642.13,212.87 772.98,510.58 47.94,107.05 73.8,225.05 73.04,349.52 -2.28,469.49 -384.21,848.16 -852.87,848.16 -1.53,0 -3.04,0 -5.32,0 -363.67,-1.99 -673.33,-231.68 -793.53,-553.35 -35.76,-94.64 -55.54,-197.35 -54.78,-304.7 3.04,-469.5 391.82,-850.21 860.48,-850.21l0 0z"/>
   <path class="fil8" d="M9898.72 8038.54c-323.35,768.42 -1113.07,740.65 -1577.16,648.59 -35.76,-94.57 -55.55,-197.28 -55.55,-304.32 1.53,-471.25 384.22,-852.26 855.92,-851.12 346.94,0.91 644.41,209.52 776.79,506.85z"/>
   <path class="fil3" d="M9083.14 8101.3c-0.77,156.57 -128.59,282.64 -285.31,281.8 -155.97,-0.83 -282.26,-128.43 -280.75,-284.93 0.76,-156.49 127.82,-282.41 284.55,-281.49 155.97,0.84 282.26,128.42 281.51,284.62z"/>
   <path class="fil3" d="M9786.88 8554.36c46.41,31.58 -19.01,328.37 -230.52,440.59 -187.93,100.12 -436.71,24.65 -442.04,-30.06 -3.8,-40.24 124.78,-50.36 341.61,-179.62 227.48,-136.03 299,-252.89 330.95,-230.91z"/>
   <path class="fil9" d="M11242.32 7133.09c7.6,56.67 -375.84,187.99 -773.75,222.46 -644.41,55.54 -1233.27,-151.93 -1224.91,-223.38 4.57,-32.64 412.37,-34.15 1226.43,-35.83 654.3,-1.45 767.66,6.62 772.23,36.75z"/>
   <path class="fil1" d="M6111.39 8337.39c-16.73,-13.54 -419.96,-342.52 -664.95,-981.6 -224.44,-584.92 -353.02,-1551.45 309.66,-2836.01l226.72 116.93c-489.97,950.34 -593.44,1859.05 -298.24,2627.71 220.64,575.4 582.78,871.36 586.59,874.24l-159.78 198.73z"/>
   <path class="fil4" d="M6602.12 4418.28c-60.1,322.59 -370.52,535.17 -692.34,475.05 -322.58,-60.17 -535.62,-370.59 -475.51,-693.16 60.11,-322.29 370.51,-534.94 693.1,-474.75 322.59,60.17 534.85,370.29 474.75,692.86z"/>
   <path class="fil9" d="M5646.54 4135.94c-0.77,175.9 140.75,319.39 317.25,320.23 175.76,0.61 319.55,-141.44 320.31,-317.34 0.76,-176.2 -141.51,-319.39 -317.26,-320.31 -176.51,-0.83 -319.54,141.22 -320.3,317.42z"/>
   <path class="fil4" d="M10957.78 11422.17c-410.08,8.98 -731.91,-117.39 -966.23,-285.22 -421.5,-300 -563.01,-731.91 -430.62,-744.69 206.94,-19.1 704.51,197.05 1261.42,184.57 639.85,-14.46 1072.75,-172.7 1400.65,-192.34 15.22,-1.14 28.92,-1.74 43.38,-2.05 333.99,-7.52 -52.5,1011.43 -1308.6,1039.73z"/>
   <path class="fil5" d="M10957.78 11422.17c-410.08,8.98 -731.91,-117.39 -966.23,-285.22 554.62,-79.89 1643.35,-289.04 2231.45,-752.46 15.22,-1.14 28.92,-1.74 43.38,-2.05 333.99,-7.52 -52.5,1011.43 -1308.6,1039.73z"/>
  </g>
 </g>
</svg>
